<ttFont>
    <TTGlyph name="A" xMin="-221" yMin="-290" xMax="629" yMax="696">
      <contour>
        <pt x="507" y="300" on="1"/>
        <pt x="339" y="305" on="1"/>
        <pt x="311" y="305" on="0"/>
        <pt x="179" y="301" on="1"/>
        <pt x="159" y="259" on="0"/>
        <pt x="126" y="186" on="1"/>
        <pt x="29" y="-30" on="0"/>
        <pt x="-66" y="-174" on="1"/>
        <pt x="-143" y="-290" on="0"/>
        <pt x="-182" y="-290" on="1"/>
        <pt x="-199" y="-290" on="0"/>
        <pt x="-221" y="-267" on="0"/>
        <pt x="-221" y="-227" on="0"/>
        <pt x="-178" y="-173" on="0"/>
        <pt x="-113" y="-110" on="0"/>
        <pt x="-8" y="36" on="0"/>
        <pt x="40" y="131" on="1"/>
        <pt x="48" y="146" on="0"/>
        <pt x="121" y="300" on="1"/>
        <pt x="116" y="300" on="1"/>
        <pt x="100" y="300" on="0"/>
        <pt x="77" y="319" on="0"/>
        <pt x="77" y="353" on="0"/>
        <pt x="101" y="375" on="0"/>
        <pt x="140" y="375" on="0"/>
        <pt x="158" y="374" on="1"/>
        <pt x="250" y="562" on="0"/>
        <pt x="326" y="634" on="1"/>
        <pt x="148" y="620" on="0"/>
        <pt x="119" y="620" on="0"/>
        <pt x="94" y="640" on="0"/>
        <pt x="94" y="673" on="0"/>
        <pt x="119" y="696" on="0"/>
        <pt x="134" y="696" on="1"/>
        <pt x="352" y="690" on="1"/>
        <pt x="589" y="696" on="1"/>
        <pt x="607" y="696" on="0"/>
        <pt x="629" y="674" on="0"/>
        <pt x="629" y="639" on="0"/>
        <pt x="606" y="620" on="0"/>
        <pt x="588" y="620" on="1"/>
        <pt x="564" y="620" on="1"/>
        <pt x="564" y="460" on="0"/>
        <pt x="590" y="202" on="0"/>
        <pt x="616" y="62" on="0"/>
        <pt x="616" y="25" on="0"/>
        <pt x="593" y="-6" on="0"/>
        <pt x="555" y="-6" on="0"/>
        <pt x="527" y="22" on="0"/>
        <pt x="525" y="48" on="1"/>
      </contour>
      <contour>
        <pt x="489" y="632" on="1"/>
        <pt x="459" y="633" on="1"/>
        <pt x="340" y="618" on="0"/>
        <pt x="215" y="373" on="1"/>
        <pt x="321" y="371" on="0"/>
        <pt x="378" y="371" on="0"/>
        <pt x="502" y="375" on="1"/>
        <pt x="489" y="547" on="0"/>
      </contour>
    </TTGlyph>
    <TTGlyph name="AE" xMin="-191" yMin="-290" xMax="953" yMax="696">
      <contour>
        <pt x="164" y="696" on="1"/>
        <pt x="527" y="690" on="1"/>
        <pt x="899" y="696" on="1"/>
        <pt x="915" y="696" on="0"/>
        <pt x="940" y="675" on="0"/>
        <pt x="940" y="639" on="0"/>
        <pt x="915" y="618" on="0"/>
        <pt x="899" y="618" on="1"/>
        <pt x="857" y="618" on="0"/>
        <pt x="649" y="632" on="0"/>
        <pt x="613" y="633" on="1"/>
        <pt x="613" y="621" on="0"/>
        <pt x="611" y="588" on="1"/>
        <pt x="605" y="491" on="0"/>
        <pt x="605" y="405" on="1"/>
        <pt x="625" y="403" on="0"/>
        <pt x="673" y="401" on="1"/>
        <pt x="700" y="458" on="0"/>
        <pt x="806" y="529" on="0"/>
        <pt x="853" y="529" on="1"/>
        <pt x="913" y="529" on="0"/>
        <pt x="913" y="480" on="1"/>
        <pt x="913" y="464" on="0"/>
        <pt x="890" y="441" on="0"/>
        <pt x="865" y="441" on="0"/>
        <pt x="828" y="465" on="0"/>
        <pt x="774" y="465" on="0"/>
        <pt x="720" y="429" on="0"/>
        <pt x="707" y="401" on="1"/>
        <pt x="747" y="401" on="0"/>
        <pt x="843" y="407" on="0"/>
        <pt x="864" y="407" on="0"/>
        <pt x="884" y="387" on="0"/>
        <pt x="884" y="355" on="0"/>
        <pt x="864" y="334" on="0"/>
        <pt x="848" y="334" on="1"/>
        <pt x="709" y="339" on="1"/>
        <pt x="699" y="339" on="1"/>
        <pt x="706" y="300" on="0"/>
        <pt x="766" y="249" on="0"/>
        <pt x="836" y="249" on="0"/>
        <pt x="896" y="292" on="0"/>
        <pt x="899" y="292" on="1"/>
        <pt x="913" y="292" on="0"/>
        <pt x="913" y="278" on="1"/>
        <pt x="913" y="268" on="0"/>
        <pt x="880" y="231" on="0"/>
        <pt x="807" y="195" on="0"/>
        <pt x="715" y="195" on="0"/>
        <pt x="652" y="266" on="0"/>
        <pt x="652" y="310" on="1"/>
        <pt x="652" y="320" on="0"/>
        <pt x="654" y="338" on="1"/>
        <pt x="605" y="335" on="1"/>
        <pt x="605" y="213" on="0"/>
        <pt x="614" y="75" on="0"/>
        <pt x="614" y="66" on="1"/>
        <pt x="912" y="72" on="1"/>
        <pt x="928" y="72" on="0"/>
        <pt x="953" y="51" on="0"/>
        <pt x="953" y="15" on="0"/>
        <pt x="928" y="-6" on="0"/>
        <pt x="912" y="-6" on="1"/>
        <pt x="720" y="0" on="1"/>
        <pt x="680" y="0" on="0"/>
        <pt x="570" y="-6" on="0"/>
        <pt x="566" y="-6" on="1"/>
        <pt x="545" y="-6" on="0"/>
        <pt x="518" y="26" on="0"/>
        <pt x="518" y="63" on="0"/>
        <pt x="526" y="223" on="0"/>
        <pt x="527" y="300" on="1"/>
        <pt x="369" y="305" on="1"/>
        <pt x="341" y="305" on="0"/>
        <pt x="209" y="301" on="1"/>
        <pt x="189" y="259" on="0"/>
        <pt x="156" y="186" on="1"/>
        <pt x="59" y="-30" on="0"/>
        <pt x="-36" y="-174" on="1"/>
        <pt x="-113" y="-290" on="0"/>
        <pt x="-152" y="-290" on="1"/>
        <pt x="-169" y="-290" on="0"/>
        <pt x="-191" y="-267" on="0"/>
        <pt x="-191" y="-227" on="0"/>
        <pt x="-148" y="-173" on="0"/>
        <pt x="-83" y="-110" on="0"/>
        <pt x="22" y="36" on="0"/>
        <pt x="70" y="131" on="1"/>
        <pt x="78" y="146" on="0"/>
        <pt x="151" y="300" on="1"/>
        <pt x="146" y="300" on="1"/>
        <pt x="130" y="300" on="0"/>
        <pt x="107" y="319" on="0"/>
        <pt x="107" y="353" on="0"/>
        <pt x="131" y="375" on="0"/>
        <pt x="170" y="375" on="0"/>
        <pt x="188" y="374" on="1"/>
        <pt x="278" y="558" on="0"/>
        <pt x="356" y="632" on="1"/>
        <pt x="177" y="618" on="0"/>
        <pt x="149" y="618" on="0"/>
        <pt x="124" y="640" on="0"/>
        <pt x="124" y="673" on="0"/>
        <pt x="149" y="696" on="0"/>
      </contour>
      <contour>
        <pt x="518" y="634" on="1"/>
        <pt x="506" y="635" on="1"/>
        <pt x="472" y="635" on="0"/>
        <pt x="402" y="596" on="0"/>
        <pt x="353" y="548" on="0"/>
        <pt x="325" y="507" on="1"/>
        <pt x="261" y="414" on="0"/>
        <pt x="245" y="373" on="1"/>
        <pt x="351" y="371" on="0"/>
        <pt x="375" y="371" on="0"/>
        <pt x="527" y="375" on="1"/>
        <pt x="526" y="452" on="0"/>
      </contour>
    </TTGlyph>
    <TTGlyph name="Aacute" xMin="-221" yMin="-290" xMax="629" yMax="879">
      <contour>
        <pt x="507" y="300" on="1"/>
        <pt x="339" y="305" on="1"/>
        <pt x="311" y="305" on="0"/>
        <pt x="179" y="301" on="1"/>
        <pt x="159" y="259" on="0"/>
        <pt x="126" y="186" on="1"/>
        <pt x="29" y="-30" on="0"/>
        <pt x="-66" y="-174" on="1"/>
        <pt x="-143" y="-290" on="0"/>
        <pt x="-182" y="-290" on="1"/>
        <pt x="-199" y="-290" on="0"/>
        <pt x="-221" y="-267" on="0"/>
        <pt x="-221" y="-227" on="0"/>
        <pt x="-178" y="-173" on="0"/>
        <pt x="-113" y="-110" on="0"/>
        <pt x="-8" y="36" on="0"/>
        <pt x="40" y="131" on="1"/>
        <pt x="48" y="146" on="0"/>
        <pt x="121" y="300" on="1"/>
        <pt x="116" y="300" on="1"/>
        <pt x="100" y="300" on="0"/>
        <pt x="77" y="319" on="0"/>
        <pt x="77" y="353" on="0"/>
        <pt x="101" y="375" on="0"/>
        <pt x="140" y="375" on="0"/>
        <pt x="158" y="374" on="1"/>
        <pt x="250" y="562" on="0"/>
        <pt x="326" y="634" on="1"/>
        <pt x="148" y="620" on="0"/>
        <pt x="119" y="620" on="0"/>
        <pt x="94" y="640" on="0"/>
        <pt x="94" y="673" on="0"/>
        <pt x="119" y="696" on="0"/>
        <pt x="134" y="696" on="1"/>
        <pt x="352" y="690" on="1"/>
        <pt x="589" y="696" on="1"/>
        <pt x="607" y="696" on="0"/>
        <pt x="629" y="674" on="0"/>
        <pt x="629" y="639" on="0"/>
        <pt x="606" y="620" on="0"/>
        <pt x="588" y="620" on="1"/>
        <pt x="564" y="620" on="1"/>
        <pt x="564" y="460" on="0"/>
        <pt x="590" y="202" on="0"/>
        <pt x="616" y="62" on="0"/>
        <pt x="616" y="25" on="0"/>
        <pt x="593" y="-6" on="0"/>
        <pt x="555" y="-6" on="0"/>
        <pt x="527" y="22" on="0"/>
        <pt x="525" y="48" on="1"/>
      </contour>
      <contour>
        <pt x="489" y="632" on="1"/>
        <pt x="459" y="633" on="1"/>
        <pt x="340" y="618" on="0"/>
        <pt x="215" y="373" on="1"/>
        <pt x="321" y="371" on="0"/>
        <pt x="378" y="371" on="0"/>
        <pt x="502" y="375" on="1"/>
        <pt x="489" y="547" on="0"/>
      </contour>
      <contour>
        <pt x="364" y="762" on="1"/>
        <pt x="364" y="768" on="0"/>
        <pt x="372" y="776" on="1"/>
        <pt x="475" y="879" on="0"/>
        <pt x="522" y="879" on="1"/>
        <pt x="537" y="879" on="0"/>
        <pt x="560" y="858" on="0"/>
        <pt x="560" y="843" on="1"/>
        <pt x="560" y="810" on="0"/>
        <pt x="523" y="803" on="1"/>
        <pt x="445" y="789" on="0"/>
        <pt x="388" y="755" on="1"/>
        <pt x="380" y="750" on="0"/>
        <pt x="376" y="750" on="1"/>
        <pt x="364" y="750" on="0"/>
      </contour>
    </TTGlyph>
    <TTGlyph name="Acircumflex" xMin="-221" yMin="-290" xMax="629" yMax="879">
      <component glyphName="A" x="0" y="0" flags="0x1004"/>
      <component glyphName="circumflex" x="249" y="237" flags="0x1004"/>
    </TTGlyph>
    <TTGlyph name="Adieresis" xMin="-221" yMin="-290" xMax="629" yMax="881">
      <contour>
        <pt x="352" y="690" on="1"/>
        <pt x="589" y="696" on="1"/>
        <pt x="607" y="696" on="0"/>
        <pt x="629" y="674" on="0"/>
        <pt x="629" y="639" on="0"/>
        <pt x="606" y="620" on="0"/>
        <pt x="588" y="620" on="1"/>
        <pt x="564" y="620" on="1"/>
        <pt x="564" y="460" on="0"/>
        <pt x="590" y="202" on="0"/>
        <pt x="616" y="62" on="0"/>
        <pt x="616" y="25" on="0"/>
        <pt x="593" y="-6" on="0"/>
        <pt x="555" y="-6" on="0"/>
        <pt x="527" y="22" on="0"/>
        <pt x="525" y="48" on="1"/>
        <pt x="507" y="300" on="1"/>
        <pt x="339" y="305" on="1"/>
        <pt x="311" y="305" on="0"/>
        <pt x="179" y="301" on="1"/>
        <pt x="159" y="259" on="0"/>
        <pt x="126" y="186" on="1"/>
        <pt x="29" y="-30" on="0"/>
        <pt x="-66" y="-174" on="1"/>
        <pt x="-143" y="-290" on="0"/>
        <pt x="-182" y="-290" on="1"/>
        <pt x="-199" y="-290" on="0"/>
        <pt x="-221" y="-267" on="0"/>
        <pt x="-221" y="-227" on="0"/>
        <pt x="-178" y="-173" on="0"/>
        <pt x="-113" y="-110" on="0"/>
        <pt x="-8" y="36" on="0"/>
        <pt x="40" y="131" on="1"/>
        <pt x="48" y="146" on="0"/>
        <pt x="121" y="300" on="1"/>
        <pt x="116" y="300" on="1"/>
        <pt x="100" y="300" on="0"/>
        <pt x="77" y="319" on="0"/>
        <pt x="77" y="353" on="0"/>
        <pt x="101" y="375" on="0"/>
        <pt x="140" y="375" on="0"/>
        <pt x="158" y="374" on="1"/>
        <pt x="250" y="562" on="0"/>
        <pt x="326" y="634" on="1"/>
        <pt x="147" y="620" on="0"/>
        <pt x="119" y="620" on="0"/>
        <pt x="94" y="640" on="0"/>
        <pt x="94" y="673" on="0"/>
        <pt x="119" y="696" on="0"/>
        <pt x="134" y="696" on="1"/>
      </contour>
      <contour>
        <pt x="459" y="633" on="1"/>
        <pt x="340" y="618" on="0"/>
        <pt x="215" y="373" on="1"/>
        <pt x="321" y="371" on="0"/>
        <pt x="378" y="371" on="0"/>
        <pt x="502" y="375" on="1"/>
        <pt x="489" y="547" on="0"/>
        <pt x="489" y="632" on="1"/>
      </contour>
      <contour>
        <pt x="473" y="788" on="0"/>
        <pt x="450" y="809" on="0"/>
        <pt x="450" y="851" on="0"/>
        <pt x="479" y="881" on="0"/>
        <pt x="519" y="881" on="0"/>
        <pt x="543" y="859" on="0"/>
        <pt x="543" y="817" on="0"/>
        <pt x="513" y="788" on="0"/>
      </contour>
      <contour>
        <pt x="283" y="788" on="0"/>
        <pt x="260" y="809" on="0"/>
        <pt x="260" y="851" on="0"/>
        <pt x="289" y="881" on="0"/>
        <pt x="329" y="881" on="0"/>
        <pt x="353" y="859" on="0"/>
        <pt x="353" y="817" on="0"/>
        <pt x="323" y="788" on="0"/>
      </contour>
    </TTGlyph>
    <TTGlyph name="Agrave" xMin="-221" yMin="-290" xMax="629" yMax="879">
      <component glyphName="A" x="0" y="0" flags="0x1004"/>
      <component glyphName="grave" x="204" y="237" flags="0x1004"/>
    </TTGlyph>
    <TTGlyph name="Aring" xMin="-221" yMin="-290" xMax="629" yMax="888">
      <contour>
        <pt x="352" y="690" on="1"/>
        <pt x="589" y="696" on="1"/>
        <pt x="607" y="696" on="0"/>
        <pt x="629" y="674" on="0"/>
        <pt x="629" y="639" on="0"/>
        <pt x="606" y="620" on="0"/>
        <pt x="588" y="620" on="1"/>
        <pt x="564" y="620" on="1"/>
        <pt x="564" y="460" on="0"/>
        <pt x="590" y="202" on="0"/>
        <pt x="616" y="62" on="0"/>
        <pt x="616" y="25" on="0"/>
        <pt x="593" y="-6" on="0"/>
        <pt x="555" y="-6" on="0"/>
        <pt x="527" y="22" on="0"/>
        <pt x="525" y="48" on="1"/>
        <pt x="507" y="300" on="1"/>
        <pt x="339" y="305" on="1"/>
        <pt x="311" y="305" on="0"/>
        <pt x="179" y="301" on="1"/>
        <pt x="159" y="259" on="0"/>
        <pt x="126" y="186" on="1"/>
        <pt x="29" y="-30" on="0"/>
        <pt x="-66" y="-174" on="1"/>
        <pt x="-143" y="-290" on="0"/>
        <pt x="-182" y="-290" on="1"/>
        <pt x="-199" y="-290" on="0"/>
        <pt x="-221" y="-267" on="0"/>
        <pt x="-221" y="-227" on="0"/>
        <pt x="-178" y="-173" on="0"/>
        <pt x="-113" y="-110" on="0"/>
        <pt x="-8" y="36" on="0"/>
        <pt x="40" y="131" on="1"/>
        <pt x="48" y="146" on="0"/>
        <pt x="121" y="300" on="1"/>
        <pt x="116" y="300" on="1"/>
        <pt x="100" y="300" on="0"/>
        <pt x="77" y="319" on="0"/>
        <pt x="77" y="353" on="0"/>
        <pt x="101" y="375" on="0"/>
        <pt x="140" y="375" on="0"/>
        <pt x="158" y="374" on="1"/>
        <pt x="250" y="562" on="0"/>
        <pt x="326" y="634" on="1"/>
        <pt x="147" y="620" on="0"/>
        <pt x="119" y="620" on="0"/>
        <pt x="94" y="640" on="0"/>
        <pt x="94" y="673" on="0"/>
        <pt x="119" y="696" on="0"/>
        <pt x="134" y="696" on="1"/>
      </contour>
      <contour>
        <pt x="459" y="633" on="1"/>
        <pt x="340" y="618" on="0"/>
        <pt x="215" y="373" on="1"/>
        <pt x="321" y="371" on="0"/>
        <pt x="378" y="371" on="0"/>
        <pt x="502" y="375" on="1"/>
        <pt x="489" y="547" on="0"/>
        <pt x="489" y="632" on="1"/>
      </contour>
      <contour>
        <pt x="410" y="750" on="0"/>
        <pt x="373" y="784" on="0"/>
        <pt x="373" y="839" on="0"/>
        <pt x="419" y="888" on="0"/>
        <pt x="474" y="888" on="0"/>
        <pt x="511" y="854" on="0"/>
        <pt x="511" y="799" on="0"/>
        <pt x="465" y="750" on="0"/>
      </contour>
      <contour>
        <pt x="427" y="853" on="0"/>
        <pt x="407" y="833" on="0"/>
        <pt x="407" y="804" on="0"/>
        <pt x="427" y="784" on="0"/>
        <pt x="456" y="784" on="0"/>
        <pt x="476" y="804" on="0"/>
        <pt x="476" y="833" on="0"/>
        <pt x="456" y="853" on="0"/>
      </contour>
    </TTGlyph>
    <TTGlyph name="Atilde" xMin="-221" yMin="-290" xMax="629" yMax="879">
      <contour>
        <pt x="352" y="690" on="1"/>
        <pt x="589" y="696" on="1"/>
        <pt x="607" y="696" on="0"/>
        <pt x="629" y="674" on="0"/>
        <pt x="629" y="639" on="0"/>
        <pt x="606" y="620" on="0"/>
        <pt x="588" y="620" on="1"/>
        <pt x="564" y="620" on="1"/>
        <pt x="564" y="460" on="0"/>
        <pt x="590" y="202" on="0"/>
        <pt x="616" y="62" on="0"/>
        <pt x="616" y="25" on="0"/>
        <pt x="593" y="-6" on="0"/>
        <pt x="555" y="-6" on="0"/>
        <pt x="527" y="22" on="0"/>
        <pt x="525" y="48" on="1"/>
        <pt x="507" y="300" on="1"/>
        <pt x="339" y="305" on="1"/>
        <pt x="311" y="305" on="0"/>
        <pt x="179" y="301" on="1"/>
        <pt x="159" y="259" on="0"/>
        <pt x="126" y="186" on="1"/>
        <pt x="29" y="-30" on="0"/>
        <pt x="-66" y="-174" on="1"/>
        <pt x="-143" y="-290" on="0"/>
        <pt x="-182" y="-290" on="1"/>
        <pt x="-199" y="-290" on="0"/>
        <pt x="-221" y="-267" on="0"/>
        <pt x="-221" y="-227" on="0"/>
        <pt x="-178" y="-173" on="0"/>
        <pt x="-113" y="-110" on="0"/>
        <pt x="-8" y="36" on="0"/>
        <pt x="40" y="131" on="1"/>
        <pt x="48" y="146" on="0"/>
        <pt x="121" y="300" on="1"/>
        <pt x="116" y="300" on="1"/>
        <pt x="100" y="300" on="0"/>
        <pt x="77" y="319" on="0"/>
        <pt x="77" y="353" on="0"/>
        <pt x="101" y="375" on="0"/>
        <pt x="140" y="375" on="0"/>
        <pt x="158" y="374" on="1"/>
        <pt x="250" y="562" on="0"/>
        <pt x="326" y="634" on="1"/>
        <pt x="147" y="620" on="0"/>
        <pt x="119" y="620" on="0"/>
        <pt x="94" y="640" on="0"/>
        <pt x="94" y="673" on="0"/>
        <pt x="119" y="696" on="0"/>
        <pt x="134" y="696" on="1"/>
      </contour>
      <contour>
        <pt x="459" y="633" on="1"/>
        <pt x="340" y="618" on="0"/>
        <pt x="215" y="373" on="1"/>
        <pt x="321" y="371" on="0"/>
        <pt x="378" y="371" on="0"/>
        <pt x="502" y="375" on="1"/>
        <pt x="489" y="547" on="0"/>
        <pt x="489" y="632" on="1"/>
      </contour>
      <contour>
        <pt x="569" y="863" on="1"/>
        <pt x="569" y="831" on="0"/>
        <pt x="503" y="750" on="0"/>
        <pt x="465" y="750" on="1"/>
        <pt x="440" y="750" on="0"/>
        <pt x="376" y="795" on="0"/>
        <pt x="335" y="795" on="0"/>
        <pt x="311" y="781" on="0"/>
        <pt x="308" y="772" on="1"/>
        <pt x="300" y="750" on="0"/>
        <pt x="291" y="750" on="1"/>
        <pt x="274" y="750" on="0"/>
        <pt x="274" y="793" on="0"/>
        <pt x="323" y="844" on="0"/>
        <pt x="398" y="844" on="0"/>
        <pt x="478" y="813" on="0"/>
        <pt x="513" y="813" on="0"/>
        <pt x="535" y="846" on="0"/>
        <pt x="547" y="879" on="0"/>
        <pt x="554" y="879" on="1"/>
        <pt x="569" y="879" on="0"/>
      </contour>
    </TTGlyph>
    <TTGlyph name="B" xMin="-7" yMin="-6" xMax="567" yMax="696">
      <contour>
        <pt x="-7" y="488" on="1"/>
        <pt x="-7" y="556" on="0"/>
        <pt x="165" y="696" on="0"/>
        <pt x="272" y="696" on="1"/>
        <pt x="351" y="696" on="0"/>
        <pt x="451" y="605" on="0"/>
        <pt x="451" y="487" on="0"/>
        <pt x="397" y="440" on="1"/>
        <pt x="480" y="417" on="0"/>
        <pt x="567" y="299" on="0"/>
        <pt x="567" y="230" on="1"/>
        <pt x="567" y="137" on="0"/>
        <pt x="421" y="-6" on="0"/>
        <pt x="307" y="-6" on="1"/>
        <pt x="101" y="-6" on="1"/>
        <pt x="85" y="-6" on="0"/>
        <pt x="60" y="15" on="0"/>
        <pt x="60" y="49" on="0"/>
        <pt x="85" y="70" on="0"/>
        <pt x="101" y="70" on="1"/>
        <pt x="120" y="70" on="1"/>
        <pt x="120" y="81" on="0"/>
        <pt x="129" y="249" on="0"/>
        <pt x="129" y="412" on="0"/>
        <pt x="125" y="520" on="0"/>
        <pt x="120" y="587" on="0"/>
        <pt x="120" y="598" on="1"/>
        <pt x="66" y="552" on="0"/>
        <pt x="66" y="488" on="1"/>
        <pt x="66" y="471" on="0"/>
        <pt x="46" y="450" on="0"/>
        <pt x="29" y="450" on="1"/>
        <pt x="-7" y="450" on="0"/>
      </contour>
      <contour>
        <pt x="216" y="66" on="1"/>
        <pt x="282" y="59" on="0"/>
        <pt x="391" y="59" on="0"/>
        <pt x="480" y="140" on="0"/>
        <pt x="480" y="293" on="0"/>
        <pt x="386" y="377" on="0"/>
        <pt x="251" y="377" on="0"/>
        <pt x="207" y="350" on="1"/>
        <pt x="207" y="289" on="0"/>
        <pt x="215" y="104" on="0"/>
      </contour>
      <contour>
        <pt x="211" y="628" on="1"/>
        <pt x="216" y="616" on="0"/>
        <pt x="216" y="599" on="0"/>
        <pt x="208" y="475" on="0"/>
        <pt x="207" y="396" on="1"/>
        <pt x="265" y="447" on="0"/>
        <pt x="350" y="447" on="1"/>
        <pt x="380" y="472" on="0"/>
        <pt x="380" y="571" on="0"/>
        <pt x="303" y="629" on="0"/>
        <pt x="233" y="629" on="1"/>
        <pt x="229" y="629" on="0"/>
        <pt x="214" y="628" on="0"/>
      </contour>
    </TTGlyph>
    <TTGlyph name="C" xMin="25" yMin="-6" xMax="616" yMax="696">
      <contour>
        <pt x="487" y="438" on="1"/>
        <pt x="529" y="429" on="1"/>
        <pt x="561" y="429" on="0"/>
        <pt x="561" y="522" on="0"/>
        <pt x="442" y="628" on="0"/>
        <pt x="351" y="628" on="1"/>
        <pt x="237" y="628" on="0"/>
        <pt x="107" y="485" on="0"/>
        <pt x="107" y="240" on="0"/>
        <pt x="251" y="62" on="0"/>
        <pt x="475" y="62" on="0"/>
        <pt x="563" y="168" on="1"/>
        <pt x="582" y="192" on="0"/>
        <pt x="602" y="192" on="0"/>
        <pt x="613" y="179" on="0"/>
        <pt x="613" y="153" on="0"/>
        <pt x="572" y="96" on="0"/>
        <pt x="503" y="37" on="0"/>
        <pt x="392" y="-6" on="0"/>
        <pt x="332" y="-6" on="1"/>
        <pt x="200" y="-6" on="0"/>
        <pt x="25" y="182" on="0"/>
        <pt x="25" y="479" on="0"/>
        <pt x="226" y="696" on="0"/>
        <pt x="376" y="696" on="1"/>
        <pt x="481" y="696" on="0"/>
        <pt x="616" y="587" on="0"/>
        <pt x="616" y="504" on="1"/>
        <pt x="616" y="438" on="0"/>
        <pt x="535" y="351" on="0"/>
        <pt x="490" y="351" on="1"/>
        <pt x="466" y="351" on="0"/>
        <pt x="443" y="377" on="0"/>
        <pt x="443" y="411" on="0"/>
        <pt x="470" y="438" on="0"/>
      </contour>
    </TTGlyph>
    <TTGlyph name="Ccedilla" xMin="25" yMin="-290" xMax="616" yMax="696">
      <contour>
        <pt x="352" y="-130" on="1"/>
        <pt x="300" y="-137" on="1"/>
        <pt x="291" y="-137" on="0"/>
        <pt x="279" y="-125" on="0"/>
        <pt x="279" y="-100" on="0"/>
        <pt x="336" y="-55" on="0"/>
        <pt x="336" y="-7" on="0"/>
        <pt x="306" y="-5" on="1"/>
        <pt x="184" y="5" on="0"/>
        <pt x="25" y="189" on="0"/>
        <pt x="25" y="479" on="0"/>
        <pt x="226" y="696" on="0"/>
        <pt x="376" y="696" on="1"/>
        <pt x="481" y="696" on="0"/>
        <pt x="616" y="587" on="0"/>
        <pt x="616" y="504" on="1"/>
        <pt x="616" y="438" on="0"/>
        <pt x="535" y="351" on="0"/>
        <pt x="490" y="351" on="1"/>
        <pt x="466" y="351" on="0"/>
        <pt x="443" y="377" on="0"/>
        <pt x="443" y="411" on="0"/>
        <pt x="470" y="438" on="0"/>
        <pt x="487" y="438" on="1"/>
        <pt x="529" y="429" on="1"/>
        <pt x="561" y="429" on="0"/>
        <pt x="561" y="522" on="0"/>
        <pt x="442" y="628" on="0"/>
        <pt x="351" y="628" on="1"/>
        <pt x="237" y="628" on="0"/>
        <pt x="107" y="485" on="0"/>
        <pt x="107" y="240" on="0"/>
        <pt x="251" y="62" on="0"/>
        <pt x="475" y="62" on="0"/>
        <pt x="563" y="168" on="1"/>
        <pt x="582" y="192" on="0"/>
        <pt x="602" y="192" on="0"/>
        <pt x="613" y="179" on="0"/>
        <pt x="613" y="170" on="1"/>
        <pt x="613" y="130" on="0"/>
        <pt x="462" y="3" on="0"/>
        <pt x="357" y="-5" on="1"/>
        <pt x="365" y="-17" on="0"/>
        <pt x="365" y="-56" on="0"/>
        <pt x="352" y="-66" on="1"/>
        <pt x="389" y="-66" on="0"/>
        <pt x="436" y="-109" on="0"/>
        <pt x="436" y="-146" on="1"/>
        <pt x="436" y="-206" on="0"/>
        <pt x="352" y="-290" on="0"/>
        <pt x="316" y="-290" on="1"/>
        <pt x="298" y="-290" on="0"/>
        <pt x="273" y="-266" on="0"/>
        <pt x="273" y="-228" on="0"/>
        <pt x="301" y="-198" on="0"/>
        <pt x="327" y="-198" on="0"/>
        <pt x="347" y="-212" on="0"/>
        <pt x="369" y="-212" on="0"/>
        <pt x="391" y="-185" on="0"/>
        <pt x="391" y="-152" on="0"/>
        <pt x="370" y="-130" on="0"/>
      </contour>
    </TTGlyph>
    <TTGlyph name="D" xMin="60" yMin="-6" xMax="666" yMax="696">
      <contour>
        <pt x="204" y="690" on="1"/>
        <pt x="360" y="696" on="1"/>
        <pt x="434" y="696" on="0"/>
        <pt x="508" y="660" on="1"/>
        <pt x="552" y="639" on="0"/>
        <pt x="620" y="577" on="0"/>
        <pt x="666" y="470" on="0"/>
        <pt x="666" y="316" on="0"/>
        <pt x="600" y="159" on="0"/>
        <pt x="494" y="55" on="0"/>
        <pt x="363" y="-6" on="0"/>
        <pt x="297" y="-6" on="1"/>
        <pt x="203" y="-6" on="0"/>
        <pt x="63" y="104" on="0"/>
        <pt x="63" y="196" on="1"/>
        <pt x="63" y="322" on="0"/>
        <pt x="209" y="392" on="1"/>
        <pt x="209" y="492" on="0"/>
        <pt x="200" y="598" on="0"/>
        <pt x="200" y="616" on="0"/>
        <pt x="203" y="625" on="1"/>
        <pt x="103" y="620" on="0"/>
        <pt x="85" y="620" on="0"/>
        <pt x="60" y="641" on="0"/>
        <pt x="60" y="675" on="0"/>
        <pt x="85" y="696" on="0"/>
        <pt x="101" y="696" on="1"/>
      </contour>
      <contour>
        <pt x="287" y="352" on="1"/>
        <pt x="296" y="205" on="1"/>
        <pt x="296" y="186" on="0"/>
        <pt x="269" y="156" on="0"/>
        <pt x="227" y="156" on="0"/>
        <pt x="200" y="186" on="0"/>
        <pt x="200" y="217" on="0"/>
        <pt x="207" y="306" on="0"/>
        <pt x="208" y="348" on="1"/>
        <pt x="177" y="333" on="0"/>
        <pt x="137" y="262" on="0"/>
        <pt x="137" y="216" on="1"/>
        <pt x="137" y="150" on="0"/>
        <pt x="234" y="65" on="0"/>
        <pt x="322" y="65" on="1"/>
        <pt x="437" y="65" on="0"/>
        <pt x="593" y="238" on="0"/>
        <pt x="593" y="486" on="0"/>
        <pt x="439" y="627" on="0"/>
        <pt x="297" y="627" on="1"/>
        <pt x="292" y="627" on="1"/>
        <pt x="296" y="613" on="0"/>
        <pt x="296" y="604" on="0"/>
        <pt x="287" y="490" on="0"/>
        <pt x="287" y="413" on="1"/>
        <pt x="358" y="413" on="0"/>
        <pt x="437" y="335" on="0"/>
        <pt x="437" y="285" on="1"/>
        <pt x="437" y="264" on="0"/>
        <pt x="412" y="234" on="0"/>
        <pt x="370" y="234" on="0"/>
        <pt x="343" y="264" on="0"/>
        <pt x="343" y="283" on="1"/>
        <pt x="343" y="334" on="0"/>
      </contour>
    </TTGlyph>
    <TTGlyph name="E" xMin="60" yMin="-6" xMax="559" yMax="696">
      <contour>
        <pt x="101" y="696" on="1"/>
        <pt x="303" y="690" on="1"/>
        <pt x="505" y="696" on="1"/>
        <pt x="521" y="696" on="0"/>
        <pt x="546" y="675" on="0"/>
        <pt x="546" y="639" on="0"/>
        <pt x="521" y="618" on="0"/>
        <pt x="505" y="618" on="1"/>
        <pt x="303" y="624" on="1"/>
        <pt x="277" y="624" on="0"/>
        <pt x="219" y="622" on="1"/>
        <pt x="219" y="610" on="0"/>
        <pt x="217" y="579" on="1"/>
        <pt x="211" y="486" on="0"/>
        <pt x="211" y="405" on="1"/>
        <pt x="231" y="403" on="0"/>
        <pt x="279" y="401" on="1"/>
        <pt x="306" y="458" on="0"/>
        <pt x="412" y="529" on="0"/>
        <pt x="459" y="529" on="1"/>
        <pt x="519" y="529" on="0"/>
        <pt x="519" y="480" on="1"/>
        <pt x="519" y="464" on="0"/>
        <pt x="496" y="441" on="0"/>
        <pt x="471" y="441" on="0"/>
        <pt x="434" y="465" on="0"/>
        <pt x="380" y="465" on="0"/>
        <pt x="326" y="429" on="0"/>
        <pt x="313" y="401" on="1"/>
        <pt x="353" y="401" on="0"/>
        <pt x="449" y="407" on="0"/>
        <pt x="470" y="407" on="0"/>
        <pt x="490" y="387" on="0"/>
        <pt x="490" y="355" on="0"/>
        <pt x="470" y="334" on="0"/>
        <pt x="454" y="334" on="1"/>
        <pt x="315" y="339" on="1"/>
        <pt x="305" y="339" on="1"/>
        <pt x="312" y="300" on="0"/>
        <pt x="372" y="249" on="0"/>
        <pt x="442" y="249" on="0"/>
        <pt x="502" y="292" on="0"/>
        <pt x="505" y="292" on="1"/>
        <pt x="519" y="292" on="0"/>
        <pt x="519" y="278" on="1"/>
        <pt x="519" y="268" on="0"/>
        <pt x="486" y="231" on="0"/>
        <pt x="413" y="195" on="0"/>
        <pt x="321" y="195" on="0"/>
        <pt x="258" y="266" on="0"/>
        <pt x="258" y="310" on="1"/>
        <pt x="258" y="320" on="0"/>
        <pt x="260" y="338" on="1"/>
        <pt x="211" y="335" on="1"/>
        <pt x="211" y="213" on="0"/>
        <pt x="220" y="75" on="0"/>
        <pt x="220" y="66" on="1"/>
        <pt x="518" y="72" on="1"/>
        <pt x="534" y="72" on="0"/>
        <pt x="559" y="51" on="0"/>
        <pt x="559" y="15" on="0"/>
        <pt x="534" y="-6" on="0"/>
        <pt x="518" y="-6" on="1"/>
        <pt x="326" y="0" on="1"/>
        <pt x="286" y="0" on="0"/>
        <pt x="176" y="-6" on="0"/>
        <pt x="172" y="-6" on="1"/>
        <pt x="151" y="-6" on="0"/>
        <pt x="124" y="26" on="0"/>
        <pt x="124" y="58" on="0"/>
        <pt x="133" y="248" on="0"/>
        <pt x="133" y="425" on="0"/>
        <pt x="124" y="618" on="1"/>
        <pt x="101" y="618" on="1"/>
        <pt x="85" y="618" on="0"/>
        <pt x="60" y="639" on="0"/>
        <pt x="60" y="675" on="0"/>
        <pt x="85" y="696" on="0"/>
      </contour>
    </TTGlyph>
    <TTGlyph name="Eacute" xMin="60" yMin="-6" xMax="559" yMax="879">
      <contour>
        <pt x="101" y="696" on="1"/>
        <pt x="303" y="690" on="1"/>
        <pt x="505" y="696" on="1"/>
        <pt x="521" y="696" on="0"/>
        <pt x="546" y="675" on="0"/>
        <pt x="546" y="639" on="0"/>
        <pt x="521" y="618" on="0"/>
        <pt x="505" y="618" on="1"/>
        <pt x="303" y="624" on="1"/>
        <pt x="277" y="624" on="0"/>
        <pt x="219" y="622" on="1"/>
        <pt x="219" y="610" on="0"/>
        <pt x="217" y="579" on="1"/>
        <pt x="211" y="486" on="0"/>
        <pt x="211" y="405" on="1"/>
        <pt x="231" y="403" on="0"/>
        <pt x="279" y="401" on="1"/>
        <pt x="306" y="458" on="0"/>
        <pt x="412" y="529" on="0"/>
        <pt x="459" y="529" on="1"/>
        <pt x="519" y="529" on="0"/>
        <pt x="519" y="480" on="1"/>
        <pt x="519" y="464" on="0"/>
        <pt x="496" y="441" on="0"/>
        <pt x="471" y="441" on="0"/>
        <pt x="434" y="465" on="0"/>
        <pt x="380" y="465" on="0"/>
        <pt x="326" y="429" on="0"/>
        <pt x="313" y="401" on="1"/>
        <pt x="353" y="401" on="0"/>
        <pt x="449" y="407" on="0"/>
        <pt x="470" y="407" on="0"/>
        <pt x="490" y="387" on="0"/>
        <pt x="490" y="355" on="0"/>
        <pt x="470" y="334" on="0"/>
        <pt x="454" y="334" on="1"/>
        <pt x="315" y="339" on="1"/>
        <pt x="305" y="339" on="1"/>
        <pt x="312" y="300" on="0"/>
        <pt x="372" y="249" on="0"/>
        <pt x="442" y="249" on="0"/>
        <pt x="502" y="292" on="0"/>
        <pt x="505" y="292" on="1"/>
        <pt x="519" y="292" on="0"/>
        <pt x="519" y="278" on="1"/>
        <pt x="519" y="268" on="0"/>
        <pt x="486" y="231" on="0"/>
        <pt x="413" y="195" on="0"/>
        <pt x="321" y="195" on="0"/>
        <pt x="258" y="266" on="0"/>
        <pt x="258" y="310" on="1"/>
        <pt x="258" y="320" on="0"/>
        <pt x="260" y="338" on="1"/>
        <pt x="211" y="335" on="1"/>
        <pt x="211" y="213" on="0"/>
        <pt x="220" y="75" on="0"/>
        <pt x="220" y="66" on="1"/>
        <pt x="518" y="72" on="1"/>
        <pt x="534" y="72" on="0"/>
        <pt x="559" y="51" on="0"/>
        <pt x="559" y="15" on="0"/>
        <pt x="534" y="-6" on="0"/>
        <pt x="518" y="-6" on="1"/>
        <pt x="326" y="0" on="1"/>
        <pt x="286" y="0" on="0"/>
        <pt x="176" y="-6" on="0"/>
        <pt x="172" y="-6" on="1"/>
        <pt x="151" y="-6" on="0"/>
        <pt x="124" y="26" on="0"/>
        <pt x="124" y="58" on="0"/>
        <pt x="133" y="248" on="0"/>
        <pt x="133" y="425" on="0"/>
        <pt x="124" y="618" on="1"/>
        <pt x="101" y="618" on="1"/>
        <pt x="85" y="618" on="0"/>
        <pt x="60" y="639" on="0"/>
        <pt x="60" y="675" on="0"/>
        <pt x="85" y="696" on="0"/>
      </contour>
      <contour>
        <pt x="254" y="762" on="1"/>
        <pt x="254" y="768" on="0"/>
        <pt x="262" y="776" on="1"/>
        <pt x="365" y="879" on="0"/>
        <pt x="412" y="879" on="1"/>
        <pt x="427" y="879" on="0"/>
        <pt x="450" y="858" on="0"/>
        <pt x="450" y="843" on="1"/>
        <pt x="450" y="810" on="0"/>
        <pt x="413" y="803" on="1"/>
        <pt x="335" y="789" on="0"/>
        <pt x="278" y="755" on="1"/>
        <pt x="270" y="750" on="0"/>
        <pt x="266" y="750" on="1"/>
        <pt x="254" y="750" on="0"/>
      </contour>
    </TTGlyph>
    <TTGlyph name="Ecircumflex" xMin="60" yMin="-6" xMax="559" yMax="879">
      <component glyphName="E" x="0" y="0" flags="0x1004"/>
      <component glyphName="circumflex" x="158" y="237" flags="0x1004"/>
    </TTGlyph>
    <TTGlyph name="Edieresis" xMin="60" yMin="-6" xMax="559" yMax="881">
      <contour>
        <pt x="101" y="696" on="1"/>
        <pt x="303" y="690" on="1"/>
        <pt x="505" y="696" on="1"/>
        <pt x="521" y="696" on="0"/>
        <pt x="546" y="675" on="0"/>
        <pt x="546" y="639" on="0"/>
        <pt x="521" y="618" on="0"/>
        <pt x="505" y="618" on="1"/>
        <pt x="303" y="624" on="1"/>
        <pt x="277" y="624" on="0"/>
        <pt x="219" y="622" on="1"/>
        <pt x="219" y="610" on="0"/>
        <pt x="217" y="579" on="1"/>
        <pt x="211" y="486" on="0"/>
        <pt x="211" y="405" on="1"/>
        <pt x="231" y="403" on="0"/>
        <pt x="279" y="401" on="1"/>
        <pt x="306" y="458" on="0"/>
        <pt x="412" y="529" on="0"/>
        <pt x="459" y="529" on="1"/>
        <pt x="519" y="529" on="0"/>
        <pt x="519" y="480" on="1"/>
        <pt x="519" y="464" on="0"/>
        <pt x="496" y="441" on="0"/>
        <pt x="471" y="441" on="0"/>
        <pt x="434" y="465" on="0"/>
        <pt x="380" y="465" on="0"/>
        <pt x="326" y="429" on="0"/>
        <pt x="313" y="401" on="1"/>
        <pt x="353" y="401" on="0"/>
        <pt x="449" y="407" on="0"/>
        <pt x="470" y="407" on="0"/>
        <pt x="490" y="387" on="0"/>
        <pt x="490" y="355" on="0"/>
        <pt x="470" y="334" on="0"/>
        <pt x="454" y="334" on="1"/>
        <pt x="315" y="339" on="1"/>
        <pt x="305" y="339" on="1"/>
        <pt x="312" y="300" on="0"/>
        <pt x="372" y="249" on="0"/>
        <pt x="442" y="249" on="0"/>
        <pt x="502" y="292" on="0"/>
        <pt x="505" y="292" on="1"/>
        <pt x="519" y="292" on="0"/>
        <pt x="519" y="278" on="1"/>
        <pt x="519" y="268" on="0"/>
        <pt x="486" y="231" on="0"/>
        <pt x="413" y="195" on="0"/>
        <pt x="321" y="195" on="0"/>
        <pt x="258" y="266" on="0"/>
        <pt x="258" y="310" on="1"/>
        <pt x="258" y="320" on="0"/>
        <pt x="260" y="338" on="1"/>
        <pt x="211" y="335" on="1"/>
        <pt x="211" y="213" on="0"/>
        <pt x="220" y="75" on="0"/>
        <pt x="220" y="66" on="1"/>
        <pt x="518" y="72" on="1"/>
        <pt x="534" y="72" on="0"/>
        <pt x="559" y="51" on="0"/>
        <pt x="559" y="15" on="0"/>
        <pt x="534" y="-6" on="0"/>
        <pt x="518" y="-6" on="1"/>
        <pt x="326" y="0" on="1"/>
        <pt x="286" y="0" on="0"/>
        <pt x="176" y="-6" on="0"/>
        <pt x="172" y="-6" on="1"/>
        <pt x="151" y="-6" on="0"/>
        <pt x="124" y="26" on="0"/>
        <pt x="124" y="58" on="0"/>
        <pt x="133" y="248" on="0"/>
        <pt x="133" y="425" on="0"/>
        <pt x="124" y="618" on="1"/>
        <pt x="101" y="618" on="1"/>
        <pt x="85" y="618" on="0"/>
        <pt x="60" y="639" on="0"/>
        <pt x="60" y="675" on="0"/>
        <pt x="85" y="696" on="0"/>
      </contour>
      <contour>
        <pt x="403" y="788" on="0"/>
        <pt x="380" y="809" on="0"/>
        <pt x="380" y="851" on="0"/>
        <pt x="409" y="881" on="0"/>
        <pt x="449" y="881" on="0"/>
        <pt x="473" y="859" on="0"/>
        <pt x="473" y="817" on="0"/>
        <pt x="443" y="788" on="0"/>
      </contour>
      <contour>
        <pt x="213" y="788" on="0"/>
        <pt x="190" y="809" on="0"/>
        <pt x="190" y="851" on="0"/>
        <pt x="219" y="881" on="0"/>
        <pt x="259" y="881" on="0"/>
        <pt x="283" y="859" on="0"/>
        <pt x="283" y="817" on="0"/>
        <pt x="253" y="788" on="0"/>
      </contour>
    </TTGlyph>
    <TTGlyph name="Egrave" xMin="60" yMin="-6" xMax="559" yMax="879">
      <component glyphName="E" x="0" y="0" flags="0x1004"/>
      <component glyphName="grave" x="154" y="237" flags="0x1004"/>
    </TTGlyph>
    <TTGlyph name="Eth" xMin="60" yMin="-6" xMax="666" yMax="696">
      <contour>
        <pt x="206" y="307" on="1"/>
        <pt x="206" y="307" on="0"/>
        <pt x="108" y="302" on="1"/>
        <pt x="92" y="302" on="0"/>
        <pt x="72" y="323" on="0"/>
        <pt x="72" y="355" on="0"/>
        <pt x="92" y="375" on="0"/>
        <pt x="108" y="375" on="1"/>
        <pt x="208" y="369" on="1"/>
        <pt x="207" y="450" on="0"/>
        <pt x="200" y="603" on="0"/>
        <pt x="200" y="616" on="0"/>
        <pt x="203" y="625" on="1"/>
        <pt x="103" y="620" on="0"/>
        <pt x="85" y="620" on="0"/>
        <pt x="60" y="641" on="0"/>
        <pt x="60" y="675" on="0"/>
        <pt x="85" y="696" on="0"/>
        <pt x="101" y="696" on="1"/>
        <pt x="204" y="690" on="1"/>
        <pt x="360" y="696" on="1"/>
        <pt x="434" y="696" on="0"/>
        <pt x="508" y="660" on="1"/>
        <pt x="552" y="639" on="0"/>
        <pt x="620" y="577" on="0"/>
        <pt x="666" y="470" on="0"/>
        <pt x="666" y="316" on="0"/>
        <pt x="600" y="159" on="0"/>
        <pt x="494" y="55" on="0"/>
        <pt x="363" y="-6" on="0"/>
        <pt x="297" y="-6" on="1"/>
        <pt x="203" y="-6" on="0"/>
        <pt x="63" y="104" on="0"/>
        <pt x="63" y="196" on="1"/>
        <pt x="63" y="211" on="0"/>
        <pt x="84" y="235" on="0"/>
        <pt x="101" y="235" on="1"/>
        <pt x="136" y="235" on="0"/>
        <pt x="138" y="197" on="1"/>
        <pt x="142" y="138" on="0"/>
        <pt x="239" y="65" on="0"/>
        <pt x="322" y="65" on="1"/>
        <pt x="437" y="65" on="0"/>
        <pt x="593" y="238" on="0"/>
        <pt x="593" y="486" on="0"/>
        <pt x="439" y="627" on="0"/>
        <pt x="297" y="627" on="1"/>
        <pt x="292" y="627" on="1"/>
        <pt x="296" y="613" on="0"/>
        <pt x="296" y="601" on="0"/>
        <pt x="288" y="440" on="0"/>
        <pt x="287" y="369" on="1"/>
        <pt x="386" y="375" on="1"/>
        <pt x="402" y="375" on="0"/>
        <pt x="422" y="355" on="0"/>
        <pt x="422" y="323" on="0"/>
        <pt x="402" y="302" on="0"/>
        <pt x="386" y="302" on="1"/>
        <pt x="288" y="306" on="1"/>
        <pt x="296" y="205" on="1"/>
        <pt x="296" y="186" on="0"/>
        <pt x="269" y="156" on="0"/>
        <pt x="227" y="156" on="0"/>
        <pt x="200" y="186" on="0"/>
        <pt x="200" y="205" on="1"/>
      </contour>
    </TTGlyph>
    <TTGlyph name="Euro" xMin="24" yMin="-6" xMax="551" yMax="642">
      <contour>
        <pt x="394" y="221" on="1"/>
        <pt x="236" y="229" on="1"/>
        <pt x="232" y="229" on="0"/>
        <pt x="148" y="226" on="1"/>
        <pt x="168" y="152" on="0"/>
        <pt x="264" y="62" on="0"/>
        <pt x="328" y="62" on="1"/>
        <pt x="426" y="62" on="0"/>
        <pt x="500" y="168" on="1"/>
        <pt x="518" y="192" on="0"/>
        <pt x="530" y="192" on="1"/>
        <pt x="550" y="192" on="0"/>
        <pt x="550" y="152" on="0"/>
        <pt x="509" y="96" on="0"/>
        <pt x="441" y="37" on="0"/>
        <pt x="330" y="-6" on="0"/>
        <pt x="270" y="-6" on="1"/>
        <pt x="184" y="-6" on="0"/>
        <pt x="75" y="127" on="0"/>
        <pt x="66" y="224" on="1"/>
        <pt x="24" y="224" on="0"/>
        <pt x="24" y="292" on="0"/>
        <pt x="63" y="292" on="1"/>
        <pt x="67" y="292" on="1"/>
        <pt x="70" y="321" on="0"/>
        <pt x="76" y="347" on="1"/>
        <pt x="63" y="347" on="1"/>
        <pt x="24" y="347" on="0"/>
        <pt x="24" y="415" on="0"/>
        <pt x="63" y="415" on="1"/>
        <pt x="84" y="415" on="0"/>
        <pt x="95" y="414" on="1"/>
        <pt x="133" y="517" on="0"/>
        <pt x="288" y="642" on="0"/>
        <pt x="387" y="642" on="1"/>
        <pt x="450" y="642" on="0"/>
        <pt x="551" y="557" on="0"/>
        <pt x="551" y="481" on="0"/>
        <pt x="516" y="481" on="1"/>
        <pt x="484" y="481" on="0"/>
        <pt x="385" y="576" on="0"/>
        <pt x="266" y="576" on="0"/>
        <pt x="170" y="485" on="0"/>
        <pt x="149" y="412" on="1"/>
        <pt x="203" y="410" on="0"/>
        <pt x="236" y="410" on="1"/>
        <pt x="394" y="418" on="1"/>
        <pt x="433" y="418" on="0"/>
        <pt x="433" y="344" on="0"/>
        <pt x="394" y="344" on="1"/>
        <pt x="236" y="352" on="1"/>
        <pt x="231" y="352" on="0"/>
        <pt x="138" y="349" on="1"/>
        <pt x="137" y="338" on="0"/>
        <pt x="137" y="299" on="0"/>
        <pt x="138" y="290" on="1"/>
        <pt x="183" y="287" on="0"/>
        <pt x="236" y="287" on="1"/>
        <pt x="394" y="295" on="1"/>
        <pt x="433" y="295" on="0"/>
        <pt x="433" y="221" on="0"/>
      </contour>
    </TTGlyph>
    <TTGlyph name="F" xMin="60" yMin="-6" xMax="546" yMax="696">
      <contour>
        <pt x="101" y="696" on="1"/>
        <pt x="303" y="690" on="1"/>
        <pt x="505" y="696" on="1"/>
        <pt x="521" y="696" on="0"/>
        <pt x="546" y="675" on="0"/>
        <pt x="546" y="639" on="0"/>
        <pt x="521" y="618" on="0"/>
        <pt x="505" y="618" on="1"/>
        <pt x="303" y="624" on="1"/>
        <pt x="277" y="624" on="0"/>
        <pt x="219" y="622" on="1"/>
        <pt x="219" y="620" on="0"/>
        <pt x="212" y="490" on="0"/>
        <pt x="211" y="425" on="1"/>
        <pt x="249" y="421" on="0"/>
        <pt x="347" y="372" on="0"/>
        <pt x="392" y="372" on="0"/>
        <pt x="428" y="389" on="0"/>
        <pt x="434" y="400" on="1"/>
        <pt x="448" y="427" on="0"/>
        <pt x="468" y="427" on="1"/>
        <pt x="492" y="427" on="0"/>
        <pt x="492" y="368" on="0"/>
        <pt x="418" y="291" on="0"/>
        <pt x="319" y="291" on="0"/>
        <pt x="228" y="353" on="0"/>
        <pt x="211" y="356" on="1"/>
        <pt x="211" y="251" on="0"/>
        <pt x="220" y="57" on="0"/>
        <pt x="220" y="26" on="0"/>
        <pt x="193" y="-6" on="0"/>
        <pt x="151" y="-6" on="0"/>
        <pt x="124" y="26" on="0"/>
        <pt x="124" y="61" on="0"/>
        <pt x="132" y="237" on="0"/>
        <pt x="133" y="327" on="1"/>
        <pt x="131" y="325" on="0"/>
        <pt x="123" y="316" on="0"/>
        <pt x="119" y="312" on="0"/>
        <pt x="111" y="306" on="0"/>
        <pt x="108" y="304" on="1"/>
        <pt x="103" y="301" on="0"/>
        <pt x="96" y="301" on="1"/>
        <pt x="74" y="301" on="0"/>
        <pt x="74" y="328" on="1"/>
        <pt x="74" y="344" on="0"/>
        <pt x="108" y="388" on="0"/>
        <pt x="133" y="404" on="1"/>
        <pt x="133" y="460" on="0"/>
        <pt x="124" y="618" on="1"/>
        <pt x="101" y="618" on="1"/>
        <pt x="85" y="618" on="0"/>
        <pt x="60" y="639" on="0"/>
        <pt x="60" y="675" on="0"/>
        <pt x="85" y="696" on="0"/>
      </contour>
    </TTGlyph>
    <TTGlyph name="G" xMin="40" yMin="-289" xMax="636" yMax="696">
      <contour>
        <pt x="548" y="136" on="1"/>
        <pt x="540" y="281" on="1"/>
        <pt x="540" y="301" on="0"/>
        <pt x="567" y="332" on="0"/>
        <pt x="609" y="332" on="0"/>
        <pt x="636" y="301" on="0"/>
        <pt x="636" y="281" on="1"/>
        <pt x="636" y="278" on="0"/>
        <pt x="627" y="130" on="0"/>
        <pt x="627" y="-63" on="0"/>
        <pt x="636" y="-229" on="0"/>
        <pt x="636" y="-259" on="0"/>
        <pt x="609" y="-289" on="0"/>
        <pt x="567" y="-289" on="0"/>
        <pt x="540" y="-259" on="0"/>
        <pt x="540" y="-227" on="0"/>
        <pt x="548" y="-62" on="0"/>
        <pt x="549" y="29" on="1"/>
        <pt x="549" y="71" on="1"/>
        <pt x="453" y="-6" on="0"/>
        <pt x="347" y="-6" on="1"/>
        <pt x="217" y="-6" on="0"/>
        <pt x="40" y="181" on="0"/>
        <pt x="40" y="314" on="1"/>
        <pt x="40" y="480" on="0"/>
        <pt x="239" y="696" on="0"/>
        <pt x="393" y="696" on="1"/>
        <pt x="482" y="696" on="0"/>
        <pt x="631" y="625" on="0"/>
        <pt x="631" y="579" on="1"/>
        <pt x="631" y="559" on="0"/>
        <pt x="604" y="531" on="0"/>
        <pt x="566" y="531" on="0"/>
        <pt x="528" y="561" on="0"/>
        <pt x="493" y="598" on="0"/>
        <pt x="418" y="628" on="0"/>
        <pt x="367" y="628" on="1"/>
        <pt x="252" y="628" on="0"/>
        <pt x="122" y="482" on="0"/>
        <pt x="122" y="242" on="0"/>
        <pt x="265" y="62" on="0"/>
        <pt x="380" y="62" on="1"/>
        <pt x="470" y="62" on="0"/>
      </contour>
    </TTGlyph>
    <TTGlyph name="H" xMin="59" yMin="-6" xMax="570" yMax="695">
      <contour>
        <pt x="191" y="256" on="0"/>
        <pt x="200" y="55" on="0"/>
        <pt x="200" y="26" on="0"/>
        <pt x="173" y="-6" on="0"/>
        <pt x="131" y="-6" on="0"/>
        <pt x="104" y="26" on="0"/>
        <pt x="104" y="60" on="0"/>
        <pt x="112" y="236" on="0"/>
        <pt x="113" y="326" on="1"/>
        <pt x="98" y="311" on="0"/>
        <pt x="86" y="311" on="1"/>
        <pt x="59" y="311" on="0"/>
        <pt x="59" y="338" on="1"/>
        <pt x="59" y="378" on="0"/>
        <pt x="112" y="413" on="1"/>
        <pt x="111" y="495" on="0"/>
        <pt x="104" y="633" on="0"/>
        <pt x="104" y="663" on="0"/>
        <pt x="131" y="695" on="0"/>
        <pt x="173" y="695" on="0"/>
        <pt x="200" y="663" on="0"/>
        <pt x="200" y="632" on="0"/>
        <pt x="192" y="509" on="0"/>
        <pt x="191" y="440" on="1"/>
        <pt x="196" y="441" on="0"/>
        <pt x="241" y="441" on="0"/>
        <pt x="311" y="410" on="0"/>
        <pt x="334" y="392" on="1"/>
        <pt x="394" y="342" on="0"/>
        <pt x="462" y="342" on="0"/>
        <pt x="483" y="361" on="1"/>
        <pt x="482" y="468" on="0"/>
        <pt x="474" y="636" on="0"/>
        <pt x="474" y="663" on="0"/>
        <pt x="501" y="695" on="0"/>
        <pt x="543" y="695" on="0"/>
        <pt x="570" y="663" on="0"/>
        <pt x="570" y="643" on="1"/>
        <pt x="570" y="640" on="0"/>
        <pt x="561" y="462" on="0"/>
        <pt x="561" y="248" on="0"/>
        <pt x="570" y="58" on="0"/>
        <pt x="570" y="26" on="0"/>
        <pt x="543" y="-6" on="0"/>
        <pt x="501" y="-6" on="0"/>
        <pt x="474" y="26" on="0"/>
        <pt x="474" y="64" on="0"/>
        <pt x="481" y="214" on="0"/>
        <pt x="482" y="285" on="1"/>
        <pt x="456" y="271" on="0"/>
        <pt x="384" y="271" on="0"/>
        <pt x="314" y="301" on="0"/>
        <pt x="294" y="318" on="1"/>
        <pt x="239" y="366" on="0"/>
        <pt x="191" y="368" on="1"/>
      </contour>
    </TTGlyph>
    <TTGlyph name="I" xMin="35" yMin="-6" xMax="449" yMax="696">
      <contour>
        <pt x="202" y="70" on="1"/>
        <pt x="258" y="65" on="1"/>
        <pt x="266" y="142" on="0"/>
        <pt x="266" y="551" on="0"/>
        <pt x="258" y="627" on="1"/>
        <pt x="236" y="630" on="0"/>
        <pt x="159" y="630" on="0"/>
        <pt x="90" y="593" on="0"/>
        <pt x="90" y="561" on="1"/>
        <pt x="90" y="509" on="0"/>
        <pt x="127" y="509" on="1"/>
        <pt x="142" y="509" on="0"/>
        <pt x="160" y="489" on="0"/>
        <pt x="160" y="459" on="0"/>
        <pt x="138" y="440" on="0"/>
        <pt x="119" y="440" on="1"/>
        <pt x="84" y="440" on="0"/>
        <pt x="35" y="499" on="0"/>
        <pt x="35" y="587" on="0"/>
        <pt x="88" y="654" on="0"/>
        <pt x="132" y="669" on="1"/>
        <pt x="213" y="696" on="0"/>
        <pt x="374" y="696" on="0"/>
        <pt x="449" y="676" on="0"/>
        <pt x="449" y="647" on="1"/>
        <pt x="449" y="630" on="0"/>
        <pt x="424" y="610" on="0"/>
        <pt x="408" y="610" on="1"/>
        <pt x="350" y="618" on="1"/>
        <pt x="344" y="551" on="0"/>
        <pt x="344" y="142" on="0"/>
        <pt x="352" y="65" on="1"/>
        <pt x="408" y="70" on="1"/>
        <pt x="424" y="70" on="0"/>
        <pt x="449" y="50" on="0"/>
        <pt x="449" y="14" on="0"/>
        <pt x="423" y="-6" on="0"/>
        <pt x="406" y="-6" on="1"/>
        <pt x="305" y="1" on="1"/>
        <pt x="204" y="-6" on="1"/>
        <pt x="187" y="-6" on="0"/>
        <pt x="161" y="14" on="0"/>
        <pt x="161" y="50" on="0"/>
        <pt x="186" y="70" on="0"/>
      </contour>
    </TTGlyph>
    <TTGlyph name="IJ" xMin="35" yMin="-290" xMax="694" yMax="696">
      <contour>
        <pt x="487" y="690" on="1"/>
        <pt x="647" y="696" on="1"/>
        <pt x="668" y="696" on="0"/>
        <pt x="694" y="663" on="0"/>
        <pt x="694" y="614" on="0"/>
        <pt x="684" y="375" on="0"/>
        <pt x="684" y="184" on="0"/>
        <pt x="665" y="32" on="0"/>
        <pt x="616" y="-118" on="0"/>
        <pt x="539" y="-224" on="0"/>
        <pt x="416" y="-290" on="0"/>
        <pt x="259" y="-290" on="0"/>
        <pt x="140" y="-219" on="0"/>
        <pt x="140" y="-173" on="1"/>
        <pt x="140" y="-152" on="0"/>
        <pt x="164" y="-125" on="0"/>
        <pt x="199" y="-125" on="0"/>
        <pt x="228" y="-145" on="0"/>
        <pt x="245" y="-162" on="1"/>
        <pt x="311" y="-230" on="0"/>
        <pt x="391" y="-230" on="1"/>
        <pt x="446" y="-230" on="0"/>
        <pt x="532" y="-146" on="0"/>
        <pt x="558" y="-74" on="1"/>
        <pt x="609" y="70" on="0"/>
        <pt x="609" y="268" on="1"/>
        <pt x="609" y="549" on="0"/>
        <pt x="601" y="625" on="1"/>
        <pt x="579" y="625" on="0"/>
        <pt x="494" y="613" on="0"/>
        <pt x="447" y="613" on="0"/>
        <pt x="418" y="614" on="1"/>
        <pt x="371" y="617" on="1"/>
        <pt x="352" y="618" on="0"/>
        <pt x="350" y="618" on="1"/>
        <pt x="344" y="551" on="0"/>
        <pt x="344" y="142" on="0"/>
        <pt x="352" y="65" on="1"/>
        <pt x="408" y="70" on="1"/>
        <pt x="424" y="70" on="0"/>
        <pt x="449" y="50" on="0"/>
        <pt x="449" y="14" on="0"/>
        <pt x="423" y="-6" on="0"/>
        <pt x="406" y="-6" on="1"/>
        <pt x="305" y="1" on="1"/>
        <pt x="204" y="-6" on="1"/>
        <pt x="187" y="-6" on="0"/>
        <pt x="161" y="14" on="0"/>
        <pt x="161" y="50" on="0"/>
        <pt x="186" y="70" on="0"/>
        <pt x="202" y="70" on="1"/>
        <pt x="258" y="65" on="1"/>
        <pt x="266" y="142" on="0"/>
        <pt x="266" y="551" on="0"/>
        <pt x="258" y="627" on="1"/>
        <pt x="236" y="630" on="0"/>
        <pt x="159" y="630" on="0"/>
        <pt x="90" y="593" on="0"/>
        <pt x="90" y="561" on="1"/>
        <pt x="90" y="509" on="0"/>
        <pt x="127" y="509" on="1"/>
        <pt x="142" y="509" on="0"/>
        <pt x="160" y="489" on="0"/>
        <pt x="160" y="459" on="0"/>
        <pt x="138" y="440" on="0"/>
        <pt x="119" y="440" on="1"/>
        <pt x="84" y="440" on="0"/>
        <pt x="35" y="499" on="0"/>
        <pt x="35" y="577" on="0"/>
        <pt x="73" y="637" on="0"/>
        <pt x="128" y="670" on="0"/>
        <pt x="166" y="680" on="1"/>
        <pt x="227" y="696" on="0"/>
        <pt x="301" y="696" on="1"/>
      </contour>
    </TTGlyph>
    <TTGlyph name="Iacute" xMin="35" yMin="-6" xMax="449" yMax="879">
      <contour>
        <pt x="202" y="70" on="1"/>
        <pt x="258" y="65" on="1"/>
        <pt x="266" y="142" on="0"/>
        <pt x="266" y="551" on="0"/>
        <pt x="258" y="627" on="1"/>
        <pt x="236" y="630" on="0"/>
        <pt x="159" y="630" on="0"/>
        <pt x="90" y="593" on="0"/>
        <pt x="90" y="561" on="1"/>
        <pt x="90" y="509" on="0"/>
        <pt x="127" y="509" on="1"/>
        <pt x="142" y="509" on="0"/>
        <pt x="160" y="489" on="0"/>
        <pt x="160" y="459" on="0"/>
        <pt x="138" y="440" on="0"/>
        <pt x="119" y="440" on="1"/>
        <pt x="84" y="440" on="0"/>
        <pt x="35" y="499" on="0"/>
        <pt x="35" y="587" on="0"/>
        <pt x="88" y="654" on="0"/>
        <pt x="132" y="669" on="1"/>
        <pt x="213" y="696" on="0"/>
        <pt x="374" y="696" on="0"/>
        <pt x="449" y="676" on="0"/>
        <pt x="449" y="647" on="1"/>
        <pt x="449" y="630" on="0"/>
        <pt x="424" y="610" on="0"/>
        <pt x="408" y="610" on="1"/>
        <pt x="350" y="618" on="1"/>
        <pt x="344" y="551" on="0"/>
        <pt x="344" y="142" on="0"/>
        <pt x="352" y="65" on="1"/>
        <pt x="408" y="70" on="1"/>
        <pt x="424" y="70" on="0"/>
        <pt x="449" y="50" on="0"/>
        <pt x="449" y="14" on="0"/>
        <pt x="423" y="-6" on="0"/>
        <pt x="406" y="-6" on="1"/>
        <pt x="305" y="1" on="1"/>
        <pt x="204" y="-6" on="1"/>
        <pt x="187" y="-6" on="0"/>
        <pt x="161" y="14" on="0"/>
        <pt x="161" y="50" on="0"/>
        <pt x="186" y="70" on="0"/>
      </contour>
      <contour>
        <pt x="210" y="762" on="1"/>
        <pt x="210" y="768" on="0"/>
        <pt x="218" y="776" on="1"/>
        <pt x="321" y="879" on="0"/>
        <pt x="368" y="879" on="1"/>
        <pt x="383" y="879" on="0"/>
        <pt x="406" y="858" on="0"/>
        <pt x="406" y="843" on="1"/>
        <pt x="406" y="810" on="0"/>
        <pt x="369" y="803" on="1"/>
        <pt x="291" y="789" on="0"/>
        <pt x="234" y="755" on="1"/>
        <pt x="226" y="750" on="0"/>
        <pt x="222" y="750" on="1"/>
        <pt x="210" y="750" on="0"/>
      </contour>
    </TTGlyph>
    <TTGlyph name="Icircumflex" xMin="35" yMin="-6" xMax="449" yMax="879">
      <component glyphName="I" x="0" y="0" flags="0x1004"/>
      <component glyphName="circumflex" x="114" y="237" flags="0x1004"/>
    </TTGlyph>
    <TTGlyph name="Idieresis" xMin="35" yMin="-6" xMax="449" yMax="881">
      <contour>
        <pt x="350" y="618" on="1"/>
        <pt x="344" y="551" on="0"/>
        <pt x="344" y="142" on="0"/>
        <pt x="352" y="65" on="1"/>
        <pt x="408" y="70" on="1"/>
        <pt x="424" y="70" on="0"/>
        <pt x="449" y="50" on="0"/>
        <pt x="449" y="14" on="0"/>
        <pt x="423" y="-6" on="0"/>
        <pt x="406" y="-6" on="1"/>
        <pt x="305" y="1" on="1"/>
        <pt x="204" y="-6" on="1"/>
        <pt x="187" y="-6" on="0"/>
        <pt x="161" y="14" on="0"/>
        <pt x="161" y="50" on="0"/>
        <pt x="186" y="70" on="0"/>
        <pt x="202" y="70" on="1"/>
        <pt x="258" y="65" on="1"/>
        <pt x="266" y="142" on="0"/>
        <pt x="266" y="551" on="0"/>
        <pt x="258" y="627" on="1"/>
        <pt x="236" y="630" on="0"/>
        <pt x="159" y="630" on="0"/>
        <pt x="90" y="593" on="0"/>
        <pt x="90" y="561" on="1"/>
        <pt x="90" y="509" on="0"/>
        <pt x="127" y="509" on="1"/>
        <pt x="142" y="509" on="0"/>
        <pt x="160" y="489" on="0"/>
        <pt x="160" y="459" on="0"/>
        <pt x="138" y="440" on="0"/>
        <pt x="119" y="440" on="1"/>
        <pt x="84" y="440" on="0"/>
        <pt x="35" y="499" on="0"/>
        <pt x="35" y="587" on="0"/>
        <pt x="88" y="654" on="0"/>
        <pt x="177" y="684" on="0"/>
        <pt x="256" y="696" on="0"/>
        <pt x="374" y="696" on="0"/>
        <pt x="449" y="676" on="0"/>
        <pt x="449" y="647" on="1"/>
        <pt x="449" y="630" on="0"/>
        <pt x="424" y="610" on="0"/>
        <pt x="408" y="610" on="1"/>
      </contour>
      <contour>
        <pt x="352" y="788" on="0"/>
        <pt x="329" y="809" on="0"/>
        <pt x="329" y="851" on="0"/>
        <pt x="358" y="881" on="0"/>
        <pt x="398" y="881" on="0"/>
        <pt x="422" y="859" on="0"/>
        <pt x="422" y="817" on="0"/>
        <pt x="392" y="788" on="0"/>
      </contour>
      <contour>
        <pt x="162" y="788" on="0"/>
        <pt x="139" y="809" on="0"/>
        <pt x="139" y="851" on="0"/>
        <pt x="168" y="881" on="0"/>
        <pt x="208" y="881" on="0"/>
        <pt x="232" y="859" on="0"/>
        <pt x="232" y="817" on="0"/>
        <pt x="202" y="788" on="0"/>
      </contour>
    </TTGlyph>
    <TTGlyph name="Igrave" xMin="35" yMin="-6" xMax="449" yMax="879">
      <component glyphName="I" x="0" y="0" flags="0x1004"/>
      <component glyphName="grave" x="20" y="237" flags="0x1004"/>
    </TTGlyph>
    <TTGlyph name="Itilde" xMin="35" yMin="-6" xMax="449" yMax="882">
      <component glyphName="I" x="0" y="0" flags="0x1004"/>
      <component glyphName="tilde" x="41" y="240" flags="0x1004"/>
    </TTGlyph>
    <TTGlyph name="J" xMin="-206" yMin="-290" xMax="347" yMax="696">
      <contour>
        <pt x="255" y="622" on="1"/>
        <pt x="227" y="626" on="0"/>
        <pt x="159" y="626" on="0"/>
        <pt x="90" y="588" on="0"/>
        <pt x="90" y="557" on="1"/>
        <pt x="90" y="505" on="0"/>
        <pt x="127" y="505" on="1"/>
        <pt x="142" y="505" on="0"/>
        <pt x="160" y="485" on="0"/>
        <pt x="160" y="455" on="0"/>
        <pt x="138" y="436" on="0"/>
        <pt x="119" y="436" on="1"/>
        <pt x="84" y="436" on="0"/>
        <pt x="35" y="495" on="0"/>
        <pt x="35" y="576" on="0"/>
        <pt x="75" y="641" on="0"/>
        <pt x="107" y="660" on="1"/>
        <pt x="170" y="696" on="0"/>
        <pt x="250" y="696" on="1"/>
        <pt x="347" y="696" on="0"/>
        <pt x="347" y="638" on="1"/>
        <pt x="347" y="610" on="0"/>
        <pt x="338" y="375" on="0"/>
        <pt x="338" y="184" on="0"/>
        <pt x="319" y="32" on="0"/>
        <pt x="270" y="-118" on="0"/>
        <pt x="193" y="-224" on="0"/>
        <pt x="70" y="-290" on="0"/>
        <pt x="-87" y="-290" on="0"/>
        <pt x="-206" y="-219" on="0"/>
        <pt x="-206" y="-173" on="1"/>
        <pt x="-206" y="-152" on="0"/>
        <pt x="-182" y="-125" on="0"/>
        <pt x="-147" y="-125" on="0"/>
        <pt x="-118" y="-145" on="0"/>
        <pt x="-101" y="-162" on="1"/>
        <pt x="-35" y="-230" on="0"/>
        <pt x="45" y="-230" on="1"/>
        <pt x="100" y="-230" on="0"/>
        <pt x="186" y="-146" on="0"/>
        <pt x="212" y="-74" on="1"/>
        <pt x="263" y="70" on="0"/>
        <pt x="263" y="268" on="1"/>
        <pt x="263" y="547" on="0"/>
      </contour>
    </TTGlyph>
    <TTGlyph name="Jcircumflex" xMin="-276" yMin="-290" xMax="302" yMax="882">
      <contour>
        <pt x="193" y="268" on="1"/>
        <pt x="193" y="547" on="0"/>
        <pt x="185" y="622" on="1"/>
        <pt x="157" y="626" on="0"/>
        <pt x="89" y="626" on="0"/>
        <pt x="20" y="588" on="0"/>
        <pt x="20" y="557" on="1"/>
        <pt x="20" y="505" on="0"/>
        <pt x="57" y="505" on="1"/>
        <pt x="72" y="505" on="0"/>
        <pt x="90" y="485" on="0"/>
        <pt x="90" y="455" on="0"/>
        <pt x="68" y="436" on="0"/>
        <pt x="49" y="436" on="1"/>
        <pt x="14" y="436" on="0"/>
        <pt x="-35" y="495" on="0"/>
        <pt x="-35" y="576" on="0"/>
        <pt x="5" y="641" on="0"/>
        <pt x="37" y="660" on="1"/>
        <pt x="100" y="696" on="0"/>
        <pt x="180" y="696" on="1"/>
        <pt x="277" y="696" on="0"/>
        <pt x="277" y="638" on="1"/>
        <pt x="277" y="610" on="0"/>
        <pt x="268" y="375" on="0"/>
        <pt x="268" y="270" on="1"/>
        <pt x="268" y="90" on="0"/>
        <pt x="224" y="-43" on="1"/>
        <pt x="200" y="-118" on="0"/>
        <pt x="123" y="-224" on="0"/>
        <pt x="0" y="-290" on="0"/>
        <pt x="-157" y="-290" on="0"/>
        <pt x="-276" y="-219" on="0"/>
        <pt x="-276" y="-173" on="1"/>
        <pt x="-276" y="-152" on="0"/>
        <pt x="-252" y="-125" on="0"/>
        <pt x="-207" y="-125" on="0"/>
        <pt x="-171" y="-162" on="1"/>
        <pt x="-105" y="-230" on="0"/>
        <pt x="-30" y="-230" on="1"/>
        <pt x="30" y="-230" on="0"/>
        <pt x="116" y="-146" on="0"/>
        <pt x="142" y="-74" on="1"/>
        <pt x="193" y="70" on="0"/>
      </contour>
      <contour>
        <pt x="296" y="779" on="1"/>
        <pt x="302" y="772" on="0"/>
        <pt x="302" y="753" on="0"/>
        <pt x="293" y="753" on="1"/>
        <pt x="290" y="753" on="0"/>
        <pt x="283" y="758" on="1"/>
        <pt x="231" y="798" on="0"/>
        <pt x="178" y="810" on="1"/>
        <pt x="125" y="798" on="0"/>
        <pt x="73" y="758" on="1"/>
        <pt x="66" y="753" on="0"/>
        <pt x="63" y="753" on="1"/>
        <pt x="54" y="753" on="0"/>
        <pt x="54" y="772" on="0"/>
        <pt x="60" y="779" on="1"/>
        <pt x="139" y="882" on="0"/>
        <pt x="214" y="882" on="0"/>
      </contour>
    </TTGlyph>
    <TTGlyph name="K" xMin="60" yMin="-290" xMax="974" yMax="696">
      <contour>
        <pt x="147" y="348" on="1"/>
        <pt x="147" y="348" on="0"/>
        <pt x="151" y="46" on="1"/>
        <pt x="151" y="25" on="0"/>
        <pt x="128" y="-6" on="0"/>
        <pt x="86" y="-6" on="0"/>
        <pt x="60" y="25" on="0"/>
        <pt x="60" y="46" on="1"/>
        <pt x="65" y="348" on="1"/>
        <pt x="60" y="643" on="1"/>
        <pt x="60" y="664" on="0"/>
        <pt x="86" y="696" on="0"/>
        <pt x="128" y="696" on="0"/>
        <pt x="151" y="665" on="0"/>
        <pt x="151" y="611" on="0"/>
        <pt x="148" y="454" on="0"/>
        <pt x="148" y="434" on="1"/>
        <pt x="204" y="528" on="0"/>
        <pt x="409" y="696" on="0"/>
        <pt x="470" y="696" on="1"/>
        <pt x="493" y="696" on="0"/>
        <pt x="524" y="668" on="0"/>
        <pt x="524" y="624" on="0"/>
        <pt x="493" y="596" on="0"/>
        <pt x="461" y="596" on="0"/>
        <pt x="428" y="613" on="0"/>
        <pt x="388" y="613" on="0"/>
        <pt x="306" y="553" on="0"/>
        <pt x="259" y="503" on="1"/>
        <pt x="214" y="453" on="0"/>
        <pt x="186" y="409" on="1"/>
        <pt x="485" y="21" on="0"/>
        <pt x="909" y="-178" on="1"/>
        <pt x="974" y="-208" on="0"/>
        <pt x="974" y="-246" on="1"/>
        <pt x="974" y="-266" on="0"/>
        <pt x="946" y="-290" on="0"/>
        <pt x="921" y="-290" on="1"/>
        <pt x="859" y="-290" on="0"/>
        <pt x="568" y="-82" on="0"/>
        <pt x="412" y="63" on="1"/>
        <pt x="341" y="128" on="0"/>
        <pt x="190" y="293" on="0"/>
      </contour>
    </TTGlyph>
    <TTGlyph name="L" xMin="60" yMin="-6" xMax="473" yMax="696">
      <contour>
        <pt x="230" y="-2" on="1"/>
        <pt x="112" y="-6" on="1"/>
        <pt x="89" y="-6" on="0"/>
        <pt x="60" y="24" on="0"/>
        <pt x="60" y="58" on="0"/>
        <pt x="69" y="248" on="0"/>
        <pt x="69" y="462" on="0"/>
        <pt x="60" y="639" on="0"/>
        <pt x="60" y="642" on="1"/>
        <pt x="60" y="663" on="0"/>
        <pt x="87" y="696" on="0"/>
        <pt x="129" y="696" on="0"/>
        <pt x="156" y="663" on="0"/>
        <pt x="156" y="642" on="1"/>
        <pt x="156" y="639" on="0"/>
        <pt x="147" y="462" on="0"/>
        <pt x="147" y="281" on="0"/>
        <pt x="150" y="171" on="0"/>
        <pt x="156" y="75" on="0"/>
        <pt x="156" y="66" on="1"/>
        <pt x="191" y="66" on="1"/>
        <pt x="283" y="66" on="0"/>
        <pt x="363" y="73" on="0"/>
        <pt x="407" y="109" on="0"/>
        <pt x="407" y="160" on="0"/>
        <pt x="366" y="197" on="0"/>
        <pt x="342" y="197" on="1"/>
        <pt x="292" y="197" on="0"/>
        <pt x="292" y="236" on="1"/>
        <pt x="292" y="252" on="0"/>
        <pt x="324" y="276" on="0"/>
        <pt x="347" y="276" on="1"/>
        <pt x="400" y="276" on="0"/>
        <pt x="473" y="207" on="0"/>
        <pt x="473" y="160" on="1"/>
        <pt x="473" y="98" on="0"/>
        <pt x="369" y="-6" on="0"/>
        <pt x="305" y="-6" on="1"/>
      </contour>
    </TTGlyph>
    <TTGlyph name="Ldotaccent" xMin="60" yMin="-6" xMax="473" yMax="696">
      <component glyphName="L" x="0" y="0" flags="0x1004"/>
      <component glyphName="dotaccent" x="243" y="-197" flags="0x1004"/>
    </TTGlyph>
    <TTGlyph name="Lslash" xMin="-52" yMin="-6" xMax="473" yMax="696">
      <contour>
        <pt x="230" y="-2" on="1"/>
        <pt x="108" y="-6" on="1"/>
        <pt x="87" y="-6" on="0"/>
        <pt x="60" y="25" on="0"/>
        <pt x="60" y="66" on="0"/>
        <pt x="66" y="195" on="0"/>
        <pt x="68" y="247" on="1"/>
        <pt x="58" y="240" on="0"/>
        <pt x="28" y="215" on="0"/>
        <pt x="11" y="202" on="0"/>
        <pt x="1" y="194" on="1"/>
        <pt x="-17" y="181" on="0"/>
        <pt x="-27" y="181" on="1"/>
        <pt x="-52" y="181" on="0"/>
        <pt x="-52" y="205" on="1"/>
        <pt x="-52" y="218" on="0"/>
        <pt x="-15" y="245" on="0"/>
        <pt x="10" y="260" on="0"/>
        <pt x="54" y="285" on="0"/>
        <pt x="69" y="294" on="1"/>
        <pt x="69" y="348" on="1"/>
        <pt x="69" y="462" on="0"/>
        <pt x="60" y="639" on="0"/>
        <pt x="60" y="642" on="1"/>
        <pt x="60" y="663" on="0"/>
        <pt x="87" y="696" on="0"/>
        <pt x="129" y="696" on="0"/>
        <pt x="156" y="663" on="0"/>
        <pt x="156" y="642" on="1"/>
        <pt x="156" y="639" on="0"/>
        <pt x="147" y="463" on="0"/>
        <pt x="147" y="350" on="1"/>
        <pt x="225" y="415" on="0"/>
        <pt x="239" y="415" on="1"/>
        <pt x="264" y="415" on="0"/>
        <pt x="264" y="391" on="1"/>
        <pt x="264" y="377" on="0"/>
        <pt x="226" y="351" on="0"/>
        <pt x="214" y="344" on="1"/>
        <pt x="162" y="314" on="0"/>
        <pt x="147" y="304" on="1"/>
        <pt x="147" y="271" on="0"/>
        <pt x="156" y="66" on="1"/>
        <pt x="191" y="66" on="1"/>
        <pt x="283" y="66" on="0"/>
        <pt x="363" y="74" on="0"/>
        <pt x="407" y="110" on="0"/>
        <pt x="407" y="160" on="0"/>
        <pt x="366" y="197" on="0"/>
        <pt x="342" y="197" on="1"/>
        <pt x="292" y="197" on="0"/>
        <pt x="292" y="236" on="1"/>
        <pt x="292" y="252" on="0"/>
        <pt x="324" y="276" on="0"/>
        <pt x="347" y="276" on="1"/>
        <pt x="400" y="276" on="0"/>
        <pt x="473" y="207" on="0"/>
        <pt x="473" y="160" on="1"/>
        <pt x="473" y="98" on="0"/>
        <pt x="369" y="-6" on="0"/>
        <pt x="305" y="-6" on="1"/>
      </contour>
    </TTGlyph>
    <TTGlyph name="M" xMin="20" yMin="-286" xMax="827" yMax="696">
      <contour>
        <pt x="763" y="614" on="1"/>
        <pt x="751" y="613" on="1"/>
        <pt x="762" y="303" on="0"/>
        <pt x="774" y="168" on="1"/>
        <pt x="777" y="135" on="0"/>
        <pt x="827" y="71" on="0"/>
        <pt x="827" y="26" on="0"/>
        <pt x="800" y="-6" on="0"/>
        <pt x="755" y="-6" on="0"/>
        <pt x="724" y="49" on="0"/>
        <pt x="721" y="81" on="1"/>
        <pt x="697" y="414" on="0"/>
        <pt x="661" y="586" on="1"/>
        <pt x="570" y="540" on="0"/>
        <pt x="483" y="427" on="1"/>
        <pt x="562" y="302" on="0"/>
        <pt x="562" y="127" on="0"/>
        <pt x="444" y="0" on="0"/>
        <pt x="342" y="0" on="0"/>
        <pt x="287" y="66" on="0"/>
        <pt x="287" y="163" on="0"/>
        <pt x="352" y="312" on="0"/>
        <pt x="405" y="393" on="1"/>
        <pt x="359" y="462" on="0"/>
        <pt x="239" y="568" on="0"/>
        <pt x="182" y="588" on="1"/>
        <pt x="182" y="585" on="0"/>
        <pt x="174" y="532" on="1"/>
        <pt x="139" y="313" on="0"/>
        <pt x="126" y="-44" on="1"/>
        <pt x="121" y="-205" on="0"/>
        <pt x="116" y="-257" on="0"/>
        <pt x="88" y="-286" on="0"/>
        <pt x="51" y="-286" on="0"/>
        <pt x="20" y="-257" on="0"/>
        <pt x="20" y="-192" on="0"/>
        <pt x="47" y="-32" on="1"/>
        <pt x="103" y="300" on="0"/>
        <pt x="107" y="601" on="1"/>
        <pt x="66" y="610" on="0"/>
        <pt x="66" y="652" on="1"/>
        <pt x="66" y="671" on="0"/>
        <pt x="102" y="696" on="0"/>
        <pt x="128" y="696" on="1"/>
        <pt x="205" y="696" on="0"/>
        <pt x="384" y="565" on="0"/>
        <pt x="456" y="466" on="1"/>
        <pt x="532" y="567" on="0"/>
        <pt x="694" y="696" on="0"/>
        <pt x="763" y="696" on="1"/>
        <pt x="810" y="696" on="0"/>
        <pt x="810" y="658" on="1"/>
        <pt x="810" y="640" on="0"/>
        <pt x="779" y="614" on="0"/>
      </contour>
      <contour>
        <pt x="483" y="179" on="1"/>
        <pt x="483" y="255" on="0"/>
        <pt x="430" y="351" on="1"/>
        <pt x="349" y="221" on="0"/>
        <pt x="349" y="155" on="1"/>
        <pt x="349" y="119" on="0"/>
        <pt x="386" y="65" on="0"/>
        <pt x="442" y="65" on="0"/>
        <pt x="483" y="136" on="0"/>
      </contour>
    </TTGlyph>
    <TTGlyph name="N" xMin="55" yMin="-291" xMax="914" yMax="696">
      <contour>
        <pt x="170" y="602" on="1"/>
        <pt x="167" y="536" on="0"/>
        <pt x="167" y="248" on="0"/>
        <pt x="186" y="58" on="0"/>
        <pt x="186" y="26" on="0"/>
        <pt x="159" y="-6" on="0"/>
        <pt x="117" y="-6" on="0"/>
        <pt x="90" y="26" on="0"/>
        <pt x="90" y="58" on="0"/>
        <pt x="109" y="248" on="0"/>
        <pt x="109" y="432" on="0"/>
        <pt x="105" y="608" on="1"/>
        <pt x="85" y="609" on="0"/>
        <pt x="55" y="630" on="0"/>
        <pt x="55" y="649" on="1"/>
        <pt x="55" y="696" on="0"/>
        <pt x="118" y="696" on="1"/>
        <pt x="169" y="696" on="0"/>
        <pt x="280" y="644" on="0"/>
        <pt x="409" y="506" on="0"/>
        <pt x="455" y="403" on="1"/>
        <pt x="470" y="370" on="0"/>
        <pt x="556" y="170" on="0"/>
        <pt x="578" y="126" on="1"/>
        <pt x="576" y="418" on="0"/>
        <pt x="561" y="524" on="1"/>
        <pt x="556" y="559" on="0"/>
        <pt x="547" y="617" on="0"/>
        <pt x="547" y="664" on="0"/>
        <pt x="576" y="696" on="0"/>
        <pt x="617" y="696" on="0"/>
        <pt x="643" y="664" on="0"/>
        <pt x="643" y="601" on="0"/>
        <pt x="638" y="517" on="1"/>
        <pt x="628" y="321" on="0"/>
        <pt x="628" y="45" on="1"/>
        <pt x="709" y="-83" on="0"/>
        <pt x="763" y="-129" on="1"/>
        <pt x="793" y="-155" on="0"/>
        <pt x="858" y="-190" on="0"/>
        <pt x="875" y="-196" on="1"/>
        <pt x="914" y="-210" on="0"/>
        <pt x="914" y="-249" on="1"/>
        <pt x="914" y="-265" on="0"/>
        <pt x="884" y="-291" on="0"/>
        <pt x="861" y="-291" on="1"/>
        <pt x="806" y="-291" on="0"/>
        <pt x="682" y="-181" on="0"/>
        <pt x="622" y="-86" on="1"/>
        <pt x="510" y="94" on="0"/>
        <pt x="405" y="359" on="1"/>
        <pt x="322" y="571" on="0"/>
      </contour>
    </TTGlyph>
    <TTGlyph name="Nacute" xMin="55" yMin="-291" xMax="914" yMax="882">
      <component glyphName="N" x="0" y="0" flags="0x1004"/>
      <component glyphName="acute" x="217" y="240" flags="0x1004"/>
    </TTGlyph>
    <TTGlyph name="Ntilde" xMin="55" yMin="-291" xMax="914" yMax="879">
      <component glyphName="N" x="0" y="0" flags="0x1004"/>
      <component glyphName="tilde" x="172" y="237" flags="0x1004"/>
    </TTGlyph>
    <TTGlyph name="O" xMin="25" yMin="-6" xMax="687" yMax="696">
      <contour>
        <pt x="292" y="317" on="0"/>
        <pt x="292" y="373" on="0"/>
        <pt x="330" y="414" on="0"/>
        <pt x="383" y="414" on="0"/>
        <pt x="420" y="374" on="0"/>
        <pt x="420" y="317" on="0"/>
        <pt x="383" y="276" on="0"/>
        <pt x="330" y="276" on="0"/>
      </contour>
      <contour>
        <pt x="107" y="242" on="0"/>
        <pt x="250" y="62" on="0"/>
        <pt x="474" y="62" on="0"/>
        <pt x="605" y="205" on="0"/>
        <pt x="605" y="448" on="0"/>
        <pt x="462" y="628" on="0"/>
        <pt x="237" y="628" on="0"/>
        <pt x="107" y="485" on="0"/>
      </contour>
      <contour>
        <pt x="332" y="-6" on="1"/>
        <pt x="202" y="-6" on="0"/>
        <pt x="25" y="181" on="0"/>
        <pt x="25" y="314" on="1"/>
        <pt x="25" y="480" on="0"/>
        <pt x="225" y="696" on="0"/>
        <pt x="380" y="696" on="1"/>
        <pt x="510" y="696" on="0"/>
        <pt x="687" y="509" on="0"/>
        <pt x="687" y="376" on="1"/>
        <pt x="687" y="210" on="0"/>
        <pt x="487" y="-6" on="0"/>
      </contour>
    </TTGlyph>
    <TTGlyph name="OE" xMin="25" yMin="-6" xMax="913" yMax="696">
      <contour>
        <pt x="872" y="-6" on="1"/>
        <pt x="680" y="0" on="1"/>
        <pt x="640" y="0" on="0"/>
        <pt x="530" y="-6" on="0"/>
        <pt x="526" y="-6" on="1"/>
        <pt x="494" y="-6" on="0"/>
        <pt x="481" y="25" on="1"/>
        <pt x="413" y="-6" on="0"/>
        <pt x="332" y="-6" on="1"/>
        <pt x="202" y="-6" on="0"/>
        <pt x="25" y="181" on="0"/>
        <pt x="25" y="314" on="1"/>
        <pt x="25" y="480" on="0"/>
        <pt x="225" y="696" on="0"/>
        <pt x="380" y="696" on="1"/>
        <pt x="657" y="690" on="1"/>
        <pt x="859" y="696" on="1"/>
        <pt x="875" y="696" on="0"/>
        <pt x="900" y="675" on="0"/>
        <pt x="900" y="639" on="0"/>
        <pt x="875" y="618" on="0"/>
        <pt x="859" y="618" on="1"/>
        <pt x="657" y="624" on="1"/>
        <pt x="631" y="624" on="0"/>
        <pt x="573" y="622" on="1"/>
        <pt x="573" y="610" on="0"/>
        <pt x="571" y="579" on="1"/>
        <pt x="565" y="486" on="0"/>
        <pt x="565" y="405" on="1"/>
        <pt x="585" y="403" on="0"/>
        <pt x="633" y="401" on="1"/>
        <pt x="660" y="458" on="0"/>
        <pt x="766" y="529" on="0"/>
        <pt x="813" y="529" on="1"/>
        <pt x="873" y="529" on="0"/>
        <pt x="873" y="480" on="1"/>
        <pt x="873" y="464" on="0"/>
        <pt x="850" y="441" on="0"/>
        <pt x="825" y="441" on="0"/>
        <pt x="788" y="465" on="0"/>
        <pt x="734" y="465" on="0"/>
        <pt x="680" y="429" on="0"/>
        <pt x="667" y="401" on="1"/>
        <pt x="707" y="401" on="0"/>
        <pt x="803" y="407" on="0"/>
        <pt x="824" y="407" on="0"/>
        <pt x="844" y="387" on="0"/>
        <pt x="844" y="355" on="0"/>
        <pt x="824" y="334" on="0"/>
        <pt x="808" y="334" on="1"/>
        <pt x="669" y="339" on="1"/>
        <pt x="659" y="339" on="1"/>
        <pt x="666" y="300" on="0"/>
        <pt x="726" y="249" on="0"/>
        <pt x="796" y="249" on="0"/>
        <pt x="856" y="292" on="0"/>
        <pt x="859" y="292" on="1"/>
        <pt x="873" y="292" on="0"/>
        <pt x="873" y="278" on="1"/>
        <pt x="873" y="268" on="0"/>
        <pt x="840" y="231" on="0"/>
        <pt x="767" y="195" on="0"/>
        <pt x="675" y="195" on="0"/>
        <pt x="612" y="266" on="0"/>
        <pt x="612" y="310" on="1"/>
        <pt x="612" y="320" on="0"/>
        <pt x="614" y="338" on="1"/>
        <pt x="565" y="335" on="1"/>
        <pt x="565" y="213" on="0"/>
        <pt x="574" y="75" on="0"/>
        <pt x="574" y="66" on="1"/>
        <pt x="574" y="66" on="0"/>
        <pt x="872" y="72" on="1"/>
        <pt x="888" y="72" on="0"/>
        <pt x="913" y="51" on="0"/>
        <pt x="913" y="15" on="0"/>
        <pt x="888" y="-6" on="0"/>
      </contour>
      <contour>
        <pt x="365" y="62" on="1"/>
        <pt x="432" y="62" on="0"/>
        <pt x="483" y="89" on="1"/>
        <pt x="487" y="169" on="0"/>
        <pt x="487" y="429" on="0"/>
        <pt x="478" y="623" on="1"/>
        <pt x="376" y="628" on="0"/>
        <pt x="347" y="628" on="1"/>
        <pt x="237" y="628" on="0"/>
        <pt x="107" y="485" on="0"/>
        <pt x="107" y="242" on="0"/>
        <pt x="250" y="62" on="0"/>
      </contour>
      <contour>
        <pt x="292" y="317" on="0"/>
        <pt x="292" y="373" on="0"/>
        <pt x="330" y="414" on="0"/>
        <pt x="383" y="414" on="0"/>
        <pt x="420" y="374" on="0"/>
        <pt x="420" y="317" on="0"/>
        <pt x="383" y="276" on="0"/>
        <pt x="330" y="276" on="0"/>
      </contour>
    </TTGlyph>
    <TTGlyph name="Oacute" xMin="25" yMin="-6" xMax="687" yMax="879">
      <component glyphName="O" x="0" y="0" flags="0x1004"/>
      <component glyphName="acute" x="247" y="237" flags="0x1004"/>
    </TTGlyph>
    <TTGlyph name="Ocircumflex" xMin="25" yMin="-6" xMax="687" yMax="879">
      <component glyphName="O" x="0" y="0" flags="0x1004"/>
      <component glyphName="circumflex" x="201" y="237" flags="0x1004"/>
    </TTGlyph>
    <TTGlyph name="Odieresis" xMin="25" yMin="-6" xMax="687" yMax="881">
      <contour>
        <pt x="292" y="317" on="0"/>
        <pt x="292" y="373" on="0"/>
        <pt x="330" y="414" on="0"/>
        <pt x="383" y="414" on="0"/>
        <pt x="420" y="374" on="0"/>
        <pt x="420" y="317" on="0"/>
        <pt x="383" y="276" on="0"/>
        <pt x="330" y="276" on="0"/>
      </contour>
      <contour>
        <pt x="107" y="242" on="0"/>
        <pt x="250" y="62" on="0"/>
        <pt x="474" y="62" on="0"/>
        <pt x="605" y="205" on="0"/>
        <pt x="605" y="448" on="0"/>
        <pt x="462" y="628" on="0"/>
        <pt x="237" y="628" on="0"/>
        <pt x="107" y="485" on="0"/>
      </contour>
      <contour>
        <pt x="332" y="-6" on="1"/>
        <pt x="202" y="-6" on="0"/>
        <pt x="25" y="181" on="0"/>
        <pt x="25" y="314" on="1"/>
        <pt x="25" y="480" on="0"/>
        <pt x="225" y="696" on="0"/>
        <pt x="380" y="696" on="1"/>
        <pt x="510" y="696" on="0"/>
        <pt x="687" y="509" on="0"/>
        <pt x="687" y="376" on="1"/>
        <pt x="687" y="210" on="0"/>
        <pt x="487" y="-6" on="0"/>
      </contour>
      <contour>
        <pt x="440" y="788" on="0"/>
        <pt x="417" y="809" on="0"/>
        <pt x="417" y="851" on="0"/>
        <pt x="446" y="881" on="0"/>
        <pt x="486" y="881" on="0"/>
        <pt x="510" y="859" on="0"/>
        <pt x="510" y="817" on="0"/>
        <pt x="480" y="788" on="0"/>
      </contour>
      <contour>
        <pt x="250" y="788" on="0"/>
        <pt x="227" y="809" on="0"/>
        <pt x="227" y="851" on="0"/>
        <pt x="256" y="881" on="0"/>
        <pt x="296" y="881" on="0"/>
        <pt x="320" y="859" on="0"/>
        <pt x="320" y="817" on="0"/>
        <pt x="290" y="788" on="0"/>
      </contour>
    </TTGlyph>
    <TTGlyph name="Ograve" xMin="25" yMin="-6" xMax="687" yMax="879">
      <contour>
        <pt x="292" y="317" on="0"/>
        <pt x="292" y="373" on="0"/>
        <pt x="330" y="414" on="0"/>
        <pt x="383" y="414" on="0"/>
        <pt x="420" y="374" on="0"/>
        <pt x="420" y="317" on="0"/>
        <pt x="383" y="276" on="0"/>
        <pt x="330" y="276" on="0"/>
      </contour>
      <contour>
        <pt x="107" y="242" on="0"/>
        <pt x="250" y="62" on="0"/>
        <pt x="474" y="62" on="0"/>
        <pt x="605" y="205" on="0"/>
        <pt x="605" y="448" on="0"/>
        <pt x="462" y="628" on="0"/>
        <pt x="237" y="628" on="0"/>
        <pt x="107" y="485" on="0"/>
      </contour>
      <contour>
        <pt x="332" y="-6" on="1"/>
        <pt x="202" y="-6" on="0"/>
        <pt x="25" y="181" on="0"/>
        <pt x="25" y="314" on="1"/>
        <pt x="25" y="480" on="0"/>
        <pt x="225" y="696" on="0"/>
        <pt x="380" y="696" on="1"/>
        <pt x="510" y="696" on="0"/>
        <pt x="687" y="509" on="0"/>
        <pt x="687" y="376" on="1"/>
        <pt x="687" y="210" on="0"/>
        <pt x="487" y="-6" on="0"/>
      </contour>
      <contour>
        <pt x="433" y="762" on="1"/>
        <pt x="433" y="750" on="0"/>
        <pt x="421" y="750" on="1"/>
        <pt x="417" y="750" on="0"/>
        <pt x="409" y="755" on="1"/>
        <pt x="352" y="789" on="0"/>
        <pt x="274" y="803" on="1"/>
        <pt x="237" y="810" on="0"/>
        <pt x="237" y="843" on="1"/>
        <pt x="237" y="858" on="0"/>
        <pt x="260" y="879" on="0"/>
        <pt x="275" y="879" on="1"/>
        <pt x="322" y="879" on="0"/>
        <pt x="425" y="776" on="1"/>
        <pt x="433" y="768" on="0"/>
      </contour>
    </TTGlyph>
    <TTGlyph name="Oslash" xMin="25" yMin="-46" xMax="687" yMax="736">
      <contour>
        <pt x="332" y="-6" on="1"/>
        <pt x="272" y="-6" on="0"/>
        <pt x="219" y="15" on="1"/>
        <pt x="187" y="-46" on="0"/>
        <pt x="132" y="-46" on="0"/>
        <pt x="132" y="-17" on="1"/>
        <pt x="132" y="5" on="0"/>
        <pt x="159" y="48" on="1"/>
        <pt x="97" y="92" on="0"/>
        <pt x="25" y="232" on="0"/>
        <pt x="25" y="314" on="1"/>
        <pt x="25" y="480" on="0"/>
        <pt x="225" y="696" on="0"/>
        <pt x="380" y="696" on="1"/>
        <pt x="438" y="696" on="0"/>
        <pt x="493" y="674" on="1"/>
        <pt x="525" y="736" on="0"/>
        <pt x="581" y="736" on="0"/>
        <pt x="581" y="707" on="1"/>
        <pt x="581" y="687" on="0"/>
        <pt x="554" y="641" on="1"/>
        <pt x="616" y="597" on="0"/>
        <pt x="687" y="457" on="0"/>
        <pt x="687" y="376" on="1"/>
        <pt x="687" y="210" on="0"/>
        <pt x="487" y="-6" on="0"/>
      </contour>
      <contour>
        <pt x="312" y="295" on="1"/>
        <pt x="292" y="315" on="0"/>
        <pt x="292" y="373" on="0"/>
        <pt x="330" y="414" on="0"/>
        <pt x="356" y="414" on="1"/>
        <pt x="365" y="414" on="0"/>
        <pt x="374" y="411" on="1"/>
        <pt x="404" y="472" on="0"/>
        <pt x="459" y="600" on="1"/>
        <pt x="405" y="628" on="0"/>
        <pt x="347" y="628" on="1"/>
        <pt x="237" y="628" on="0"/>
        <pt x="107" y="485" on="0"/>
        <pt x="107" y="356" on="1"/>
        <pt x="107" y="290" on="0"/>
        <pt x="159" y="165" on="0"/>
        <pt x="206" y="123" on="1"/>
        <pt x="265" y="213" on="0"/>
      </contour>
      <contour>
        <pt x="365" y="62" on="1"/>
        <pt x="474" y="62" on="0"/>
        <pt x="605" y="205" on="0"/>
        <pt x="605" y="334" on="1"/>
        <pt x="605" y="399" on="0"/>
        <pt x="553" y="524" on="0"/>
        <pt x="506" y="566" on="1"/>
        <pt x="449" y="481" on="0"/>
        <pt x="401" y="394" on="1"/>
        <pt x="420" y="375" on="0"/>
        <pt x="420" y="317" on="0"/>
        <pt x="383" y="276" on="0"/>
        <pt x="356" y="276" on="1"/>
        <pt x="349" y="276" on="0"/>
        <pt x="339" y="278" on="1"/>
        <pt x="316" y="233" on="0"/>
        <pt x="254" y="89" on="1"/>
        <pt x="305" y="62" on="0"/>
      </contour>
    </TTGlyph>
    <TTGlyph name="Otilde" xMin="25" yMin="-6" xMax="687" yMax="879">
      <component glyphName="O" x="0" y="0" flags="0x1004"/>
      <component glyphName="tilde" x="172" y="237" flags="0x1004"/>
    </TTGlyph>
    <TTGlyph name="P" xMin="33" yMin="-291" xMax="590" yMax="696">
      <contour>
        <pt x="398" y="696" on="1"/>
        <pt x="488" y="696" on="0"/>
        <pt x="590" y="595" on="0"/>
        <pt x="590" y="398" on="0"/>
        <pt x="448" y="234" on="0"/>
        <pt x="340" y="234" on="1"/>
        <pt x="278" y="234" on="0"/>
        <pt x="260" y="250" on="1"/>
        <pt x="247" y="263" on="0"/>
        <pt x="247" y="300" on="0"/>
        <pt x="271" y="321" on="0"/>
        <pt x="302" y="321" on="0"/>
        <pt x="355" y="301" on="0"/>
        <pt x="381" y="301" on="1"/>
        <pt x="437" y="301" on="0"/>
        <pt x="520" y="392" on="0"/>
        <pt x="520" y="527" on="0"/>
        <pt x="431" y="627" on="0"/>
        <pt x="289" y="627" on="0"/>
        <pt x="228" y="589" on="1"/>
        <pt x="216" y="283" on="0"/>
        <pt x="216" y="-204" on="1"/>
        <pt x="216" y="-291" on="0"/>
        <pt x="161" y="-291" on="1"/>
        <pt x="140" y="-291" on="0"/>
        <pt x="107" y="-259" on="0"/>
        <pt x="107" y="-210" on="0"/>
        <pt x="150" y="-150" on="0"/>
        <pt x="150" y="-117" on="1"/>
        <pt x="150" y="206" on="0"/>
        <pt x="147" y="306" on="1"/>
        <pt x="142" y="473" on="0"/>
        <pt x="142" y="516" on="1"/>
        <pt x="114" y="483" on="0"/>
        <pt x="80" y="413" on="0"/>
        <pt x="60" y="413" on="1"/>
        <pt x="33" y="413" on="0"/>
        <pt x="33" y="469" on="0"/>
        <pt x="95" y="552" on="0"/>
        <pt x="192" y="635" on="0"/>
        <pt x="331" y="696" on="0"/>
      </contour>
    </TTGlyph>
    <TTGlyph name="Q" xMin="25" yMin="-290" xMax="687" yMax="696">
      <contour>
        <pt x="343" y="63" on="1"/>
        <pt x="373" y="63" on="0"/>
        <pt x="501" y="107" on="0"/>
        <pt x="616" y="107" on="0"/>
        <pt x="687" y="40" on="0"/>
        <pt x="687" y="-97" on="0"/>
        <pt x="596" y="-225" on="0"/>
        <pt x="485" y="-290" on="0"/>
        <pt x="443" y="-290" on="1"/>
        <pt x="420" y="-290" on="0"/>
        <pt x="396" y="-266" on="0"/>
        <pt x="396" y="-228" on="0"/>
        <pt x="424" y="-198" on="0"/>
        <pt x="449" y="-198" on="0"/>
        <pt x="484" y="-212" on="0"/>
        <pt x="500" y="-212" on="1"/>
        <pt x="545" y="-212" on="0"/>
        <pt x="621" y="-136" on="0"/>
        <pt x="621" y="-29" on="0"/>
        <pt x="557" y="33" on="0"/>
        <pt x="506" y="33" on="1"/>
        <pt x="478" y="33" on="0"/>
        <pt x="376" y="-6" on="0"/>
        <pt x="329" y="-6" on="1"/>
        <pt x="206" y="-6" on="0"/>
        <pt x="25" y="175" on="0"/>
        <pt x="25" y="477" on="0"/>
        <pt x="224" y="696" on="0"/>
        <pt x="509" y="696" on="0"/>
        <pt x="687" y="513" on="0"/>
        <pt x="687" y="376" on="1"/>
        <pt x="687" y="296" on="0"/>
        <pt x="633" y="144" on="0"/>
        <pt x="595" y="144" on="1"/>
        <pt x="571" y="144" on="0"/>
        <pt x="571" y="169" on="1"/>
        <pt x="571" y="173" on="0"/>
        <pt x="605" y="271" on="0"/>
        <pt x="605" y="325" on="1"/>
        <pt x="605" y="447" on="0"/>
        <pt x="464" y="628" on="0"/>
        <pt x="344" y="628" on="1"/>
        <pt x="239" y="628" on="0"/>
        <pt x="107" y="486" on="0"/>
        <pt x="107" y="243" on="0"/>
        <pt x="253" y="63" on="0"/>
      </contour>
    </TTGlyph>
    <TTGlyph name="R" xMin="60" yMin="-290" xMax="797" yMax="696">
      <contour>
        <pt x="206" y="263" on="1"/>
        <pt x="215" y="46" on="1"/>
        <pt x="215" y="26" on="0"/>
        <pt x="188" y="-6" on="0"/>
        <pt x="146" y="-6" on="0"/>
        <pt x="119" y="26" on="0"/>
        <pt x="119" y="58" on="0"/>
        <pt x="128" y="248" on="0"/>
        <pt x="128" y="426" on="0"/>
        <pt x="124" y="541" on="0"/>
        <pt x="119" y="611" on="0"/>
        <pt x="119" y="621" on="1"/>
        <pt x="101" y="621" on="1"/>
        <pt x="85" y="621" on="0"/>
        <pt x="60" y="642" on="0"/>
        <pt x="60" y="675" on="0"/>
        <pt x="85" y="696" on="0"/>
        <pt x="110" y="696" on="0"/>
        <pt x="153" y="690" on="0"/>
        <pt x="174" y="690" on="1"/>
        <pt x="322" y="696" on="1"/>
        <pt x="382" y="696" on="0"/>
        <pt x="442" y="654" on="1"/>
        <pt x="473" y="632" on="0"/>
        <pt x="511" y="550" on="0"/>
        <pt x="511" y="496" on="1"/>
        <pt x="511" y="409" on="0"/>
        <pt x="420" y="294" on="0"/>
        <pt x="356" y="267" on="1"/>
        <pt x="407" y="242" on="0"/>
        <pt x="510" y="121" on="0"/>
        <pt x="625" y="-49" on="0"/>
        <pt x="687" y="-123" on="0"/>
        <pt x="765" y="-184" on="0"/>
        <pt x="797" y="-215" on="0"/>
        <pt x="797" y="-259" on="0"/>
        <pt x="763" y="-290" on="0"/>
        <pt x="735" y="-290" on="1"/>
        <pt x="697" y="-290" on="0"/>
        <pt x="606" y="-176" on="0"/>
        <pt x="512" y="-14" on="0"/>
        <pt x="409" y="149" on="0"/>
        <pt x="275" y="263" on="0"/>
      </contour>
      <contour>
        <pt x="273" y="627" on="1"/>
        <pt x="215" y="626" on="1"/>
        <pt x="215" y="615" on="0"/>
        <pt x="212" y="580" on="1"/>
        <pt x="206" y="489" on="0"/>
        <pt x="206" y="348" on="1"/>
        <pt x="206" y="321" on="1"/>
        <pt x="256" y="307" on="0"/>
        <pt x="297" y="307" on="0"/>
        <pt x="333" y="314" on="0"/>
        <pt x="379" y="335" on="0"/>
        <pt x="415" y="367" on="0"/>
        <pt x="440" y="423" on="0"/>
        <pt x="440" y="459" on="1"/>
        <pt x="440" y="545" on="0"/>
        <pt x="343" y="627" on="0"/>
      </contour>
    </TTGlyph>
    <TTGlyph name="Racute" xMin="60" yMin="-290" xMax="797" yMax="882">
      <contour>
        <pt x="206" y="263" on="1"/>
        <pt x="215" y="46" on="1"/>
        <pt x="215" y="26" on="0"/>
        <pt x="188" y="-6" on="0"/>
        <pt x="146" y="-6" on="0"/>
        <pt x="119" y="26" on="0"/>
        <pt x="119" y="58" on="0"/>
        <pt x="128" y="248" on="0"/>
        <pt x="128" y="426" on="0"/>
        <pt x="124" y="541" on="0"/>
        <pt x="119" y="611" on="0"/>
        <pt x="119" y="621" on="1"/>
        <pt x="101" y="621" on="1"/>
        <pt x="85" y="621" on="0"/>
        <pt x="60" y="642" on="0"/>
        <pt x="60" y="675" on="0"/>
        <pt x="85" y="696" on="0"/>
        <pt x="110" y="696" on="0"/>
        <pt x="153" y="690" on="0"/>
        <pt x="174" y="690" on="1"/>
        <pt x="322" y="696" on="1"/>
        <pt x="382" y="696" on="0"/>
        <pt x="442" y="654" on="1"/>
        <pt x="473" y="632" on="0"/>
        <pt x="511" y="550" on="0"/>
        <pt x="511" y="496" on="1"/>
        <pt x="511" y="409" on="0"/>
        <pt x="420" y="294" on="0"/>
        <pt x="356" y="267" on="1"/>
        <pt x="407" y="242" on="0"/>
        <pt x="510" y="121" on="0"/>
        <pt x="625" y="-49" on="0"/>
        <pt x="687" y="-123" on="0"/>
        <pt x="765" y="-184" on="0"/>
        <pt x="797" y="-215" on="0"/>
        <pt x="797" y="-259" on="0"/>
        <pt x="763" y="-290" on="0"/>
        <pt x="735" y="-290" on="1"/>
        <pt x="697" y="-290" on="0"/>
        <pt x="606" y="-176" on="0"/>
        <pt x="512" y="-14" on="0"/>
        <pt x="409" y="149" on="0"/>
        <pt x="275" y="263" on="0"/>
      </contour>
      <contour>
        <pt x="273" y="627" on="1"/>
        <pt x="215" y="626" on="1"/>
        <pt x="215" y="615" on="0"/>
        <pt x="212" y="580" on="1"/>
        <pt x="206" y="489" on="0"/>
        <pt x="206" y="348" on="1"/>
        <pt x="206" y="321" on="1"/>
        <pt x="256" y="307" on="0"/>
        <pt x="297" y="307" on="0"/>
        <pt x="333" y="314" on="0"/>
        <pt x="379" y="335" on="0"/>
        <pt x="415" y="367" on="0"/>
        <pt x="440" y="423" on="0"/>
        <pt x="440" y="459" on="1"/>
        <pt x="440" y="545" on="0"/>
        <pt x="343" y="627" on="0"/>
      </contour>
      <contour>
        <pt x="192" y="765" on="1"/>
        <pt x="192" y="771" on="0"/>
        <pt x="200" y="779" on="1"/>
        <pt x="303" y="882" on="0"/>
        <pt x="350" y="882" on="1"/>
        <pt x="365" y="882" on="0"/>
        <pt x="388" y="861" on="0"/>
        <pt x="388" y="846" on="1"/>
        <pt x="388" y="813" on="0"/>
        <pt x="351" y="806" on="1"/>
        <pt x="273" y="792" on="0"/>
        <pt x="216" y="758" on="1"/>
        <pt x="208" y="753" on="0"/>
        <pt x="204" y="753" on="1"/>
        <pt x="192" y="753" on="0"/>
      </contour>
    </TTGlyph>
    <TTGlyph name="Rcaron" xMin="60" yMin="-290" xMax="797" yMax="882">
      <contour>
        <pt x="206" y="263" on="1"/>
        <pt x="215" y="46" on="1"/>
        <pt x="215" y="26" on="0"/>
        <pt x="188" y="-6" on="0"/>
        <pt x="146" y="-6" on="0"/>
        <pt x="119" y="26" on="0"/>
        <pt x="119" y="58" on="0"/>
        <pt x="128" y="248" on="0"/>
        <pt x="128" y="426" on="0"/>
        <pt x="124" y="541" on="0"/>
        <pt x="119" y="611" on="0"/>
        <pt x="119" y="621" on="1"/>
        <pt x="101" y="621" on="1"/>
        <pt x="85" y="621" on="0"/>
        <pt x="60" y="642" on="0"/>
        <pt x="60" y="675" on="0"/>
        <pt x="85" y="696" on="0"/>
        <pt x="110" y="696" on="0"/>
        <pt x="153" y="690" on="0"/>
        <pt x="174" y="690" on="1"/>
        <pt x="322" y="696" on="1"/>
        <pt x="382" y="696" on="0"/>
        <pt x="442" y="654" on="1"/>
        <pt x="473" y="632" on="0"/>
        <pt x="511" y="550" on="0"/>
        <pt x="511" y="496" on="1"/>
        <pt x="511" y="409" on="0"/>
        <pt x="420" y="294" on="0"/>
        <pt x="356" y="267" on="1"/>
        <pt x="407" y="242" on="0"/>
        <pt x="510" y="121" on="0"/>
        <pt x="625" y="-49" on="0"/>
        <pt x="687" y="-123" on="0"/>
        <pt x="765" y="-184" on="0"/>
        <pt x="797" y="-215" on="0"/>
        <pt x="797" y="-259" on="0"/>
        <pt x="763" y="-290" on="0"/>
        <pt x="735" y="-290" on="1"/>
        <pt x="697" y="-290" on="0"/>
        <pt x="606" y="-176" on="0"/>
        <pt x="512" y="-14" on="0"/>
        <pt x="409" y="149" on="0"/>
        <pt x="275" y="263" on="0"/>
      </contour>
      <contour>
        <pt x="273" y="627" on="1"/>
        <pt x="215" y="626" on="1"/>
        <pt x="215" y="615" on="0"/>
        <pt x="212" y="580" on="1"/>
        <pt x="206" y="489" on="0"/>
        <pt x="206" y="348" on="1"/>
        <pt x="206" y="321" on="1"/>
        <pt x="256" y="307" on="0"/>
        <pt x="297" y="307" on="0"/>
        <pt x="333" y="314" on="0"/>
        <pt x="379" y="335" on="0"/>
        <pt x="415" y="367" on="0"/>
        <pt x="440" y="423" on="0"/>
        <pt x="440" y="459" on="1"/>
        <pt x="440" y="545" on="0"/>
        <pt x="343" y="627" on="0"/>
      </contour>
      <contour>
        <pt x="405" y="882" on="1"/>
        <pt x="414" y="882" on="0"/>
        <pt x="414" y="864" on="0"/>
        <pt x="408" y="856" on="1"/>
        <pt x="340" y="770" on="0"/>
        <pt x="301" y="755" on="1"/>
        <pt x="293" y="753" on="0"/>
        <pt x="289" y="753" on="1"/>
        <pt x="254" y="753" on="0"/>
        <pt x="172" y="856" on="1"/>
        <pt x="166" y="864" on="0"/>
        <pt x="166" y="882" on="0"/>
        <pt x="175" y="882" on="1"/>
        <pt x="178" y="882" on="0"/>
        <pt x="185" y="877" on="1"/>
        <pt x="237" y="837" on="0"/>
        <pt x="290" y="825" on="1"/>
        <pt x="343" y="837" on="0"/>
        <pt x="395" y="877" on="1"/>
        <pt x="402" y="882" on="0"/>
      </contour>
    </TTGlyph>
    <TTGlyph name="Rcommaaccent" xMin="60" yMin="-290" xMax="797" yMax="696">
      <contour>
        <pt x="206" y="263" on="1"/>
        <pt x="215" y="46" on="1"/>
        <pt x="215" y="26" on="0"/>
        <pt x="188" y="-6" on="0"/>
        <pt x="146" y="-6" on="0"/>
        <pt x="119" y="26" on="0"/>
        <pt x="119" y="58" on="0"/>
        <pt x="128" y="248" on="0"/>
        <pt x="128" y="426" on="0"/>
        <pt x="124" y="541" on="0"/>
        <pt x="119" y="611" on="0"/>
        <pt x="119" y="621" on="1"/>
        <pt x="101" y="621" on="1"/>
        <pt x="85" y="621" on="0"/>
        <pt x="60" y="642" on="0"/>
        <pt x="60" y="675" on="0"/>
        <pt x="85" y="696" on="0"/>
        <pt x="110" y="696" on="0"/>
        <pt x="153" y="690" on="0"/>
        <pt x="174" y="690" on="1"/>
        <pt x="322" y="696" on="1"/>
        <pt x="382" y="696" on="0"/>
        <pt x="442" y="654" on="1"/>
        <pt x="473" y="632" on="0"/>
        <pt x="511" y="550" on="0"/>
        <pt x="511" y="496" on="1"/>
        <pt x="511" y="409" on="0"/>
        <pt x="420" y="294" on="0"/>
        <pt x="356" y="267" on="1"/>
        <pt x="407" y="242" on="0"/>
        <pt x="510" y="121" on="0"/>
        <pt x="625" y="-49" on="0"/>
        <pt x="687" y="-123" on="0"/>
        <pt x="765" y="-184" on="0"/>
        <pt x="797" y="-215" on="0"/>
        <pt x="797" y="-259" on="0"/>
        <pt x="763" y="-290" on="0"/>
        <pt x="735" y="-290" on="1"/>
        <pt x="697" y="-290" on="0"/>
        <pt x="606" y="-176" on="0"/>
        <pt x="512" y="-14" on="0"/>
        <pt x="409" y="149" on="0"/>
        <pt x="275" y="263" on="0"/>
      </contour>
      <contour>
        <pt x="273" y="627" on="1"/>
        <pt x="215" y="626" on="1"/>
        <pt x="215" y="615" on="0"/>
        <pt x="212" y="580" on="1"/>
        <pt x="206" y="489" on="0"/>
        <pt x="206" y="348" on="1"/>
        <pt x="206" y="321" on="1"/>
        <pt x="256" y="307" on="0"/>
        <pt x="297" y="307" on="0"/>
        <pt x="333" y="314" on="0"/>
        <pt x="379" y="335" on="0"/>
        <pt x="415" y="367" on="0"/>
        <pt x="440" y="423" on="0"/>
        <pt x="440" y="459" on="1"/>
        <pt x="440" y="545" on="0"/>
        <pt x="343" y="627" on="0"/>
      </contour>
      <contour>
        <pt x="278" y="-290" on="1"/>
        <pt x="264" y="-290" on="0"/>
        <pt x="264" y="-275" on="1"/>
        <pt x="264" y="-267" on="0"/>
        <pt x="294" y="-228" on="0"/>
        <pt x="294" y="-188" on="0"/>
        <pt x="263" y="-150" on="0"/>
        <pt x="263" y="-109" on="0"/>
        <pt x="299" y="-76" on="0"/>
        <pt x="346" y="-76" on="0"/>
        <pt x="377" y="-104" on="0"/>
        <pt x="377" y="-183" on="0"/>
        <pt x="303" y="-290" on="0"/>
      </contour>
    </TTGlyph>
    <TTGlyph name="S" xMin="-133" yMin="-290" xMax="509" yMax="696">
      <contour>
        <pt x="395" y="567" on="1"/>
        <pt x="338" y="636" on="0"/>
        <pt x="278" y="636" on="1"/>
        <pt x="231" y="636" on="0"/>
        <pt x="167" y="572" on="0"/>
        <pt x="167" y="484" on="0"/>
        <pt x="218" y="426" on="0"/>
        <pt x="294" y="388" on="0"/>
        <pt x="382" y="337" on="0"/>
        <pt x="458" y="282" on="0"/>
        <pt x="509" y="187" on="0"/>
        <pt x="509" y="49" on="0"/>
        <pt x="455" y="-87" on="0"/>
        <pt x="367" y="-185" on="0"/>
        <pt x="310" y="-220" on="1"/>
        <pt x="196" y="-290" on="0"/>
        <pt x="73" y="-290" on="1"/>
        <pt x="-10" y="-290" on="0"/>
        <pt x="-133" y="-208" on="0"/>
        <pt x="-133" y="-104" on="0"/>
        <pt x="-84" y="-104" on="1"/>
        <pt x="-65" y="-104" on="0"/>
        <pt x="-7" y="-157" on="1"/>
        <pt x="15" y="-177" on="0"/>
        <pt x="92" y="-210" on="0"/>
        <pt x="187" y="-210" on="0"/>
        <pt x="291" y="-174" on="0"/>
        <pt x="382" y="-107" on="0"/>
        <pt x="438" y="4" on="0"/>
        <pt x="438" y="141" on="0"/>
        <pt x="366" y="237" on="0"/>
        <pt x="264" y="291" on="0"/>
        <pt x="162" y="342" on="0"/>
        <pt x="90" y="422" on="0"/>
        <pt x="90" y="537" on="0"/>
        <pt x="141" y="627" on="0"/>
        <pt x="180" y="650" on="1"/>
        <pt x="254" y="696" on="0"/>
        <pt x="400" y="696" on="0"/>
        <pt x="492" y="628" on="0"/>
        <pt x="492" y="584" on="1"/>
        <pt x="492" y="558" on="0"/>
        <pt x="466" y="531" on="0"/>
        <pt x="432" y="531" on="0"/>
        <pt x="409" y="550" on="0"/>
      </contour>
    </TTGlyph>
    <TTGlyph name="Scaron" xMin="-133" yMin="-290" xMax="509" yMax="882">
      <component glyphName="S" x="0" y="0" flags="0x1004"/>
      <component glyphName="caron" x="127" y="240" flags="0x1004"/>
    </TTGlyph>
    <TTGlyph name="T" xMin="15" yMin="-6" xMax="554" yMax="696">
      <contour>
        <pt x="263" y="627" on="1"/>
        <pt x="263" y="627" on="0"/>
        <pt x="210" y="628" on="1"/>
        <pt x="70" y="628" on="0"/>
        <pt x="70" y="546" on="1"/>
        <pt x="70" y="490" on="0"/>
        <pt x="127" y="479" on="1"/>
        <pt x="165" y="472" on="0"/>
        <pt x="165" y="439" on="1"/>
        <pt x="165" y="421" on="0"/>
        <pt x="140" y="400" on="0"/>
        <pt x="119" y="400" on="1"/>
        <pt x="75" y="400" on="0"/>
        <pt x="15" y="475" on="0"/>
        <pt x="15" y="523" on="1"/>
        <pt x="15" y="696" on="0"/>
        <pt x="311" y="696" on="1"/>
        <pt x="513" y="696" on="1"/>
        <pt x="529" y="696" on="0"/>
        <pt x="554" y="675" on="0"/>
        <pt x="554" y="639" on="0"/>
        <pt x="529" y="618" on="0"/>
        <pt x="513" y="618" on="1"/>
        <pt x="358" y="623" on="1"/>
        <pt x="350" y="451" on="0"/>
        <pt x="350" y="248" on="0"/>
        <pt x="359" y="58" on="0"/>
        <pt x="359" y="26" on="0"/>
        <pt x="332" y="-6" on="0"/>
        <pt x="290" y="-6" on="0"/>
        <pt x="263" y="26" on="0"/>
        <pt x="263" y="58" on="0"/>
        <pt x="272" y="248" on="0"/>
        <pt x="272" y="434" on="0"/>
      </contour>
    </TTGlyph>
    <TTGlyph name="Thorn" xMin="60" yMin="-6" xMax="522" yMax="697">
      <contour>
        <pt x="184" y="646" on="1"/>
        <pt x="184" y="646" on="0"/>
        <pt x="176" y="549" on="1"/>
        <pt x="221" y="549" on="0"/>
        <pt x="296" y="556" on="0"/>
        <pt x="328" y="556" on="1"/>
        <pt x="404" y="556" on="0"/>
        <pt x="522" y="450" on="0"/>
        <pt x="522" y="368" on="1"/>
        <pt x="522" y="306" on="0"/>
        <pt x="445" y="194" on="0"/>
        <pt x="336" y="132" on="0"/>
        <pt x="244" y="132" on="0"/>
        <pt x="201" y="161" on="0"/>
        <pt x="201" y="207" on="0"/>
        <pt x="228" y="234" on="0"/>
        <pt x="255" y="234" on="0"/>
        <pt x="317" y="210" on="0"/>
        <pt x="389" y="210" on="0"/>
        <pt x="456" y="269" on="0"/>
        <pt x="456" y="403" on="0"/>
        <pt x="352" y="487" on="0"/>
        <pt x="235" y="487" on="0"/>
        <pt x="173" y="485" on="1"/>
        <pt x="169" y="325" on="0"/>
        <pt x="169" y="81" on="1"/>
        <pt x="169" y="-6" on="0"/>
        <pt x="114" y="-6" on="1"/>
        <pt x="93" y="-6" on="0"/>
        <pt x="60" y="26" on="0"/>
        <pt x="60" y="75" on="0"/>
        <pt x="103" y="135" on="0"/>
        <pt x="103" y="206" on="0"/>
        <pt x="97" y="408" on="0"/>
        <pt x="88" y="612" on="0"/>
        <pt x="88" y="666" on="0"/>
        <pt x="115" y="697" on="0"/>
        <pt x="157" y="697" on="0"/>
        <pt x="184" y="666" on="0"/>
      </contour>
    </TTGlyph>
    <TTGlyph name="U" xMin="30" yMin="-6" xMax="601" yMax="696">
      <contour>
        <pt x="229" y="696" on="0"/>
        <pt x="296" y="623" on="0"/>
        <pt x="296" y="536" on="0"/>
        <pt x="249" y="447" on="0"/>
        <pt x="194" y="375" on="0"/>
        <pt x="147" y="275" on="0"/>
        <pt x="147" y="228" on="1"/>
        <pt x="147" y="145" on="0"/>
        <pt x="257" y="63" on="0"/>
        <pt x="340" y="63" on="1"/>
        <pt x="383" y="63" on="0"/>
        <pt x="480" y="102" on="0"/>
        <pt x="508" y="125" on="1"/>
        <pt x="514" y="275" on="0"/>
        <pt x="514" y="462" on="0"/>
        <pt x="505" y="639" on="0"/>
        <pt x="505" y="642" on="1"/>
        <pt x="505" y="663" on="0"/>
        <pt x="532" y="696" on="0"/>
        <pt x="574" y="696" on="0"/>
        <pt x="601" y="663" on="0"/>
        <pt x="601" y="642" on="1"/>
        <pt x="601" y="639" on="0"/>
        <pt x="592" y="462" on="0"/>
        <pt x="592" y="248" on="0"/>
        <pt x="601" y="58" on="0"/>
        <pt x="601" y="26" on="0"/>
        <pt x="574" y="-6" on="0"/>
        <pt x="532" y="-6" on="0"/>
        <pt x="505" y="26" on="0"/>
        <pt x="505" y="46" on="1"/>
        <pt x="505" y="73" on="1"/>
        <pt x="410" y="-6" on="0"/>
        <pt x="201" y="-6" on="0"/>
        <pt x="64" y="102" on="0"/>
        <pt x="64" y="194" on="1"/>
        <pt x="64" y="254" on="0"/>
        <pt x="113" y="368" on="0"/>
        <pt x="142" y="404" on="1"/>
        <pt x="220" y="499" on="0"/>
        <pt x="220" y="552" on="1"/>
        <pt x="220" y="620" on="0"/>
        <pt x="149" y="620" on="1"/>
        <pt x="121" y="620" on="0"/>
        <pt x="86" y="576" on="0"/>
        <pt x="86" y="538" on="1"/>
        <pt x="86" y="525" on="0"/>
        <pt x="69" y="506" on="0"/>
        <pt x="45" y="506" on="0"/>
        <pt x="30" y="525" on="0"/>
        <pt x="30" y="538" on="1"/>
        <pt x="30" y="605" on="0"/>
        <pt x="114" y="696" on="0"/>
      </contour>
    </TTGlyph>
    <TTGlyph name="Uacute" xMin="30" yMin="-6" xMax="601" yMax="879">
      <contour>
        <pt x="229" y="696" on="0"/>
        <pt x="296" y="623" on="0"/>
        <pt x="296" y="536" on="0"/>
        <pt x="249" y="447" on="0"/>
        <pt x="194" y="375" on="0"/>
        <pt x="147" y="275" on="0"/>
        <pt x="147" y="228" on="1"/>
        <pt x="147" y="145" on="0"/>
        <pt x="257" y="63" on="0"/>
        <pt x="340" y="63" on="1"/>
        <pt x="383" y="63" on="0"/>
        <pt x="480" y="102" on="0"/>
        <pt x="508" y="125" on="1"/>
        <pt x="514" y="275" on="0"/>
        <pt x="514" y="462" on="0"/>
        <pt x="505" y="639" on="0"/>
        <pt x="505" y="642" on="1"/>
        <pt x="505" y="663" on="0"/>
        <pt x="532" y="696" on="0"/>
        <pt x="574" y="696" on="0"/>
        <pt x="601" y="663" on="0"/>
        <pt x="601" y="642" on="1"/>
        <pt x="601" y="639" on="0"/>
        <pt x="592" y="462" on="0"/>
        <pt x="592" y="248" on="0"/>
        <pt x="601" y="58" on="0"/>
        <pt x="601" y="26" on="0"/>
        <pt x="574" y="-6" on="0"/>
        <pt x="532" y="-6" on="0"/>
        <pt x="505" y="26" on="0"/>
        <pt x="505" y="46" on="1"/>
        <pt x="505" y="73" on="1"/>
        <pt x="410" y="-6" on="0"/>
        <pt x="201" y="-6" on="0"/>
        <pt x="64" y="102" on="0"/>
        <pt x="64" y="194" on="1"/>
        <pt x="64" y="254" on="0"/>
        <pt x="113" y="368" on="0"/>
        <pt x="142" y="404" on="1"/>
        <pt x="220" y="499" on="0"/>
        <pt x="220" y="552" on="1"/>
        <pt x="220" y="620" on="0"/>
        <pt x="149" y="620" on="1"/>
        <pt x="121" y="620" on="0"/>
        <pt x="86" y="576" on="0"/>
        <pt x="86" y="538" on="1"/>
        <pt x="86" y="525" on="0"/>
        <pt x="69" y="506" on="0"/>
        <pt x="45" y="506" on="0"/>
        <pt x="30" y="525" on="0"/>
        <pt x="30" y="538" on="1"/>
        <pt x="30" y="605" on="0"/>
        <pt x="114" y="696" on="0"/>
      </contour>
      <contour>
        <pt x="272" y="762" on="1"/>
        <pt x="272" y="768" on="0"/>
        <pt x="280" y="776" on="1"/>
        <pt x="383" y="879" on="0"/>
        <pt x="430" y="879" on="1"/>
        <pt x="445" y="879" on="0"/>
        <pt x="468" y="858" on="0"/>
        <pt x="468" y="843" on="1"/>
        <pt x="468" y="810" on="0"/>
        <pt x="431" y="803" on="1"/>
        <pt x="353" y="789" on="0"/>
        <pt x="296" y="755" on="1"/>
        <pt x="288" y="750" on="0"/>
        <pt x="284" y="750" on="1"/>
        <pt x="272" y="750" on="0"/>
      </contour>
    </TTGlyph>
    <TTGlyph name="Ucircumflex" xMin="30" yMin="-6" xMax="601" yMax="879">
      <component glyphName="U" x="0" y="0" flags="0x1004"/>
      <component glyphName="circumflex" x="163" y="237" flags="0x1004"/>
    </TTGlyph>
    <TTGlyph name="Udieresis" xMin="30" yMin="-6" xMax="601" yMax="881">
      <contour>
        <pt x="229" y="696" on="0"/>
        <pt x="296" y="623" on="0"/>
        <pt x="296" y="536" on="0"/>
        <pt x="249" y="447" on="0"/>
        <pt x="194" y="375" on="0"/>
        <pt x="147" y="275" on="0"/>
        <pt x="147" y="228" on="1"/>
        <pt x="147" y="145" on="0"/>
        <pt x="257" y="63" on="0"/>
        <pt x="340" y="63" on="1"/>
        <pt x="383" y="63" on="0"/>
        <pt x="480" y="102" on="0"/>
        <pt x="508" y="125" on="1"/>
        <pt x="514" y="275" on="0"/>
        <pt x="514" y="462" on="0"/>
        <pt x="505" y="639" on="0"/>
        <pt x="505" y="642" on="1"/>
        <pt x="505" y="663" on="0"/>
        <pt x="532" y="696" on="0"/>
        <pt x="574" y="696" on="0"/>
        <pt x="601" y="663" on="0"/>
        <pt x="601" y="642" on="1"/>
        <pt x="601" y="639" on="0"/>
        <pt x="592" y="462" on="0"/>
        <pt x="592" y="248" on="0"/>
        <pt x="601" y="58" on="0"/>
        <pt x="601" y="26" on="0"/>
        <pt x="574" y="-6" on="0"/>
        <pt x="532" y="-6" on="0"/>
        <pt x="505" y="26" on="0"/>
        <pt x="505" y="46" on="1"/>
        <pt x="505" y="73" on="1"/>
        <pt x="410" y="-6" on="0"/>
        <pt x="201" y="-6" on="0"/>
        <pt x="64" y="102" on="0"/>
        <pt x="64" y="194" on="1"/>
        <pt x="64" y="254" on="0"/>
        <pt x="113" y="368" on="0"/>
        <pt x="142" y="404" on="1"/>
        <pt x="220" y="499" on="0"/>
        <pt x="220" y="552" on="1"/>
        <pt x="220" y="620" on="0"/>
        <pt x="149" y="620" on="1"/>
        <pt x="121" y="620" on="0"/>
        <pt x="86" y="576" on="0"/>
        <pt x="86" y="538" on="1"/>
        <pt x="86" y="525" on="0"/>
        <pt x="69" y="506" on="0"/>
        <pt x="45" y="506" on="0"/>
        <pt x="30" y="525" on="0"/>
        <pt x="30" y="538" on="1"/>
        <pt x="30" y="605" on="0"/>
        <pt x="114" y="696" on="0"/>
      </contour>
      <contour>
        <pt x="409" y="788" on="0"/>
        <pt x="386" y="809" on="0"/>
        <pt x="386" y="851" on="0"/>
        <pt x="415" y="881" on="0"/>
        <pt x="455" y="881" on="0"/>
        <pt x="479" y="859" on="0"/>
        <pt x="479" y="817" on="0"/>
        <pt x="449" y="788" on="0"/>
      </contour>
      <contour>
        <pt x="219" y="788" on="0"/>
        <pt x="196" y="809" on="0"/>
        <pt x="196" y="851" on="0"/>
        <pt x="225" y="881" on="0"/>
        <pt x="265" y="881" on="0"/>
        <pt x="289" y="859" on="0"/>
        <pt x="289" y="817" on="0"/>
        <pt x="259" y="788" on="0"/>
      </contour>
    </TTGlyph>
    <TTGlyph name="Ugrave" xMin="30" yMin="-6" xMax="601" yMax="879">
      <component glyphName="U" x="0" y="0" flags="0x1004"/>
      <component glyphName="grave" x="152" y="237" flags="0x1004"/>
    </TTGlyph>
    <TTGlyph name="V" xMin="30" yMin="-6" xMax="620" yMax="696">
      <contour>
        <pt x="537" y="484" on="1"/>
        <pt x="537" y="612" on="0"/>
        <pt x="432" y="612" on="1"/>
        <pt x="389" y="612" on="0"/>
        <pt x="329" y="572" on="0"/>
        <pt x="329" y="535" on="1"/>
        <pt x="329" y="512" on="0"/>
        <pt x="354" y="493" on="0"/>
        <pt x="400" y="482" on="0"/>
        <pt x="418" y="475" on="0"/>
        <pt x="433" y="455" on="0"/>
        <pt x="433" y="417" on="0"/>
        <pt x="403" y="392" on="0"/>
        <pt x="381" y="392" on="1"/>
        <pt x="342" y="392" on="0"/>
        <pt x="274" y="460" on="0"/>
        <pt x="274" y="507" on="1"/>
        <pt x="274" y="571" on="0"/>
        <pt x="385" y="696" on="0"/>
        <pt x="539" y="696" on="0"/>
        <pt x="620" y="602" on="0"/>
        <pt x="620" y="525" on="1"/>
        <pt x="620" y="405" on="0"/>
        <pt x="437" y="83" on="0"/>
        <pt x="343" y="10" on="1"/>
        <pt x="322" y="-6" on="0"/>
        <pt x="307" y="-6" on="1"/>
        <pt x="274" y="-6" on="0"/>
        <pt x="259" y="33" on="1"/>
        <pt x="147" y="327" on="1"/>
        <pt x="127" y="378" on="0"/>
        <pt x="81" y="489" on="0"/>
        <pt x="59" y="543" on="0"/>
        <pt x="48" y="571" on="1"/>
        <pt x="30" y="620" on="0"/>
        <pt x="30" y="665" on="0"/>
        <pt x="52" y="696" on="0"/>
        <pt x="72" y="696" on="1"/>
        <pt x="107" y="696" on="0"/>
        <pt x="124" y="655" on="1"/>
        <pt x="127" y="647" on="0"/>
        <pt x="140" y="606" on="1"/>
        <pt x="259" y="252" on="0"/>
        <pt x="338" y="84" on="1"/>
        <pt x="414" y="151" on="0"/>
        <pt x="537" y="378" on="0"/>
      </contour>
    </TTGlyph>
    <TTGlyph name="W" xMin="30" yMin="-6" xMax="844" yMax="696">
      <contour>
        <pt x="761" y="488" on="1"/>
        <pt x="761" y="612" on="0"/>
        <pt x="672" y="612" on="1"/>
        <pt x="632" y="612" on="0"/>
        <pt x="573" y="571" on="0"/>
        <pt x="573" y="534" on="1"/>
        <pt x="573" y="511" on="0"/>
        <pt x="597" y="494" on="0"/>
        <pt x="653" y="480" on="0"/>
        <pt x="677" y="462" on="0"/>
        <pt x="677" y="417" on="0"/>
        <pt x="647" y="392" on="0"/>
        <pt x="625" y="392" on="1"/>
        <pt x="586" y="392" on="0"/>
        <pt x="518" y="465" on="0"/>
        <pt x="518" y="584" on="0"/>
        <pt x="616" y="696" on="0"/>
        <pt x="768" y="696" on="0"/>
        <pt x="844" y="604" on="0"/>
        <pt x="844" y="528" on="1"/>
        <pt x="844" y="408" on="0"/>
        <pt x="672" y="82" on="0"/>
        <pt x="587" y="10" on="1"/>
        <pt x="569" y="-6" on="0"/>
        <pt x="551" y="-6" on="1"/>
        <pt x="519" y="-6" on="0"/>
        <pt x="503" y="33" on="1"/>
        <pt x="500" y="39" on="0"/>
        <pt x="494" y="57" on="1"/>
        <pt x="471" y="127" on="0"/>
        <pt x="454" y="174" on="1"/>
        <pt x="385" y="62" on="0"/>
        <pt x="323" y="10" on="1"/>
        <pt x="305" y="-6" on="0"/>
        <pt x="287" y="-6" on="1"/>
        <pt x="254" y="-6" on="0"/>
        <pt x="239" y="33" on="1"/>
        <pt x="237" y="39" on="0"/>
        <pt x="203" y="137" on="0"/>
        <pt x="155" y="276" on="0"/>
        <pt x="119" y="376" on="0"/>
        <pt x="79" y="483" on="0"/>
        <pt x="58" y="539" on="0"/>
        <pt x="48" y="568" on="1"/>
        <pt x="30" y="619" on="0"/>
        <pt x="30" y="665" on="0"/>
        <pt x="52" y="696" on="0"/>
        <pt x="72" y="696" on="1"/>
        <pt x="109" y="696" on="0"/>
        <pt x="124" y="655" on="1"/>
        <pt x="127" y="648" on="0"/>
        <pt x="138" y="608" on="1"/>
        <pt x="196" y="412" on="0"/>
        <pt x="313" y="84" on="1"/>
        <pt x="379" y="154" on="0"/>
        <pt x="429" y="248" on="1"/>
        <pt x="419" y="273" on="0"/>
        <pt x="380" y="386" on="0"/>
        <pt x="339" y="499" on="0"/>
        <pt x="318" y="554" on="0"/>
        <pt x="309" y="580" on="1"/>
        <pt x="294" y="622" on="0"/>
        <pt x="294" y="666" on="0"/>
        <pt x="316" y="696" on="0"/>
        <pt x="336" y="696" on="1"/>
        <pt x="373" y="696" on="0"/>
        <pt x="388" y="655" on="1"/>
        <pt x="391" y="648" on="0"/>
        <pt x="402" y="608" on="1"/>
        <pt x="460" y="412" on="0"/>
        <pt x="577" y="84" on="1"/>
        <pt x="647" y="158" on="0"/>
        <pt x="761" y="379" on="0"/>
      </contour>
    </TTGlyph>
    <TTGlyph name="X" xMin="30" yMin="-290" xMax="924" yMax="696">
      <contour>
        <pt x="79" y="-5" on="1"/>
        <pt x="57" y="-5" on="0"/>
        <pt x="30" y="26" on="0"/>
        <pt x="30" y="60" on="0"/>
        <pt x="52" y="104" on="0"/>
        <pt x="97" y="166" on="0"/>
        <pt x="143" y="224" on="0"/>
        <pt x="216" y="316" on="0"/>
        <pt x="242" y="350" on="1"/>
        <pt x="204" y="401" on="0"/>
        <pt x="80" y="553" on="0"/>
        <pt x="30" y="626" on="0"/>
        <pt x="30" y="666" on="0"/>
        <pt x="51" y="696" on="0"/>
        <pt x="103" y="696" on="0"/>
        <pt x="130" y="657" on="1"/>
        <pt x="236" y="485" on="0"/>
        <pt x="288" y="414" on="1"/>
        <pt x="338" y="482" on="0"/>
        <pt x="444" y="651" on="0"/>
        <pt x="449" y="658" on="1"/>
        <pt x="473" y="696" on="0"/>
        <pt x="495" y="696" on="1"/>
        <pt x="538" y="696" on="0"/>
        <pt x="538" y="653" on="1"/>
        <pt x="538" y="624" on="0"/>
        <pt x="490" y="562" on="1"/>
        <pt x="446" y="507" on="0"/>
        <pt x="349" y="393" on="0"/>
        <pt x="326" y="364" on="1"/>
        <pt x="348" y="336" on="0"/>
        <pt x="452" y="201" on="0"/>
        <pt x="500" y="140" on="0"/>
        <pt x="586" y="30" on="0"/>
        <pt x="637" y="-28" on="0"/>
        <pt x="670" y="-63" on="1"/>
        <pt x="729" y="-127" on="0"/>
        <pt x="802" y="-167" on="0"/>
        <pt x="889" y="-199" on="0"/>
        <pt x="924" y="-221" on="0"/>
        <pt x="924" y="-259" on="0"/>
        <pt x="889" y="-290" on="0"/>
        <pt x="826" y="-290" on="0"/>
        <pt x="751" y="-260" on="0"/>
        <pt x="687" y="-219" on="0"/>
        <pt x="605" y="-137" on="0"/>
        <pt x="547" y="-72" on="0"/>
        <pt x="456" y="48" on="0"/>
        <pt x="430" y="85" on="1"/>
        <pt x="357" y="186" on="0"/>
        <pt x="278" y="300" on="1"/>
        <pt x="181" y="164" on="0"/>
        <pt x="130" y="34" on="1"/>
        <pt x="115" y="-5" on="0"/>
      </contour>
    </TTGlyph>
    <TTGlyph name="Y" xMin="-266" yMin="-290" xMax="599" yMax="696">
      <contour>
        <pt x="-216" y="-199" on="1"/>
        <pt x="-163" y="-207" on="1"/>
        <pt x="-103" y="-207" on="0"/>
        <pt x="86" y="-52" on="0"/>
        <pt x="256" y="156" on="0"/>
        <pt x="307" y="249" on="1"/>
        <pt x="213" y="388" on="0"/>
        <pt x="86" y="549" on="0"/>
        <pt x="70" y="570" on="1"/>
        <pt x="30" y="621" on="0"/>
        <pt x="30" y="652" on="1"/>
        <pt x="30" y="696" on="0"/>
        <pt x="74" y="696" on="1"/>
        <pt x="93" y="696" on="0"/>
        <pt x="131" y="659" on="0"/>
        <pt x="159" y="611" on="0"/>
        <pt x="185" y="565" on="1"/>
        <pt x="266" y="422" on="0"/>
        <pt x="353" y="320" on="1"/>
        <pt x="420" y="429" on="0"/>
        <pt x="492" y="596" on="1"/>
        <pt x="517" y="655" on="0"/>
        <pt x="518" y="657" on="1"/>
        <pt x="538" y="696" on="0"/>
        <pt x="565" y="696" on="1"/>
        <pt x="599" y="696" on="0"/>
        <pt x="599" y="657" on="1"/>
        <pt x="599" y="633" on="0"/>
        <pt x="547" y="533" on="0"/>
        <pt x="425" y="326" on="0"/>
        <pt x="385" y="252" on="1"/>
        <pt x="251" y="27" on="0"/>
        <pt x="106" y="-124" on="1"/>
        <pt x="31" y="-202" on="0"/>
        <pt x="-124" y="-290" on="0"/>
        <pt x="-193" y="-290" on="1"/>
        <pt x="-226" y="-290" on="0"/>
        <pt x="-266" y="-263" on="0"/>
        <pt x="-266" y="-225" on="0"/>
        <pt x="-241" y="-199" on="0"/>
      </contour>
    </TTGlyph>
    <TTGlyph name="Yacute" xMin="-266" yMin="-290" xMax="599" yMax="880">
      <component glyphName="Y" x="0" y="0" flags="0x1004"/>
      <component glyphName="acute" x="201" y="238" flags="0x1004"/>
    </TTGlyph>
    <TTGlyph name="Z" xMin="50" yMin="-140" xMax="632" yMax="696">
      <contour>
        <pt x="316" y="690" on="1"/>
        <pt x="518" y="696" on="1"/>
        <pt x="534" y="696" on="0"/>
        <pt x="559" y="675" on="0"/>
        <pt x="559" y="641" on="0"/>
        <pt x="548" y="603" on="0"/>
        <pt x="518" y="552" on="0"/>
        <pt x="495" y="515" on="0"/>
        <pt x="441" y="446" on="0"/>
        <pt x="416" y="413" on="0"/>
        <pt x="347" y="329" on="0"/>
        <pt x="336" y="315" on="1"/>
        <pt x="209" y="170" on="0"/>
        <pt x="132" y="44" on="1"/>
        <pt x="213" y="1" on="0"/>
        <pt x="408" y="-66" on="0"/>
        <pt x="520" y="-66" on="0"/>
        <pt x="577" y="-28" on="0"/>
        <pt x="577" y="0" on="1"/>
        <pt x="577" y="45" on="0"/>
        <pt x="522" y="55" on="1"/>
        <pt x="502" y="58" on="0"/>
        <pt x="473" y="83" on="0"/>
        <pt x="473" y="124" on="0"/>
        <pt x="503" y="149" on="0"/>
        <pt x="524" y="149" on="1"/>
        <pt x="565" y="149" on="0"/>
        <pt x="632" y="82" on="0"/>
        <pt x="632" y="28" on="1"/>
        <pt x="632" y="-42" on="0"/>
        <pt x="520" y="-140" on="0"/>
        <pt x="356" y="-140" on="0"/>
        <pt x="137" y="-52" on="0"/>
        <pt x="79" y="-5" on="1"/>
        <pt x="50" y="18" on="0"/>
        <pt x="50" y="46" on="1"/>
        <pt x="50" y="65" on="0"/>
        <pt x="85" y="120" on="0"/>
        <pt x="108" y="153" on="0"/>
        <pt x="156" y="213" on="0"/>
        <pt x="172" y="232" on="1"/>
        <pt x="241" y="317" on="0"/>
        <pt x="273" y="357" on="1"/>
        <pt x="429" y="549" on="0"/>
        <pt x="455" y="619" on="1"/>
        <pt x="345" y="624" on="0"/>
        <pt x="316" y="624" on="1"/>
        <pt x="114" y="618" on="1"/>
        <pt x="98" y="618" on="0"/>
        <pt x="73" y="639" on="0"/>
        <pt x="73" y="675" on="0"/>
        <pt x="98" y="696" on="0"/>
        <pt x="114" y="696" on="1"/>
      </contour>
    </TTGlyph>
    <TTGlyph name="Zcaron" xMin="50" yMin="-140" xMax="632" yMax="882">
      <contour>
        <pt x="316" y="690" on="1"/>
        <pt x="518" y="696" on="1"/>
        <pt x="534" y="696" on="0"/>
        <pt x="559" y="675" on="0"/>
        <pt x="559" y="641" on="0"/>
        <pt x="548" y="603" on="0"/>
        <pt x="518" y="552" on="0"/>
        <pt x="495" y="515" on="0"/>
        <pt x="441" y="446" on="0"/>
        <pt x="416" y="413" on="0"/>
        <pt x="347" y="329" on="0"/>
        <pt x="336" y="315" on="1"/>
        <pt x="209" y="170" on="0"/>
        <pt x="132" y="44" on="1"/>
        <pt x="213" y="1" on="0"/>
        <pt x="408" y="-66" on="0"/>
        <pt x="520" y="-66" on="0"/>
        <pt x="577" y="-28" on="0"/>
        <pt x="577" y="0" on="1"/>
        <pt x="577" y="45" on="0"/>
        <pt x="522" y="55" on="1"/>
        <pt x="502" y="58" on="0"/>
        <pt x="473" y="83" on="0"/>
        <pt x="473" y="124" on="0"/>
        <pt x="503" y="149" on="0"/>
        <pt x="524" y="149" on="1"/>
        <pt x="565" y="149" on="0"/>
        <pt x="632" y="82" on="0"/>
        <pt x="632" y="28" on="1"/>
        <pt x="632" y="-42" on="0"/>
        <pt x="520" y="-140" on="0"/>
        <pt x="356" y="-140" on="0"/>
        <pt x="137" y="-52" on="0"/>
        <pt x="79" y="-5" on="1"/>
        <pt x="50" y="18" on="0"/>
        <pt x="50" y="46" on="1"/>
        <pt x="50" y="65" on="0"/>
        <pt x="85" y="120" on="0"/>
        <pt x="108" y="153" on="0"/>
        <pt x="156" y="213" on="0"/>
        <pt x="172" y="232" on="1"/>
        <pt x="241" y="317" on="0"/>
        <pt x="273" y="357" on="1"/>
        <pt x="429" y="549" on="0"/>
        <pt x="455" y="619" on="1"/>
        <pt x="345" y="624" on="0"/>
        <pt x="316" y="624" on="1"/>
        <pt x="114" y="618" on="1"/>
        <pt x="98" y="618" on="0"/>
        <pt x="73" y="639" on="0"/>
        <pt x="73" y="675" on="0"/>
        <pt x="98" y="696" on="0"/>
        <pt x="114" y="696" on="1"/>
      </contour>
      <contour>
        <pt x="421" y="882" on="1"/>
        <pt x="430" y="882" on="0"/>
        <pt x="430" y="864" on="0"/>
        <pt x="424" y="856" on="1"/>
        <pt x="356" y="770" on="0"/>
        <pt x="317" y="755" on="1"/>
        <pt x="309" y="753" on="0"/>
        <pt x="305" y="753" on="1"/>
        <pt x="270" y="753" on="0"/>
        <pt x="188" y="856" on="1"/>
        <pt x="182" y="864" on="0"/>
        <pt x="182" y="882" on="0"/>
        <pt x="191" y="882" on="1"/>
        <pt x="194" y="882" on="0"/>
        <pt x="201" y="877" on="1"/>
        <pt x="253" y="837" on="0"/>
        <pt x="306" y="825" on="1"/>
        <pt x="359" y="837" on="0"/>
        <pt x="411" y="877" on="1"/>
        <pt x="418" y="882" on="0"/>
      </contour>
    </TTGlyph>
    <TTGlyph name="a" xMin="45" yMin="-6" xMax="434" yMax="456">
      <contour>
        <pt x="389" y="116" on="0"/>
        <pt x="434" y="55" on="0"/>
        <pt x="434" y="17" on="0"/>
        <pt x="414" y="-6" on="0"/>
        <pt x="397" y="-6" on="1"/>
        <pt x="356" y="-6" on="0"/>
        <pt x="324" y="79" on="1"/>
        <pt x="316" y="101" on="1"/>
        <pt x="265" y="-6" on="0"/>
        <pt x="163" y="-6" on="1"/>
        <pt x="112" y="-6" on="0"/>
        <pt x="45" y="59" on="0"/>
        <pt x="45" y="108" on="1"/>
        <pt x="45" y="184" on="0"/>
        <pt x="149" y="294" on="0"/>
        <pt x="233" y="298" on="1"/>
        <pt x="213" y="333" on="0"/>
        <pt x="164" y="368" on="0"/>
        <pt x="124" y="374" on="0"/>
        <pt x="89" y="375" on="0"/>
        <pt x="69" y="389" on="0"/>
        <pt x="69" y="430" on="0"/>
        <pt x="102" y="456" on="0"/>
        <pt x="125" y="456" on="1"/>
        <pt x="190" y="456" on="0"/>
        <pt x="316" y="326" on="0"/>
        <pt x="363" y="187" on="1"/>
        <pt x="382" y="134" on="1"/>
      </contour>
      <contour>
        <pt x="172" y="245" on="0"/>
        <pt x="115" y="197" on="0"/>
        <pt x="115" y="121" on="0"/>
        <pt x="166" y="70" on="0"/>
        <pt x="238" y="70" on="0"/>
        <pt x="290" y="121" on="0"/>
        <pt x="290" y="156" on="1"/>
        <pt x="290" y="181" on="0"/>
        <pt x="272" y="224" on="0"/>
        <pt x="270" y="229" on="1"/>
        <pt x="244" y="245" on="0"/>
      </contour>
    </TTGlyph>
    <TTGlyph name="aacute" xMin="45" yMin="-6" xMax="434" yMax="642">
      <component glyphName="a" x="0" y="0" flags="0x1004"/>
      <component glyphName="acute" x="120" y="0" flags="0x1004"/>
    </TTGlyph>
    <TTGlyph name="acircumflex" xMin="45" yMin="-6" xMax="434" yMax="642">
      <contour>
        <pt x="389" y="116" on="0"/>
        <pt x="434" y="55" on="0"/>
        <pt x="434" y="17" on="0"/>
        <pt x="414" y="-6" on="0"/>
        <pt x="397" y="-6" on="1"/>
        <pt x="356" y="-6" on="0"/>
        <pt x="324" y="79" on="1"/>
        <pt x="316" y="101" on="1"/>
        <pt x="265" y="-6" on="0"/>
        <pt x="163" y="-6" on="1"/>
        <pt x="112" y="-6" on="0"/>
        <pt x="45" y="59" on="0"/>
        <pt x="45" y="108" on="1"/>
        <pt x="45" y="184" on="0"/>
        <pt x="149" y="294" on="0"/>
        <pt x="233" y="298" on="1"/>
        <pt x="213" y="333" on="0"/>
        <pt x="164" y="368" on="0"/>
        <pt x="124" y="374" on="0"/>
        <pt x="89" y="375" on="0"/>
        <pt x="69" y="389" on="0"/>
        <pt x="69" y="430" on="0"/>
        <pt x="102" y="456" on="0"/>
        <pt x="125" y="456" on="1"/>
        <pt x="190" y="456" on="0"/>
        <pt x="316" y="326" on="0"/>
        <pt x="363" y="187" on="1"/>
        <pt x="382" y="134" on="1"/>
      </contour>
      <contour>
        <pt x="172" y="245" on="0"/>
        <pt x="115" y="197" on="0"/>
        <pt x="115" y="121" on="0"/>
        <pt x="166" y="70" on="0"/>
        <pt x="238" y="70" on="0"/>
        <pt x="290" y="121" on="0"/>
        <pt x="290" y="156" on="1"/>
        <pt x="290" y="181" on="0"/>
        <pt x="272" y="224" on="0"/>
        <pt x="270" y="229" on="1"/>
        <pt x="244" y="245" on="0"/>
      </contour>
      <contour>
        <pt x="322" y="539" on="1"/>
        <pt x="328" y="532" on="0"/>
        <pt x="328" y="513" on="0"/>
        <pt x="319" y="513" on="1"/>
        <pt x="316" y="513" on="0"/>
        <pt x="309" y="518" on="1"/>
        <pt x="257" y="558" on="0"/>
        <pt x="204" y="570" on="1"/>
        <pt x="151" y="558" on="0"/>
        <pt x="99" y="518" on="1"/>
        <pt x="92" y="513" on="0"/>
        <pt x="89" y="513" on="1"/>
        <pt x="80" y="513" on="0"/>
        <pt x="80" y="532" on="0"/>
        <pt x="86" y="539" on="1"/>
        <pt x="165" y="642" on="0"/>
        <pt x="240" y="642" on="0"/>
      </contour>
    </TTGlyph>
    <TTGlyph name="acute" xMin="50" yMin="513" xMax="246" yMax="642">
      <contour>
        <pt x="50" y="525" on="1"/>
        <pt x="50" y="531" on="0"/>
        <pt x="58" y="539" on="1"/>
        <pt x="161" y="642" on="0"/>
        <pt x="208" y="642" on="1"/>
        <pt x="223" y="642" on="0"/>
        <pt x="246" y="621" on="0"/>
        <pt x="246" y="606" on="1"/>
        <pt x="246" y="573" on="0"/>
        <pt x="209" y="566" on="1"/>
        <pt x="131" y="552" on="0"/>
        <pt x="74" y="518" on="1"/>
        <pt x="66" y="513" on="0"/>
        <pt x="62" y="513" on="1"/>
        <pt x="50" y="513" on="0"/>
      </contour>
    </TTGlyph>
    <TTGlyph name="adieresis" xMin="45" yMin="-6" xMax="434" yMax="641">
      <contour>
        <pt x="389" y="116" on="0"/>
        <pt x="434" y="55" on="0"/>
        <pt x="434" y="17" on="0"/>
        <pt x="414" y="-6" on="0"/>
        <pt x="397" y="-6" on="1"/>
        <pt x="356" y="-6" on="0"/>
        <pt x="324" y="79" on="1"/>
        <pt x="316" y="101" on="1"/>
        <pt x="265" y="-6" on="0"/>
        <pt x="163" y="-6" on="1"/>
        <pt x="112" y="-6" on="0"/>
        <pt x="45" y="59" on="0"/>
        <pt x="45" y="108" on="1"/>
        <pt x="45" y="184" on="0"/>
        <pt x="149" y="294" on="0"/>
        <pt x="233" y="298" on="1"/>
        <pt x="213" y="333" on="0"/>
        <pt x="164" y="368" on="0"/>
        <pt x="124" y="374" on="0"/>
        <pt x="89" y="375" on="0"/>
        <pt x="69" y="389" on="0"/>
        <pt x="69" y="430" on="0"/>
        <pt x="102" y="456" on="0"/>
        <pt x="125" y="456" on="1"/>
        <pt x="190" y="456" on="0"/>
        <pt x="316" y="326" on="0"/>
        <pt x="363" y="187" on="1"/>
        <pt x="382" y="134" on="1"/>
      </contour>
      <contour>
        <pt x="172" y="245" on="0"/>
        <pt x="115" y="197" on="0"/>
        <pt x="115" y="121" on="0"/>
        <pt x="166" y="70" on="0"/>
        <pt x="238" y="70" on="0"/>
        <pt x="290" y="121" on="0"/>
        <pt x="290" y="156" on="1"/>
        <pt x="290" y="181" on="0"/>
        <pt x="272" y="224" on="0"/>
        <pt x="270" y="229" on="1"/>
        <pt x="244" y="245" on="0"/>
      </contour>
      <contour>
        <pt x="298" y="548" on="0"/>
        <pt x="275" y="569" on="0"/>
        <pt x="275" y="611" on="0"/>
        <pt x="304" y="641" on="0"/>
        <pt x="344" y="641" on="0"/>
        <pt x="368" y="619" on="0"/>
        <pt x="368" y="577" on="0"/>
        <pt x="338" y="548" on="0"/>
      </contour>
      <contour>
        <pt x="108" y="548" on="0"/>
        <pt x="85" y="569" on="0"/>
        <pt x="85" y="611" on="0"/>
        <pt x="114" y="641" on="0"/>
        <pt x="154" y="641" on="0"/>
        <pt x="178" y="619" on="0"/>
        <pt x="178" y="577" on="0"/>
        <pt x="148" y="548" on="0"/>
      </contour>
    </TTGlyph>
    <TTGlyph name="ae" xMin="30" yMin="-6" xMax="637" yMax="456">
      <contour>
        <pt x="491" y="199" on="1"/>
        <pt x="353" y="207" on="1"/>
        <pt x="346" y="207" on="0"/>
        <pt x="343" y="206" on="1"/>
        <pt x="349" y="149" on="0"/>
        <pt x="434" y="73" on="0"/>
        <pt x="493" y="73" on="1"/>
        <pt x="547" y="73" on="0"/>
        <pt x="594" y="114" on="1"/>
        <pt x="610" y="128" on="0"/>
        <pt x="626" y="128" on="0"/>
        <pt x="637" y="116" on="0"/>
        <pt x="637" y="109" on="1"/>
        <pt x="637" y="81" on="0"/>
        <pt x="504" y="-6" on="0"/>
        <pt x="380" y="-6" on="0"/>
        <pt x="305" y="50" on="0"/>
        <pt x="288" y="95" on="1"/>
        <pt x="228" y="-6" on="0"/>
        <pt x="138" y="-6" on="1"/>
        <pt x="87" y="-6" on="0"/>
        <pt x="30" y="49" on="0"/>
        <pt x="30" y="98" on="1"/>
        <pt x="30" y="175" on="0"/>
        <pt x="135" y="293" on="0"/>
        <pt x="218" y="298" on="1"/>
        <pt x="194" y="330" on="0"/>
        <pt x="131" y="361" on="0"/>
        <pt x="108" y="362" on="1"/>
        <pt x="54" y="366" on="0"/>
        <pt x="54" y="408" on="1"/>
        <pt x="54" y="428" on="0"/>
        <pt x="85" y="456" on="0"/>
        <pt x="110" y="456" on="1"/>
        <pt x="161" y="456" on="0"/>
        <pt x="263" y="374" on="0"/>
        <pt x="306" y="287" on="1"/>
        <pt x="344" y="363" on="0"/>
        <pt x="488" y="456" on="0"/>
        <pt x="554" y="456" on="1"/>
        <pt x="594" y="456" on="0"/>
        <pt x="637" y="427" on="0"/>
        <pt x="637" y="381" on="0"/>
        <pt x="610" y="354" on="0"/>
        <pt x="583" y="354" on="0"/>
        <pt x="521" y="378" on="0"/>
        <pt x="491" y="378" on="1"/>
        <pt x="439" y="378" on="0"/>
        <pt x="359" y="315" on="0"/>
        <pt x="346" y="265" on="1"/>
        <pt x="353" y="265" on="1"/>
        <pt x="491" y="273" on="1"/>
        <pt x="530" y="273" on="0"/>
        <pt x="530" y="199" on="0"/>
      </contour>
      <contour>
        <pt x="151" y="245" on="0"/>
        <pt x="100" y="193" on="0"/>
        <pt x="100" y="121" on="0"/>
        <pt x="151" y="70" on="0"/>
        <pt x="223" y="70" on="0"/>
        <pt x="275" y="121" on="0"/>
        <pt x="275" y="193" on="0"/>
        <pt x="223" y="245" on="0"/>
      </contour>
    </TTGlyph>
    <TTGlyph name="agrave" xMin="45" yMin="-6" xMax="434" yMax="642">
      <contour>
        <pt x="389" y="116" on="0"/>
        <pt x="434" y="55" on="0"/>
        <pt x="434" y="17" on="0"/>
        <pt x="414" y="-6" on="0"/>
        <pt x="397" y="-6" on="1"/>
        <pt x="356" y="-6" on="0"/>
        <pt x="324" y="79" on="1"/>
        <pt x="316" y="101" on="1"/>
        <pt x="265" y="-6" on="0"/>
        <pt x="163" y="-6" on="1"/>
        <pt x="112" y="-6" on="0"/>
        <pt x="45" y="59" on="0"/>
        <pt x="45" y="108" on="1"/>
        <pt x="45" y="184" on="0"/>
        <pt x="149" y="294" on="0"/>
        <pt x="233" y="298" on="1"/>
        <pt x="213" y="333" on="0"/>
        <pt x="164" y="368" on="0"/>
        <pt x="124" y="374" on="0"/>
        <pt x="89" y="375" on="0"/>
        <pt x="69" y="389" on="0"/>
        <pt x="69" y="430" on="0"/>
        <pt x="102" y="456" on="0"/>
        <pt x="125" y="456" on="1"/>
        <pt x="190" y="456" on="0"/>
        <pt x="316" y="326" on="0"/>
        <pt x="363" y="187" on="1"/>
        <pt x="382" y="134" on="1"/>
      </contour>
      <contour>
        <pt x="172" y="245" on="0"/>
        <pt x="115" y="197" on="0"/>
        <pt x="115" y="121" on="0"/>
        <pt x="166" y="70" on="0"/>
        <pt x="238" y="70" on="0"/>
        <pt x="290" y="121" on="0"/>
        <pt x="290" y="156" on="1"/>
        <pt x="290" y="181" on="0"/>
        <pt x="272" y="224" on="0"/>
        <pt x="270" y="229" on="1"/>
        <pt x="244" y="245" on="0"/>
      </contour>
      <contour>
        <pt x="275" y="525" on="1"/>
        <pt x="275" y="513" on="0"/>
        <pt x="263" y="513" on="1"/>
        <pt x="259" y="513" on="0"/>
        <pt x="251" y="518" on="1"/>
        <pt x="194" y="552" on="0"/>
        <pt x="116" y="566" on="1"/>
        <pt x="79" y="573" on="0"/>
        <pt x="79" y="606" on="1"/>
        <pt x="79" y="621" on="0"/>
        <pt x="102" y="642" on="0"/>
        <pt x="117" y="642" on="1"/>
        <pt x="164" y="642" on="0"/>
        <pt x="267" y="539" on="1"/>
        <pt x="275" y="531" on="0"/>
      </contour>
    </TTGlyph>
    <TTGlyph name="ampersand" xMin="20" yMin="-6" xMax="727" yMax="696">
      <contour>
        <pt x="199" y="-6" on="1"/>
        <pt x="124" y="-6" on="0"/>
        <pt x="20" y="87" on="0"/>
        <pt x="20" y="250" on="0"/>
        <pt x="121" y="335" on="1"/>
        <pt x="60" y="431" on="0"/>
        <pt x="60" y="496" on="1"/>
        <pt x="60" y="583" on="0"/>
        <pt x="189" y="696" on="0"/>
        <pt x="268" y="696" on="1"/>
        <pt x="322" y="696" on="0"/>
        <pt x="407" y="632" on="0"/>
        <pt x="407" y="570" on="1"/>
        <pt x="407" y="480" on="0"/>
        <pt x="322" y="411" on="1"/>
        <pt x="285" y="380" on="0"/>
        <pt x="222" y="340" on="1"/>
        <pt x="284" y="255" on="0"/>
        <pt x="381" y="174" on="1"/>
        <pt x="398" y="196" on="0"/>
        <pt x="459" y="285" on="0"/>
        <pt x="499" y="338" on="0"/>
        <pt x="526" y="368" on="1"/>
        <pt x="581" y="429" on="0"/>
        <pt x="637" y="429" on="1"/>
        <pt x="672" y="429" on="0"/>
        <pt x="721" y="370" on="0"/>
        <pt x="721" y="331" on="1"/>
        <pt x="721" y="271" on="0"/>
        <pt x="637" y="187" on="0"/>
        <pt x="601" y="187" on="1"/>
        <pt x="583" y="187" on="0"/>
        <pt x="558" y="211" on="0"/>
        <pt x="558" y="249" on="0"/>
        <pt x="586" y="279" on="0"/>
        <pt x="612" y="279" on="0"/>
        <pt x="632" y="265" on="0"/>
        <pt x="654" y="265" on="0"/>
        <pt x="676" y="292" on="0"/>
        <pt x="676" y="328" on="0"/>
        <pt x="647" y="361" on="0"/>
        <pt x="592" y="361" on="0"/>
        <pt x="539" y="302" on="0"/>
        <pt x="455" y="170" on="0"/>
        <pt x="430" y="138" on="1"/>
        <pt x="548" y="57" on="0"/>
        <pt x="617" y="57" on="1"/>
        <pt x="643" y="57" on="0"/>
        <pt x="675" y="80" on="0"/>
        <pt x="697" y="102" on="0"/>
        <pt x="717" y="102" on="0"/>
        <pt x="727" y="90" on="0"/>
        <pt x="727" y="71" on="0"/>
        <pt x="692" y="31" on="0"/>
        <pt x="615" y="-6" on="0"/>
        <pt x="568" y="-6" on="1"/>
        <pt x="488" y="-6" on="0"/>
        <pt x="375" y="74" on="1"/>
        <pt x="292" y="-6" on="0"/>
      </contour>
      <contour>
        <pt x="332" y="532" on="1"/>
        <pt x="332" y="584" on="0"/>
        <pt x="276" y="636" on="0"/>
        <pt x="198" y="636" on="0"/>
        <pt x="141" y="576" on="0"/>
        <pt x="141" y="534" on="1"/>
        <pt x="141" y="469" on="0"/>
        <pt x="189" y="385" on="1"/>
        <pt x="237" y="416" on="0"/>
        <pt x="285" y="450" on="0"/>
        <pt x="332" y="506" on="0"/>
      </contour>
      <contour>
        <pt x="102" y="197" on="1"/>
        <pt x="102" y="134" on="0"/>
        <pt x="179" y="56" on="0"/>
        <pt x="278" y="56" on="0"/>
        <pt x="329" y="110" on="1"/>
        <pt x="235" y="187" on="0"/>
        <pt x="155" y="289" on="1"/>
        <pt x="102" y="243" on="0"/>
      </contour>
    </TTGlyph>
    <TTGlyph name="aring" xMin="45" yMin="-6" xMax="434" yMax="642">
      <component glyphName="a" x="0" y="0" flags="0x1004"/>
      <component glyphName="ring" x="65" y="0" flags="0x1004"/>
    </TTGlyph>
    <TTGlyph name="asciicircum" xMin="45" yMin="118" xMax="557" yMax="537">
      <contour>
        <pt x="557" y="172" on="1"/>
        <pt x="557" y="148" on="0"/>
        <pt x="533" y="118" on="0"/>
        <pt x="513" y="118" on="1"/>
        <pt x="479" y="118" on="0"/>
        <pt x="464" y="170" on="1"/>
        <pt x="446" y="237" on="0"/>
        <pt x="360" y="390" on="0"/>
        <pt x="301" y="453" on="1"/>
        <pt x="242" y="390" on="0"/>
        <pt x="157" y="236" on="0"/>
        <pt x="138" y="170" on="1"/>
        <pt x="123" y="118" on="0"/>
        <pt x="89" y="118" on="1"/>
        <pt x="69" y="118" on="0"/>
        <pt x="45" y="148" on="0"/>
        <pt x="45" y="172" on="1"/>
        <pt x="45" y="209" on="0"/>
        <pt x="150" y="385" on="0"/>
        <pt x="275" y="534" on="0"/>
        <pt x="301" y="537" on="1"/>
        <pt x="327" y="534" on="0"/>
        <pt x="452" y="385" on="0"/>
        <pt x="557" y="209" on="0"/>
      </contour>
    </TTGlyph>
    <TTGlyph name="asciitilde" xMin="35" yMin="184" xMax="418" yMax="351">
      <contour>
        <pt x="418" y="331" on="1"/>
        <pt x="418" y="289" on="0"/>
        <pt x="332" y="184" on="0"/>
        <pt x="283" y="184" on="1"/>
        <pt x="251" y="184" on="0"/>
        <pt x="167" y="242" on="0"/>
        <pt x="114" y="242" on="0"/>
        <pt x="83" y="224" on="0"/>
        <pt x="79" y="213" on="1"/>
        <pt x="68" y="184" on="0"/>
        <pt x="57" y="184" on="1"/>
        <pt x="35" y="184" on="0"/>
        <pt x="35" y="206" on="1"/>
        <pt x="35" y="239" on="0"/>
        <pt x="98" y="306" on="0"/>
        <pt x="196" y="306" on="0"/>
        <pt x="300" y="266" on="0"/>
        <pt x="339" y="266" on="0"/>
        <pt x="368" y="293" on="0"/>
        <pt x="373" y="308" on="1"/>
        <pt x="387" y="351" on="0"/>
        <pt x="399" y="351" on="1"/>
        <pt x="418" y="351" on="0"/>
      </contour>
    </TTGlyph>
    <TTGlyph name="asterisk" xMin="36" yMin="430" xMax="314" yMax="696">
      <contour>
        <pt x="111" y="430" on="1"/>
        <pt x="97" y="430" on="0"/>
        <pt x="76" y="450" on="0"/>
        <pt x="76" y="467" on="0"/>
        <pt x="78" y="474" on="0"/>
        <pt x="82" y="481" on="0"/>
        <pt x="86" y="488" on="0"/>
        <pt x="94" y="498" on="0"/>
        <pt x="98" y="502" on="1"/>
        <pt x="118" y="522" on="0"/>
        <pt x="138" y="542" on="1"/>
        <pt x="130" y="544" on="0"/>
        <pt x="95" y="549" on="0"/>
        <pt x="74" y="553" on="0"/>
        <pt x="62" y="558" on="1"/>
        <pt x="36" y="567" on="0"/>
        <pt x="36" y="587" on="1"/>
        <pt x="36" y="599" on="0"/>
        <pt x="52" y="620" on="0"/>
        <pt x="78" y="620" on="0"/>
        <pt x="137" y="587" on="0"/>
        <pt x="151" y="582" on="1"/>
        <pt x="142" y="651" on="0"/>
        <pt x="142" y="657" on="1"/>
        <pt x="142" y="696" on="0"/>
        <pt x="208" y="696" on="0"/>
        <pt x="208" y="657" on="1"/>
        <pt x="208" y="651" on="0"/>
        <pt x="199" y="582" on="1"/>
        <pt x="213" y="587" on="0"/>
        <pt x="272" y="620" on="0"/>
        <pt x="298" y="620" on="0"/>
        <pt x="314" y="599" on="0"/>
        <pt x="314" y="577" on="0"/>
        <pt x="301" y="562" on="0"/>
        <pt x="276" y="553" on="0"/>
        <pt x="255" y="549" on="0"/>
        <pt x="220" y="544" on="0"/>
        <pt x="212" y="542" on="1"/>
        <pt x="232" y="522" on="0"/>
        <pt x="256" y="498" on="0"/>
        <pt x="264" y="488" on="0"/>
        <pt x="268" y="481" on="0"/>
        <pt x="270" y="478" on="1"/>
        <pt x="274" y="470" on="0"/>
        <pt x="274" y="450" on="0"/>
        <pt x="253" y="430" on="0"/>
        <pt x="239" y="430" on="1"/>
        <pt x="209" y="430" on="0"/>
        <pt x="175" y="517" on="1"/>
        <pt x="141" y="430" on="0"/>
      </contour>
    </TTGlyph>
    <TTGlyph name="at" xMin="50" yMin="-6" xMax="732" yMax="696">
      <contour>
        <pt x="583" y="402" on="1"/>
        <pt x="578" y="282" on="1"/>
        <pt x="578" y="248" on="0"/>
        <pt x="599" y="201" on="0"/>
        <pt x="617" y="201" on="1"/>
        <pt x="651" y="201" on="0"/>
        <pt x="678" y="291" on="0"/>
        <pt x="678" y="336" on="1"/>
        <pt x="678" y="463" on="0"/>
        <pt x="503" y="643" on="0"/>
        <pt x="260" y="643" on="0"/>
        <pt x="104" y="473" on="0"/>
        <pt x="104" y="226" on="0"/>
        <pt x="279" y="49" on="0"/>
        <pt x="401" y="49" on="1"/>
        <pt x="419" y="49" on="1"/>
        <pt x="431" y="49" on="0"/>
        <pt x="447" y="35" on="0"/>
        <pt x="447" y="23" on="1"/>
        <pt x="447" y="0" on="0"/>
        <pt x="419" y="-5" on="1"/>
        <pt x="410" y="-6" on="0"/>
        <pt x="391" y="-6" on="1"/>
        <pt x="247" y="-6" on="0"/>
        <pt x="50" y="188" on="0"/>
        <pt x="50" y="481" on="0"/>
        <pt x="246" y="696" on="0"/>
        <pt x="534" y="696" on="0"/>
        <pt x="732" y="494" on="0"/>
        <pt x="732" y="356" on="1"/>
        <pt x="732" y="282" on="0"/>
        <pt x="706" y="212" on="1"/>
        <pt x="693" y="175" on="0"/>
        <pt x="641" y="129" on="0"/>
        <pt x="577" y="129" on="0"/>
        <pt x="527" y="189" on="0"/>
        <pt x="527" y="229" on="1"/>
        <pt x="527" y="239" on="1"/>
        <pt x="488" y="188" on="0"/>
        <pt x="376" y="129" on="0"/>
        <pt x="263" y="129" on="0"/>
        <pt x="183" y="221" on="0"/>
        <pt x="183" y="360" on="0"/>
        <pt x="269" y="490" on="0"/>
        <pt x="386" y="555" on="0"/>
        <pt x="503" y="555" on="0"/>
        <pt x="583" y="463" on="0"/>
      </contour>
      <contour>
        <pt x="244" y="401" on="0"/>
        <pt x="244" y="283" on="0"/>
        <pt x="326" y="201" on="0"/>
        <pt x="444" y="201" on="0"/>
        <pt x="522" y="282" on="0"/>
        <pt x="522" y="402" on="0"/>
        <pt x="444" y="482" on="0"/>
        <pt x="326" y="482" on="0"/>
      </contour>
    </TTGlyph>
    <TTGlyph name="atilde" xMin="45" yMin="-6" xMax="434" yMax="642">
      <component glyphName="a" x="0" y="0" flags="0x1004"/>
      <component glyphName="tilde" x="25" y="0" flags="0x1004"/>
    </TTGlyph>
    <TTGlyph name="b" xMin="55" yMin="-6" xMax="497" yMax="750">
      <contour>
        <pt x="63" y="160" on="1"/>
        <pt x="63" y="160" on="0"/>
        <pt x="71" y="343" on="1"/>
        <pt x="71" y="506" on="0"/>
        <pt x="55" y="690" on="0"/>
        <pt x="55" y="693" on="1"/>
        <pt x="55" y="750" on="0"/>
        <pt x="99" y="750" on="1"/>
        <pt x="152" y="750" on="0"/>
        <pt x="152" y="668" on="1"/>
        <pt x="152" y="619" on="0"/>
        <pt x="131" y="383" on="0"/>
        <pt x="130" y="344" on="1"/>
        <pt x="172" y="396" on="0"/>
        <pt x="289" y="456" on="0"/>
        <pt x="408" y="456" on="0"/>
        <pt x="497" y="359" on="0"/>
        <pt x="497" y="290" on="1"/>
        <pt x="497" y="179" on="0"/>
        <pt x="327" y="-6" on="0"/>
        <pt x="219" y="-6" on="1"/>
        <pt x="152" y="-6" on="0"/>
        <pt x="63" y="91" on="0"/>
      </contour>
      <contour>
        <pt x="128" y="289" on="0"/>
        <pt x="128" y="161" on="0"/>
        <pt x="217" y="72" on="0"/>
        <pt x="344" y="72" on="0"/>
        <pt x="430" y="161" on="0"/>
        <pt x="430" y="289" on="0"/>
        <pt x="344" y="377" on="0"/>
        <pt x="217" y="377" on="0"/>
      </contour>
    </TTGlyph>
    <TTGlyph name="backslash" xMin="29" yMin="-6" xMax="478" yMax="696">
      <contour>
        <pt x="440" y="-6" on="1"/>
        <pt x="409" y="-6" on="0"/>
        <pt x="374" y="56" on="1"/>
        <pt x="356" y="88" on="0"/>
        <pt x="338" y="124" on="1"/>
        <pt x="241" y="322" on="0"/>
        <pt x="130" y="483" on="1"/>
        <pt x="73" y="566" on="0"/>
        <pt x="29" y="637" on="0"/>
        <pt x="29" y="657" on="1"/>
        <pt x="29" y="696" on="0"/>
        <pt x="67" y="696" on="1"/>
        <pt x="98" y="696" on="0"/>
        <pt x="133" y="634" on="1"/>
        <pt x="151" y="602" on="0"/>
        <pt x="168" y="566" on="1"/>
        <pt x="266" y="368" on="0"/>
        <pt x="377" y="207" on="1"/>
        <pt x="434" y="124" on="0"/>
        <pt x="478" y="53" on="0"/>
        <pt x="478" y="33" on="1"/>
        <pt x="478" y="-6" on="0"/>
      </contour>
    </TTGlyph>
    <TTGlyph name="bar" xMin="50" yMin="-56" xMax="120" yMax="746">
      <contour>
        <pt x="50" y="-19" on="1"/>
        <pt x="57" y="348" on="1"/>
        <pt x="57" y="430" on="0"/>
        <pt x="50" y="705" on="0"/>
        <pt x="50" y="723" on="0"/>
        <pt x="70" y="746" on="0"/>
        <pt x="100" y="746" on="0"/>
        <pt x="120" y="723" on="0"/>
        <pt x="120" y="705" on="0"/>
        <pt x="113" y="430" on="0"/>
        <pt x="113" y="348" on="1"/>
        <pt x="120" y="-19" on="1"/>
        <pt x="120" y="-34" on="0"/>
        <pt x="100" y="-56" on="0"/>
        <pt x="70" y="-56" on="0"/>
        <pt x="50" y="-34" on="0"/>
      </contour>
    </TTGlyph>
    <TTGlyph name="braceleft" xMin="9" yMin="-291" xMax="305" yMax="751">
      <contour>
        <pt x="26" y="212" on="1"/>
        <pt x="9" y="212" on="0"/>
        <pt x="9" y="248" on="0"/>
        <pt x="26" y="248" on="1"/>
        <pt x="62" y="248" on="0"/>
        <pt x="116" y="306" on="0"/>
        <pt x="116" y="363" on="1"/>
        <pt x="116" y="391" on="0"/>
        <pt x="90" y="533" on="0"/>
        <pt x="90" y="557" on="1"/>
        <pt x="90" y="650" on="0"/>
        <pt x="186" y="751" on="0"/>
        <pt x="305" y="751" on="0"/>
        <pt x="305" y="698" on="1"/>
        <pt x="305" y="676" on="0"/>
        <pt x="278" y="649" on="0"/>
        <pt x="254" y="649" on="0"/>
        <pt x="228" y="672" on="0"/>
        <pt x="191" y="672" on="0"/>
        <pt x="161" y="634" on="0"/>
        <pt x="161" y="562" on="0"/>
        <pt x="187" y="430" on="0"/>
        <pt x="187" y="403" on="1"/>
        <pt x="187" y="296" on="0"/>
        <pt x="102" y="233" on="1"/>
        <pt x="187" y="172" on="0"/>
        <pt x="187" y="57" on="1"/>
        <pt x="187" y="34" on="0"/>
        <pt x="161" y="-77" on="0"/>
        <pt x="161" y="-107" on="1"/>
        <pt x="161" y="-159" on="0"/>
        <pt x="215" y="-212" on="0"/>
        <pt x="275" y="-212" on="0"/>
        <pt x="305" y="-233" on="0"/>
        <pt x="305" y="-248" on="1"/>
        <pt x="305" y="-291" on="0"/>
        <pt x="186" y="-291" on="0"/>
        <pt x="90" y="-174" on="0"/>
        <pt x="90" y="-67" on="1"/>
        <pt x="90" y="-47" on="0"/>
        <pt x="116" y="74" on="0"/>
        <pt x="116" y="97" on="1"/>
        <pt x="116" y="154" on="0"/>
        <pt x="62" y="212" on="0"/>
      </contour>
    </TTGlyph>
    <TTGlyph name="braceright" xMin="9" yMin="-291" xMax="305" yMax="751">
      <contour>
        <pt x="288" y="248" on="1"/>
        <pt x="305" y="248" on="0"/>
        <pt x="305" y="212" on="0"/>
        <pt x="288" y="212" on="1"/>
        <pt x="252" y="212" on="0"/>
        <pt x="198" y="154" on="0"/>
        <pt x="198" y="97" on="1"/>
        <pt x="198" y="69" on="0"/>
        <pt x="224" y="-73" on="0"/>
        <pt x="224" y="-97" on="1"/>
        <pt x="224" y="-190" on="0"/>
        <pt x="128" y="-291" on="0"/>
        <pt x="9" y="-291" on="0"/>
        <pt x="9" y="-238" on="1"/>
        <pt x="9" y="-216" on="0"/>
        <pt x="36" y="-189" on="0"/>
        <pt x="60" y="-189" on="0"/>
        <pt x="86" y="-212" on="0"/>
        <pt x="123" y="-212" on="0"/>
        <pt x="153" y="-174" on="0"/>
        <pt x="153" y="-102" on="0"/>
        <pt x="127" y="30" on="0"/>
        <pt x="127" y="57" on="1"/>
        <pt x="127" y="164" on="0"/>
        <pt x="212" y="227" on="1"/>
        <pt x="127" y="288" on="0"/>
        <pt x="127" y="403" on="1"/>
        <pt x="127" y="426" on="0"/>
        <pt x="153" y="537" on="0"/>
        <pt x="153" y="567" on="1"/>
        <pt x="153" y="619" on="0"/>
        <pt x="99" y="672" on="0"/>
        <pt x="39" y="672" on="0"/>
        <pt x="9" y="693" on="0"/>
        <pt x="9" y="708" on="1"/>
        <pt x="9" y="751" on="0"/>
        <pt x="128" y="751" on="0"/>
        <pt x="224" y="634" on="0"/>
        <pt x="224" y="527" on="1"/>
        <pt x="224" y="507" on="0"/>
        <pt x="198" y="386" on="0"/>
        <pt x="198" y="363" on="1"/>
        <pt x="198" y="306" on="0"/>
        <pt x="252" y="248" on="0"/>
      </contour>
    </TTGlyph>
    <TTGlyph name="bracketleft" xMin="55" yMin="-290" xMax="271" yMax="750">
      <contour>
        <pt x="137" y="687" on="1"/>
        <pt x="138" y="233" on="1"/>
        <pt x="137" y="-227" on="1"/>
        <pt x="157" y="-229" on="0"/>
        <pt x="168" y="-229" on="1"/>
        <pt x="236" y="-224" on="1"/>
        <pt x="247" y="-224" on="0"/>
        <pt x="271" y="-242" on="0"/>
        <pt x="271" y="-272" on="0"/>
        <pt x="247" y="-290" on="0"/>
        <pt x="236" y="-290" on="1"/>
        <pt x="168" y="-285" on="1"/>
        <pt x="97" y="-290" on="1"/>
        <pt x="78" y="-290" on="0"/>
        <pt x="55" y="-260" on="0"/>
        <pt x="55" y="-239" on="0"/>
        <pt x="66" y="94" on="0"/>
        <pt x="66" y="343" on="0"/>
        <pt x="60" y="556" on="0"/>
        <pt x="55" y="688" on="0"/>
        <pt x="55" y="720" on="0"/>
        <pt x="82" y="750" on="0"/>
        <pt x="101" y="750" on="1"/>
        <pt x="168" y="745" on="1"/>
        <pt x="236" y="750" on="1"/>
        <pt x="247" y="750" on="0"/>
        <pt x="271" y="732" on="0"/>
        <pt x="271" y="702" on="0"/>
        <pt x="247" y="684" on="0"/>
        <pt x="236" y="684" on="1"/>
        <pt x="168" y="689" on="1"/>
        <pt x="157" y="689" on="0"/>
      </contour>
    </TTGlyph>
    <TTGlyph name="bracketright" xMin="55" yMin="-290" xMax="271" yMax="750">
      <contour>
        <pt x="189" y="-227" on="1"/>
        <pt x="188" y="227" on="1"/>
        <pt x="189" y="687" on="1"/>
        <pt x="169" y="689" on="0"/>
        <pt x="158" y="689" on="1"/>
        <pt x="90" y="684" on="1"/>
        <pt x="79" y="684" on="0"/>
        <pt x="55" y="702" on="0"/>
        <pt x="55" y="732" on="0"/>
        <pt x="79" y="750" on="0"/>
        <pt x="90" y="750" on="1"/>
        <pt x="158" y="745" on="1"/>
        <pt x="229" y="750" on="1"/>
        <pt x="248" y="750" on="0"/>
        <pt x="271" y="720" on="0"/>
        <pt x="271" y="699" on="0"/>
        <pt x="260" y="366" on="0"/>
        <pt x="260" y="117" on="0"/>
        <pt x="266" y="-96" on="0"/>
        <pt x="271" y="-228" on="0"/>
        <pt x="271" y="-260" on="0"/>
        <pt x="244" y="-290" on="0"/>
        <pt x="225" y="-290" on="1"/>
        <pt x="158" y="-285" on="1"/>
        <pt x="90" y="-290" on="1"/>
        <pt x="79" y="-290" on="0"/>
        <pt x="55" y="-272" on="0"/>
        <pt x="55" y="-242" on="0"/>
        <pt x="79" y="-224" on="0"/>
        <pt x="90" y="-224" on="1"/>
        <pt x="158" y="-229" on="1"/>
        <pt x="169" y="-229" on="0"/>
      </contour>
    </TTGlyph>
    <TTGlyph name="brokenbar" xMin="50" yMin="-56" xMax="120" yMax="746">
      <contour>
        <pt x="50" y="-19" on="1"/>
        <pt x="57" y="100" on="1"/>
        <pt x="57" y="127" on="0"/>
        <pt x="50" y="216" on="0"/>
        <pt x="50" y="233" on="0"/>
        <pt x="70" y="256" on="0"/>
        <pt x="100" y="256" on="0"/>
        <pt x="120" y="233" on="0"/>
        <pt x="120" y="216" on="0"/>
        <pt x="113" y="127" on="0"/>
        <pt x="113" y="100" on="1"/>
        <pt x="120" y="-19" on="1"/>
        <pt x="120" y="-34" on="0"/>
        <pt x="100" y="-56" on="0"/>
        <pt x="70" y="-56" on="0"/>
        <pt x="50" y="-34" on="0"/>
      </contour>
      <contour>
        <pt x="50" y="471" on="1"/>
        <pt x="57" y="590" on="1"/>
        <pt x="57" y="617" on="0"/>
        <pt x="50" y="706" on="0"/>
        <pt x="50" y="723" on="0"/>
        <pt x="70" y="746" on="0"/>
        <pt x="100" y="746" on="0"/>
        <pt x="120" y="723" on="0"/>
        <pt x="120" y="706" on="0"/>
        <pt x="113" y="617" on="0"/>
        <pt x="113" y="590" on="1"/>
        <pt x="120" y="471" on="1"/>
        <pt x="120" y="456" on="0"/>
        <pt x="100" y="434" on="0"/>
        <pt x="70" y="434" on="0"/>
        <pt x="50" y="456" on="0"/>
      </contour>
    </TTGlyph>
    <TTGlyph name="bullet" xMin="50" yMin="145" xMax="212" yMax="307">
      <contour>
        <pt x="90" y="145" on="0"/>
        <pt x="50" y="182" on="0"/>
        <pt x="50" y="256" on="0"/>
        <pt x="100" y="307" on="0"/>
        <pt x="170" y="307" on="0"/>
        <pt x="212" y="268" on="0"/>
        <pt x="212" y="195" on="0"/>
        <pt x="161" y="145" on="0"/>
      </contour>
    </TTGlyph>
    <TTGlyph name="c" xMin="25" yMin="-6" xMax="386" yMax="456">
      <contour>
        <pt x="240" y="378" on="1"/>
        <pt x="174" y="378" on="0"/>
        <pt x="91" y="287" on="0"/>
        <pt x="91" y="161" on="0"/>
        <pt x="178" y="73" on="0"/>
        <pt x="241" y="73" on="1"/>
        <pt x="297" y="73" on="0"/>
        <pt x="342" y="114" on="1"/>
        <pt x="358" y="128" on="0"/>
        <pt x="374" y="128" on="0"/>
        <pt x="386" y="116" on="0"/>
        <pt x="386" y="109" on="1"/>
        <pt x="386" y="80" on="0"/>
        <pt x="273" y="-6" on="0"/>
        <pt x="130" y="-6" on="0"/>
        <pt x="25" y="110" on="0"/>
        <pt x="25" y="196" on="1"/>
        <pt x="25" y="306" on="0"/>
        <pt x="191" y="456" on="0"/>
        <pt x="291" y="456" on="1"/>
        <pt x="333" y="456" on="0"/>
        <pt x="386" y="427" on="0"/>
        <pt x="386" y="382" on="0"/>
        <pt x="359" y="354" on="0"/>
        <pt x="333" y="354" on="0"/>
        <pt x="270" y="378" on="0"/>
      </contour>
    </TTGlyph>
    <TTGlyph name="caron" xMin="50" yMin="513" xMax="298" yMax="642">
      <contour>
        <pt x="289" y="642" on="1"/>
        <pt x="298" y="642" on="0"/>
        <pt x="298" y="624" on="0"/>
        <pt x="292" y="616" on="1"/>
        <pt x="224" y="530" on="0"/>
        <pt x="185" y="515" on="1"/>
        <pt x="177" y="513" on="0"/>
        <pt x="173" y="513" on="1"/>
        <pt x="138" y="513" on="0"/>
        <pt x="56" y="616" on="1"/>
        <pt x="50" y="623" on="0"/>
        <pt x="50" y="642" on="0"/>
        <pt x="59" y="642" on="1"/>
        <pt x="62" y="642" on="0"/>
        <pt x="69" y="637" on="1"/>
        <pt x="121" y="597" on="0"/>
        <pt x="174" y="585" on="1"/>
        <pt x="227" y="597" on="0"/>
        <pt x="279" y="637" on="1"/>
        <pt x="286" y="642" on="0"/>
      </contour>
    </TTGlyph>
    <TTGlyph name="ccedilla" xMin="25" yMin="-290" xMax="386" yMax="456">
      <contour>
        <pt x="224" y="-130" on="1"/>
        <pt x="172" y="-137" on="1"/>
        <pt x="163" y="-137" on="0"/>
        <pt x="151" y="-125" on="0"/>
        <pt x="151" y="-100" on="0"/>
        <pt x="208" y="-55" on="0"/>
        <pt x="208" y="-13" on="0"/>
        <pt x="191" y="-5" on="1"/>
        <pt x="120" y="0" on="0"/>
        <pt x="25" y="114" on="0"/>
        <pt x="25" y="196" on="1"/>
        <pt x="25" y="306" on="0"/>
        <pt x="191" y="456" on="0"/>
        <pt x="291" y="456" on="1"/>
        <pt x="333" y="456" on="0"/>
        <pt x="386" y="427" on="0"/>
        <pt x="386" y="382" on="0"/>
        <pt x="359" y="354" on="0"/>
        <pt x="333" y="354" on="0"/>
        <pt x="270" y="378" on="0"/>
        <pt x="240" y="378" on="1"/>
        <pt x="174" y="378" on="0"/>
        <pt x="91" y="287" on="0"/>
        <pt x="91" y="161" on="0"/>
        <pt x="178" y="73" on="0"/>
        <pt x="241" y="73" on="1"/>
        <pt x="297" y="73" on="0"/>
        <pt x="342" y="114" on="1"/>
        <pt x="358" y="128" on="0"/>
        <pt x="374" y="128" on="0"/>
        <pt x="386" y="116" on="0"/>
        <pt x="386" y="109" on="1"/>
        <pt x="386" y="83" on="0"/>
        <pt x="289" y="4" on="0"/>
        <pt x="229" y="-4" on="1"/>
        <pt x="237" y="-16" on="0"/>
        <pt x="237" y="-56" on="0"/>
        <pt x="224" y="-66" on="1"/>
        <pt x="261" y="-66" on="0"/>
        <pt x="308" y="-109" on="0"/>
        <pt x="308" y="-146" on="1"/>
        <pt x="308" y="-206" on="0"/>
        <pt x="224" y="-290" on="0"/>
        <pt x="188" y="-290" on="1"/>
        <pt x="170" y="-290" on="0"/>
        <pt x="145" y="-266" on="0"/>
        <pt x="145" y="-228" on="0"/>
        <pt x="173" y="-198" on="0"/>
        <pt x="199" y="-198" on="0"/>
        <pt x="219" y="-212" on="0"/>
        <pt x="241" y="-212" on="0"/>
        <pt x="263" y="-185" on="0"/>
        <pt x="263" y="-152" on="0"/>
        <pt x="242" y="-130" on="0"/>
      </contour>
    </TTGlyph>
    <TTGlyph name="cedilla" xMin="50" yMin="-290" xMax="213" yMax="11">
      <contour>
        <pt x="129" y="-130" on="1"/>
        <pt x="77" y="-137" on="1"/>
        <pt x="68" y="-137" on="0"/>
        <pt x="56" y="-125" on="0"/>
        <pt x="56" y="-100" on="0"/>
        <pt x="113" y="-55" on="0"/>
        <pt x="113" y="-32" on="1"/>
        <pt x="113" y="-6" on="0"/>
        <pt x="83" y="-6" on="1"/>
        <pt x="83" y="11" on="1"/>
        <pt x="130" y="11" on="1"/>
        <pt x="128" y="0" on="1"/>
        <pt x="132" y="0" on="0"/>
        <pt x="142" y="-21" on="0"/>
        <pt x="142" y="-29" on="1"/>
        <pt x="142" y="-56" on="0"/>
        <pt x="129" y="-66" on="1"/>
        <pt x="166" y="-66" on="0"/>
        <pt x="213" y="-109" on="0"/>
        <pt x="213" y="-146" on="1"/>
        <pt x="213" y="-206" on="0"/>
        <pt x="129" y="-290" on="0"/>
        <pt x="93" y="-290" on="1"/>
        <pt x="75" y="-290" on="0"/>
        <pt x="50" y="-266" on="0"/>
        <pt x="50" y="-228" on="0"/>
        <pt x="78" y="-198" on="0"/>
        <pt x="104" y="-198" on="0"/>
        <pt x="124" y="-212" on="0"/>
        <pt x="146" y="-212" on="0"/>
        <pt x="168" y="-185" on="0"/>
        <pt x="168" y="-152" on="0"/>
        <pt x="147" y="-130" on="0"/>
      </contour>
    </TTGlyph>
    <TTGlyph name="cent" xMin="20" yMin="-6" xMax="381" yMax="642">
      <contour>
        <pt x="381" y="207" on="1"/>
        <pt x="381" y="186" on="0"/>
        <pt x="295" y="117" on="0"/>
        <pt x="239" y="101" on="1"/>
        <pt x="241" y="51" on="0"/>
        <pt x="241" y="13" on="0"/>
        <pt x="224" y="-6" on="0"/>
        <pt x="196" y="-6" on="0"/>
        <pt x="177" y="14" on="0"/>
        <pt x="177" y="29" on="1"/>
        <pt x="177" y="69" on="0"/>
        <pt x="178" y="92" on="1"/>
        <pt x="110" y="92" on="0"/>
        <pt x="20" y="189" on="0"/>
        <pt x="20" y="336" on="0"/>
        <pt x="110" y="481" on="0"/>
        <pt x="180" y="521" on="1"/>
        <pt x="179" y="550" on="0"/>
        <pt x="179" y="607" on="1"/>
        <pt x="179" y="622" on="0"/>
        <pt x="198" y="642" on="0"/>
        <pt x="225" y="642" on="0"/>
        <pt x="242" y="623" on="0"/>
        <pt x="242" y="569" on="0"/>
        <pt x="241" y="547" on="1"/>
        <pt x="268" y="554" on="0"/>
        <pt x="298" y="554" on="1"/>
        <pt x="381" y="554" on="0"/>
        <pt x="381" y="501" on="1"/>
        <pt x="381" y="481" on="0"/>
        <pt x="356" y="452" on="0"/>
        <pt x="327" y="452" on="0"/>
        <pt x="265" y="476" on="0"/>
        <pt x="235" y="476" on="1"/>
        <pt x="172" y="476" on="0"/>
        <pt x="86" y="387" on="0"/>
        <pt x="86" y="259" on="0"/>
        <pt x="173" y="171" on="0"/>
        <pt x="237" y="171" on="1"/>
        <pt x="291" y="171" on="0"/>
        <pt x="338" y="212" on="1"/>
        <pt x="354" y="226" on="0"/>
        <pt x="370" y="226" on="0"/>
        <pt x="381" y="214" on="0"/>
      </contour>
    </TTGlyph>
    <TTGlyph name="circumflex" xMin="50" yMin="513" xMax="298" yMax="642">
      <contour>
        <pt x="292" y="539" on="1"/>
        <pt x="298" y="532" on="0"/>
        <pt x="298" y="513" on="0"/>
        <pt x="289" y="513" on="1"/>
        <pt x="286" y="513" on="0"/>
        <pt x="279" y="518" on="1"/>
        <pt x="227" y="558" on="0"/>
        <pt x="174" y="570" on="1"/>
        <pt x="121" y="558" on="0"/>
        <pt x="69" y="518" on="1"/>
        <pt x="62" y="513" on="0"/>
        <pt x="59" y="513" on="1"/>
        <pt x="50" y="513" on="0"/>
        <pt x="50" y="532" on="0"/>
        <pt x="56" y="539" on="1"/>
        <pt x="135" y="642" on="0"/>
        <pt x="210" y="642" on="0"/>
      </contour>
    </TTGlyph>
    <TTGlyph name="colon" xMin="40" yMin="-6" xMax="153" yMax="413">
      <component glyphName="period" x="0" y="0" flags="0x1004"/>
      <component glyphName="period" x="0" y="306" flags="0x1004"/>
    </TTGlyph>
    <TTGlyph name="comma" xMin="40" yMin="-133" xMax="154" yMax="107">
      <contour>
        <pt x="55" y="-133" on="1"/>
        <pt x="41" y="-133" on="0"/>
        <pt x="41" y="-118" on="1"/>
        <pt x="41" y="-107" on="0"/>
        <pt x="81" y="-59" on="0"/>
        <pt x="81" y="-12" on="0"/>
        <pt x="40" y="31" on="0"/>
        <pt x="40" y="74" on="0"/>
        <pt x="76" y="107" on="0"/>
        <pt x="123" y="107" on="0"/>
        <pt x="154" y="79" on="0"/>
        <pt x="154" y="-8" on="0"/>
        <pt x="80" y="-133" on="0"/>
      </contour>
    </TTGlyph>
    <TTGlyph name="commaaccent" xMin="93" yMin="-290" xMax="207" yMax="-76">
      <contour>
        <pt x="108" y="-290" on="1"/>
        <pt x="94" y="-290" on="0"/>
        <pt x="94" y="-275" on="1"/>
        <pt x="94" y="-267" on="0"/>
        <pt x="124" y="-228" on="0"/>
        <pt x="124" y="-188" on="0"/>
        <pt x="93" y="-150" on="0"/>
        <pt x="93" y="-109" on="0"/>
        <pt x="129" y="-76" on="0"/>
        <pt x="176" y="-76" on="0"/>
        <pt x="207" y="-104" on="0"/>
        <pt x="207" y="-183" on="0"/>
        <pt x="133" y="-290" on="0"/>
      </contour>
    </TTGlyph>
    <TTGlyph name="copyright" xMin="50" yMin="-6" xMax="732" yMax="696">
      <contour>
        <pt x="246" y="-6" on="0"/>
        <pt x="50" y="199" on="0"/>
        <pt x="50" y="492" on="0"/>
        <pt x="247" y="696" on="0"/>
        <pt x="535" y="696" on="0"/>
        <pt x="732" y="492" on="0"/>
        <pt x="732" y="199" on="0"/>
        <pt x="536" y="-6" on="0"/>
      </contour>
      <contour>
        <pt x="260" y="643" on="0"/>
        <pt x="104" y="479" on="0"/>
        <pt x="104" y="232" on="0"/>
        <pt x="279" y="49" on="0"/>
        <pt x="522" y="49" on="0"/>
        <pt x="678" y="213" on="0"/>
        <pt x="678" y="460" on="0"/>
        <pt x="503" y="643" on="0"/>
      </contour>
      <contour>
        <pt x="439" y="572" on="1"/>
        <pt x="490" y="572" on="0"/>
        <pt x="567" y="522" on="0"/>
        <pt x="567" y="488" on="1"/>
        <pt x="567" y="469" on="0"/>
        <pt x="543" y="444" on="0"/>
        <pt x="495" y="444" on="0"/>
        <pt x="474" y="468" on="1"/>
        <pt x="466" y="477" on="1"/>
        <pt x="459" y="486" on="0"/>
        <pt x="453" y="491" on="0"/>
        <pt x="444" y="498" on="1"/>
        <pt x="422" y="518" on="0"/>
        <pt x="383" y="518" on="1"/>
        <pt x="333" y="518" on="0"/>
        <pt x="266" y="420" on="0"/>
        <pt x="266" y="284" on="0"/>
        <pt x="352" y="173" on="0"/>
        <pt x="415" y="173" on="1"/>
        <pt x="448" y="173" on="0"/>
        <pt x="511" y="209" on="0"/>
        <pt x="539" y="245" on="0"/>
        <pt x="556" y="245" on="0"/>
        <pt x="565" y="236" on="0"/>
        <pt x="565" y="230" on="1"/>
        <pt x="565" y="202" on="0"/>
        <pt x="451" y="117" on="0"/>
        <pt x="294" y="117" on="0"/>
        <pt x="182" y="216" on="0"/>
        <pt x="182" y="301" on="1"/>
        <pt x="182" y="416" on="0"/>
        <pt x="329" y="572" on="0"/>
      </contour>
    </TTGlyph>
    <TTGlyph name="currency" xMin="35" yMin="88" xMax="459" yMax="510">
      <contour>
        <pt x="360" y="131" on="1"/>
        <pt x="301" y="88" on="0"/>
        <pt x="166" y="88" on="0"/>
        <pt x="119" y="118" on="1"/>
        <pt x="84" y="88" on="0"/>
        <pt x="66" y="88" on="1"/>
        <pt x="35" y="88" on="0"/>
        <pt x="35" y="119" on="1"/>
        <pt x="35" y="138" on="0"/>
        <pt x="64" y="170" on="1"/>
        <pt x="35" y="213" on="0"/>
        <pt x="35" y="264" on="1"/>
        <pt x="35" y="349" on="0"/>
        <pt x="79" y="411" on="1"/>
        <pt x="35" y="455" on="0"/>
        <pt x="35" y="478" on="1"/>
        <pt x="35" y="509" on="0"/>
        <pt x="66" y="509" on="1"/>
        <pt x="88" y="509" on="0"/>
        <pt x="132" y="465" on="1"/>
        <pt x="193" y="510" on="0"/>
        <pt x="322" y="510" on="0"/>
        <pt x="374" y="480" on="1"/>
        <pt x="405" y="509" on="0"/>
        <pt x="425" y="509" on="1"/>
        <pt x="456" y="509" on="0"/>
        <pt x="456" y="478" on="1"/>
        <pt x="456" y="458" on="0"/>
        <pt x="429" y="428" on="1"/>
        <pt x="459" y="386" on="0"/>
        <pt x="459" y="334" on="1"/>
        <pt x="459" y="247" on="0"/>
        <pt x="413" y="185" on="1"/>
        <pt x="456" y="140" on="0"/>
        <pt x="456" y="119" on="1"/>
        <pt x="456" y="88" on="0"/>
        <pt x="425" y="88" on="1"/>
        <pt x="401" y="88" on="0"/>
      </contour>
      <contour>
        <pt x="94" y="363" on="0"/>
        <pt x="94" y="235" on="0"/>
        <pt x="183" y="146" on="0"/>
        <pt x="310" y="146" on="0"/>
        <pt x="396" y="235" on="0"/>
        <pt x="396" y="363" on="0"/>
        <pt x="310" y="451" on="0"/>
        <pt x="183" y="451" on="0"/>
      </contour>
    </TTGlyph>
    <TTGlyph name="d" xMin="25" yMin="-6" xMax="495" yMax="750">
      <contour>
        <pt x="111" y="-6" on="0"/>
        <pt x="25" y="94" on="0"/>
        <pt x="25" y="225" on="0"/>
        <pt x="77" y="339" on="0"/>
        <pt x="157" y="413" on="0"/>
        <pt x="250" y="456" on="0"/>
        <pt x="349" y="456" on="0"/>
        <pt x="391" y="419" on="1"/>
        <pt x="390" y="494" on="0"/>
        <pt x="378" y="673" on="0"/>
        <pt x="378" y="719" on="0"/>
        <pt x="402" y="750" on="0"/>
        <pt x="440" y="750" on="0"/>
        <pt x="467" y="717" on="0"/>
        <pt x="467" y="662" on="0"/>
        <pt x="450" y="461" on="0"/>
        <pt x="450" y="285" on="0"/>
        <pt x="464" y="156" on="0"/>
        <pt x="472" y="133" on="1"/>
        <pt x="495" y="72" on="0"/>
        <pt x="495" y="51" on="1"/>
        <pt x="495" y="-6" on="0"/>
        <pt x="451" y="-6" on="1"/>
        <pt x="398" y="-6" on="0"/>
        <pt x="389" y="107" on="1"/>
        <pt x="349" y="54" on="0"/>
        <pt x="237" y="-6" on="0"/>
      </contour>
      <contour>
        <pt x="91" y="289" on="0"/>
        <pt x="91" y="161" on="0"/>
        <pt x="180" y="72" on="0"/>
        <pt x="307" y="72" on="0"/>
        <pt x="393" y="161" on="0"/>
        <pt x="393" y="297" on="0"/>
        <pt x="315" y="377" on="0"/>
        <pt x="180" y="377" on="0"/>
      </contour>
    </TTGlyph>
    <TTGlyph name="degree" xMin="45" yMin="398" xMax="289" yMax="642">
      <contour>
        <pt x="110" y="398" on="0"/>
        <pt x="45" y="458" on="0"/>
        <pt x="45" y="556" on="0"/>
        <pt x="126" y="642" on="0"/>
        <pt x="223" y="642" on="0"/>
        <pt x="289" y="580" on="0"/>
        <pt x="289" y="484" on="0"/>
        <pt x="208" y="398" on="0"/>
      </contour>
      <contour>
        <pt x="141" y="580" on="0"/>
        <pt x="103" y="544" on="0"/>
        <pt x="103" y="494" on="0"/>
        <pt x="141" y="456" on="0"/>
        <pt x="191" y="456" on="0"/>
        <pt x="227" y="494" on="0"/>
        <pt x="227" y="544" on="0"/>
        <pt x="191" y="580" on="0"/>
      </contour>
    </TTGlyph>
    <TTGlyph name="dieresis" xMin="50" yMin="548" xMax="333" yMax="641">
      <contour>
        <pt x="263" y="548" on="0"/>
        <pt x="240" y="569" on="0"/>
        <pt x="240" y="611" on="0"/>
        <pt x="269" y="641" on="0"/>
        <pt x="309" y="641" on="0"/>
        <pt x="333" y="619" on="0"/>
        <pt x="333" y="577" on="0"/>
        <pt x="303" y="548" on="0"/>
      </contour>
      <contour>
        <pt x="73" y="548" on="0"/>
        <pt x="50" y="569" on="0"/>
        <pt x="50" y="611" on="0"/>
        <pt x="79" y="641" on="0"/>
        <pt x="119" y="641" on="0"/>
        <pt x="143" y="619" on="0"/>
        <pt x="143" y="577" on="0"/>
        <pt x="113" y="548" on="0"/>
      </contour>
    </TTGlyph>
    <TTGlyph name="divide" xMin="-58" yMin="117" xMax="252" yMax="481">
      <contour>
        <pt x="74" y="390" on="0"/>
        <pt x="51" y="411" on="0"/>
        <pt x="51" y="452" on="0"/>
        <pt x="79" y="481" on="0"/>
        <pt x="118" y="481" on="0"/>
        <pt x="142" y="458" on="0"/>
        <pt x="142" y="418" on="0"/>
        <pt x="113" y="390" on="0"/>
      </contour>
      <contour>
        <pt x="74" y="117" on="0"/>
        <pt x="51" y="138" on="0"/>
        <pt x="51" y="179" on="0"/>
        <pt x="79" y="208" on="0"/>
        <pt x="118" y="208" on="0"/>
        <pt x="142" y="185" on="0"/>
        <pt x="142" y="145" on="0"/>
        <pt x="113" y="117" on="0"/>
      </contour>
      <contour>
        <pt x="58" y="330" on="0"/>
        <pt x="136" y="330" on="0"/>
        <pt x="211" y="336" on="0"/>
        <pt x="232" y="336" on="0"/>
        <pt x="252" y="316" on="0"/>
        <pt x="252" y="284" on="0"/>
        <pt x="232" y="263" on="0"/>
        <pt x="211" y="263" on="0"/>
        <pt x="136" y="268" on="0"/>
        <pt x="58" y="268" on="0"/>
        <pt x="-17" y="263" on="0"/>
        <pt x="-38" y="263" on="0"/>
        <pt x="-58" y="284" on="0"/>
        <pt x="-58" y="316" on="0"/>
        <pt x="-38" y="336" on="0"/>
        <pt x="-17" y="336" on="0"/>
      </contour>
    </TTGlyph>
    <TTGlyph name="dollar" xMin="50" yMin="-6" xMax="373" yMax="642">
      <contour>
        <pt x="96" y="54" on="0"/>
        <pt x="50" y="84" on="0"/>
        <pt x="50" y="129" on="0"/>
        <pt x="77" y="156" on="0"/>
        <pt x="104" y="156" on="0"/>
        <pt x="166" y="132" on="0"/>
        <pt x="233" y="132" on="0"/>
        <pt x="301" y="175" on="0"/>
        <pt x="301" y="236" on="0"/>
        <pt x="250" y="269" on="0"/>
        <pt x="178" y="290" on="0"/>
        <pt x="106" y="316" on="0"/>
        <pt x="55" y="368" on="0"/>
        <pt x="55" y="449" on="0"/>
        <pt x="126" y="531" on="0"/>
        <pt x="180" y="555" on="1"/>
        <pt x="179" y="573" on="0"/>
        <pt x="179" y="598" on="1"/>
        <pt x="179" y="642" on="0"/>
        <pt x="212" y="642" on="1"/>
        <pt x="225" y="642" on="0"/>
        <pt x="242" y="623" on="0"/>
        <pt x="242" y="608" on="1"/>
        <pt x="242" y="573" on="1"/>
        <pt x="258" y="576" on="0"/>
        <pt x="316" y="576" on="0"/>
        <pt x="359" y="547" on="0"/>
        <pt x="359" y="501" on="0"/>
        <pt x="332" y="474" on="0"/>
        <pt x="305" y="474" on="0"/>
        <pt x="243" y="498" on="0"/>
        <pt x="176" y="498" on="0"/>
        <pt x="127" y="461" on="0"/>
        <pt x="127" y="415" on="0"/>
        <pt x="178" y="386" on="0"/>
        <pt x="250" y="365" on="0"/>
        <pt x="322" y="338" on="0"/>
        <pt x="373" y="282" on="0"/>
        <pt x="373" y="195" on="0"/>
        <pt x="297" y="105" on="0"/>
        <pt x="240" y="79" on="1"/>
        <pt x="241" y="60" on="0"/>
        <pt x="241" y="13" on="0"/>
        <pt x="224" y="-6" on="0"/>
        <pt x="196" y="-6" on="0"/>
        <pt x="177" y="14" on="0"/>
        <pt x="177" y="29" on="1"/>
        <pt x="177" y="58" on="1"/>
        <pt x="157" y="54" on="0"/>
      </contour>
    </TTGlyph>
    <TTGlyph name="dotaccent" xMin="50" yMin="546" xMax="151" yMax="647">
      <contour>
        <pt x="75" y="546" on="0"/>
        <pt x="50" y="569" on="0"/>
        <pt x="50" y="615" on="0"/>
        <pt x="81" y="647" on="0"/>
        <pt x="125" y="647" on="0"/>
        <pt x="151" y="623" on="0"/>
        <pt x="151" y="577" on="0"/>
        <pt x="119" y="546" on="0"/>
      </contour>
    </TTGlyph>
    <TTGlyph name="dotaccentcmb" xMin="50" yMin="546" xMax="151" yMax="647">
      <contour>
        <pt x="75" y="546" on="0"/>
        <pt x="50" y="569" on="0"/>
        <pt x="50" y="615" on="0"/>
        <pt x="81" y="647" on="0"/>
        <pt x="125" y="647" on="0"/>
        <pt x="151" y="623" on="0"/>
        <pt x="151" y="577" on="0"/>
        <pt x="119" y="546" on="0"/>
      </contour>
    </TTGlyph>
    <TTGlyph name="dotlessi" xMin="56" yMin="-6" xMax="156" yMax="456">
      <contour>
        <pt x="66" y="73" on="1"/>
        <pt x="66" y="199" on="0"/>
        <pt x="56" y="389" on="0"/>
        <pt x="56" y="423" on="0"/>
        <pt x="83" y="456" on="0"/>
        <pt x="121" y="456" on="0"/>
        <pt x="145" y="425" on="0"/>
        <pt x="145" y="366" on="0"/>
        <pt x="131" y="227" on="0"/>
        <pt x="131" y="152" on="1"/>
        <pt x="131" y="122" on="0"/>
        <pt x="156" y="67" on="0"/>
        <pt x="156" y="22" on="0"/>
        <pt x="131" y="-6" on="0"/>
        <pt x="88" y="-6" on="0"/>
        <pt x="66" y="42" on="0"/>
      </contour>
    </TTGlyph>
    <TTGlyph name="e" xMin="25" yMin="-6" xMax="386" yMax="456">
      <contour>
        <pt x="238" y="199" on="1"/>
        <pt x="119" y="209" on="1"/>
        <pt x="102" y="209" on="0"/>
        <pt x="92" y="206" on="1"/>
        <pt x="98" y="149" on="0"/>
        <pt x="183" y="73" on="0"/>
        <pt x="241" y="73" on="1"/>
        <pt x="297" y="73" on="0"/>
        <pt x="342" y="114" on="1"/>
        <pt x="358" y="128" on="0"/>
        <pt x="374" y="128" on="0"/>
        <pt x="386" y="116" on="0"/>
        <pt x="386" y="109" on="1"/>
        <pt x="386" y="80" on="0"/>
        <pt x="273" y="-6" on="0"/>
        <pt x="130" y="-6" on="0"/>
        <pt x="25" y="110" on="0"/>
        <pt x="25" y="196" on="1"/>
        <pt x="25" y="306" on="0"/>
        <pt x="191" y="456" on="0"/>
        <pt x="291" y="456" on="1"/>
        <pt x="333" y="456" on="0"/>
        <pt x="386" y="427" on="0"/>
        <pt x="386" y="382" on="0"/>
        <pt x="359" y="354" on="0"/>
        <pt x="333" y="354" on="0"/>
        <pt x="270" y="378" on="0"/>
        <pt x="241" y="378" on="1"/>
        <pt x="187" y="378" on="0"/>
        <pt x="108" y="313" on="0"/>
        <pt x="95" y="265" on="1"/>
        <pt x="233" y="273" on="1"/>
        <pt x="279" y="273" on="0"/>
        <pt x="279" y="237" on="1"/>
        <pt x="279" y="199" on="0"/>
      </contour>
    </TTGlyph>
    <TTGlyph name="eacute" xMin="25" yMin="-6" xMax="386" yMax="642">
      <contour>
        <pt x="238" y="199" on="1"/>
        <pt x="119" y="209" on="1"/>
        <pt x="102" y="209" on="0"/>
        <pt x="92" y="206" on="1"/>
        <pt x="98" y="149" on="0"/>
        <pt x="183" y="73" on="0"/>
        <pt x="241" y="73" on="1"/>
        <pt x="297" y="73" on="0"/>
        <pt x="342" y="114" on="1"/>
        <pt x="358" y="128" on="0"/>
        <pt x="374" y="128" on="0"/>
        <pt x="386" y="116" on="0"/>
        <pt x="386" y="109" on="1"/>
        <pt x="386" y="80" on="0"/>
        <pt x="273" y="-6" on="0"/>
        <pt x="130" y="-6" on="0"/>
        <pt x="25" y="110" on="0"/>
        <pt x="25" y="196" on="1"/>
        <pt x="25" y="306" on="0"/>
        <pt x="191" y="456" on="0"/>
        <pt x="291" y="456" on="1"/>
        <pt x="333" y="456" on="0"/>
        <pt x="386" y="427" on="0"/>
        <pt x="386" y="382" on="0"/>
        <pt x="359" y="354" on="0"/>
        <pt x="333" y="354" on="0"/>
        <pt x="270" y="378" on="0"/>
        <pt x="241" y="378" on="1"/>
        <pt x="187" y="378" on="0"/>
        <pt x="108" y="313" on="0"/>
        <pt x="95" y="265" on="1"/>
        <pt x="233" y="273" on="1"/>
        <pt x="279" y="273" on="0"/>
        <pt x="279" y="237" on="1"/>
        <pt x="279" y="199" on="0"/>
      </contour>
      <contour>
        <pt x="175" y="525" on="1"/>
        <pt x="175" y="531" on="0"/>
        <pt x="183" y="539" on="1"/>
        <pt x="286" y="642" on="0"/>
        <pt x="333" y="642" on="1"/>
        <pt x="348" y="642" on="0"/>
        <pt x="371" y="621" on="0"/>
        <pt x="371" y="606" on="1"/>
        <pt x="371" y="573" on="0"/>
        <pt x="334" y="566" on="1"/>
        <pt x="256" y="552" on="0"/>
        <pt x="199" y="518" on="1"/>
        <pt x="191" y="513" on="0"/>
        <pt x="187" y="513" on="1"/>
        <pt x="175" y="513" on="0"/>
      </contour>
    </TTGlyph>
    <TTGlyph name="ecircumflex" xMin="25" yMin="-6" xMax="386" yMax="642">
      <component glyphName="e" x="0" y="0" flags="0x1004"/>
      <component glyphName="circumflex" x="82" y="0" flags="0x1004"/>
    </TTGlyph>
    <TTGlyph name="edieresis" xMin="25" yMin="-6" xMax="386" yMax="641">
      <component glyphName="e" x="0" y="0" flags="0x1004"/>
      <component glyphName="dieresis" x="49" y="0" flags="0x1004"/>
    </TTGlyph>
    <TTGlyph name="egrave" xMin="25" yMin="-6" xMax="386" yMax="642">
      <component glyphName="e" x="0" y="0" flags="0x1004"/>
      <component glyphName="grave" x="44" y="0" flags="0x1004"/>
    </TTGlyph>
    <TTGlyph name="eight" xMin="45" yMin="-6" xMax="476" yMax="642">
      <contour>
        <pt x="293" y="642" on="1"/>
        <pt x="347" y="642" on="0"/>
        <pt x="432" y="585" on="0"/>
        <pt x="432" y="530" on="1"/>
        <pt x="432" y="437" on="0"/>
        <pt x="334" y="375" on="1"/>
        <pt x="401" y="349" on="0"/>
        <pt x="476" y="279" on="0"/>
        <pt x="476" y="215" on="1"/>
        <pt x="476" y="122" on="0"/>
        <pt x="331" y="-6" on="0"/>
        <pt x="224" y="-6" on="1"/>
        <pt x="149" y="-6" on="0"/>
        <pt x="45" y="79" on="0"/>
        <pt x="45" y="218" on="0"/>
        <pt x="117" y="304" on="0"/>
        <pt x="180" y="340" on="1"/>
        <pt x="135" y="361" on="0"/>
        <pt x="85" y="420" on="0"/>
        <pt x="85" y="466" on="1"/>
        <pt x="85" y="543" on="0"/>
        <pt x="214" y="642" on="0"/>
      </contour>
      <contour>
        <pt x="411" y="182" on="1"/>
        <pt x="411" y="207" on="0"/>
        <pt x="388" y="249" on="0"/>
        <pt x="362" y="273" on="0"/>
        <pt x="332" y="286" on="1"/>
        <pt x="294" y="304" on="0"/>
        <pt x="234" y="321" on="1"/>
        <pt x="182" y="292" on="0"/>
        <pt x="127" y="229" on="0"/>
        <pt x="127" y="123" on="0"/>
        <pt x="216" y="50" on="0"/>
        <pt x="329" y="50" on="0"/>
        <pt x="411" y="127" on="0"/>
      </contour>
      <contour>
        <pt x="367" y="540" on="0"/>
        <pt x="305" y="587" on="0"/>
        <pt x="218" y="587" on="0"/>
        <pt x="156" y="537" on="0"/>
        <pt x="156" y="471" on="0"/>
        <pt x="195" y="429" on="0"/>
        <pt x="240" y="408" on="0"/>
        <pt x="282" y="393" on="1"/>
        <pt x="323" y="416" on="0"/>
        <pt x="367" y="462" on="0"/>
        <pt x="367" y="492" on="1"/>
      </contour>
    </TTGlyph>
    <TTGlyph name="ellipsis" xMin="40" yMin="-6" xMax="539" yMax="107">
      <contour>
        <pt x="68" y="-6" on="0"/>
        <pt x="40" y="20" on="0"/>
        <pt x="40" y="71" on="0"/>
        <pt x="75" y="107" on="0"/>
        <pt x="124" y="107" on="0"/>
        <pt x="153" y="80" on="0"/>
        <pt x="153" y="29" on="0"/>
        <pt x="117" y="-6" on="0"/>
      </contour>
      <contour>
        <pt x="261" y="-6" on="0"/>
        <pt x="233" y="20" on="0"/>
        <pt x="233" y="71" on="0"/>
        <pt x="268" y="107" on="0"/>
        <pt x="317" y="107" on="0"/>
        <pt x="346" y="80" on="0"/>
        <pt x="346" y="29" on="0"/>
        <pt x="310" y="-6" on="0"/>
      </contour>
      <contour>
        <pt x="454" y="-6" on="0"/>
        <pt x="426" y="20" on="0"/>
        <pt x="426" y="71" on="0"/>
        <pt x="461" y="107" on="0"/>
        <pt x="510" y="107" on="0"/>
        <pt x="539" y="80" on="0"/>
        <pt x="539" y="29" on="0"/>
        <pt x="503" y="-6" on="0"/>
      </contour>
    </TTGlyph>
    <TTGlyph name="emdash" xMin="50" yMin="267" xMax="713" yMax="332">
      <contour>
        <pt x="83" y="332" on="1"/>
        <pt x="382" y="327" on="1"/>
        <pt x="681" y="332" on="1"/>
        <pt x="695" y="332" on="0"/>
        <pt x="713" y="314" on="0"/>
        <pt x="713" y="286" on="0"/>
        <pt x="695" y="267" on="0"/>
        <pt x="681" y="267" on="1"/>
        <pt x="382" y="271" on="1"/>
        <pt x="83" y="267" on="1"/>
        <pt x="69" y="267" on="0"/>
        <pt x="50" y="286" on="0"/>
        <pt x="50" y="314" on="0"/>
        <pt x="69" y="332" on="0"/>
      </contour>
    </TTGlyph>
    <TTGlyph name="endash" xMin="50" yMin="267" xMax="483" yMax="332">
      <contour>
        <pt x="83" y="332" on="1"/>
        <pt x="267" y="327" on="1"/>
        <pt x="451" y="332" on="1"/>
        <pt x="465" y="332" on="0"/>
        <pt x="483" y="314" on="0"/>
        <pt x="483" y="286" on="0"/>
        <pt x="465" y="267" on="0"/>
        <pt x="451" y="267" on="1"/>
        <pt x="267" y="271" on="1"/>
        <pt x="83" y="267" on="1"/>
        <pt x="69" y="267" on="0"/>
        <pt x="50" y="286" on="0"/>
        <pt x="50" y="314" on="0"/>
        <pt x="69" y="332" on="0"/>
      </contour>
    </TTGlyph>
    <TTGlyph name="equal" xMin="60" yMin="188" xMax="350" yMax="411">
      <contour>
        <pt x="166" y="405" on="0"/>
        <pt x="244" y="405" on="0"/>
        <pt x="309" y="411" on="0"/>
        <pt x="330" y="411" on="0"/>
        <pt x="350" y="391" on="0"/>
        <pt x="350" y="359" on="0"/>
        <pt x="330" y="338" on="0"/>
        <pt x="309" y="338" on="0"/>
        <pt x="244" y="343" on="0"/>
        <pt x="166" y="343" on="0"/>
        <pt x="101" y="338" on="0"/>
        <pt x="80" y="338" on="0"/>
        <pt x="60" y="359" on="0"/>
        <pt x="60" y="391" on="0"/>
        <pt x="80" y="411" on="0"/>
        <pt x="101" y="411" on="0"/>
      </contour>
      <contour>
        <pt x="166" y="255" on="0"/>
        <pt x="244" y="255" on="0"/>
        <pt x="309" y="261" on="0"/>
        <pt x="330" y="261" on="0"/>
        <pt x="350" y="241" on="0"/>
        <pt x="350" y="209" on="0"/>
        <pt x="330" y="188" on="0"/>
        <pt x="309" y="188" on="0"/>
        <pt x="244" y="193" on="0"/>
        <pt x="166" y="193" on="0"/>
        <pt x="101" y="188" on="0"/>
        <pt x="80" y="188" on="0"/>
        <pt x="60" y="209" on="0"/>
        <pt x="60" y="241" on="0"/>
        <pt x="80" y="261" on="0"/>
        <pt x="101" y="261" on="0"/>
      </contour>
    </TTGlyph>
    <TTGlyph name="eth" xMin="25" yMin="-6" xMax="449" yMax="696">
      <contour>
        <pt x="416" y="640" on="1"/>
        <pt x="416" y="632" on="0"/>
        <pt x="400" y="618" on="0"/>
        <pt x="363" y="594" on="0"/>
        <pt x="352" y="585" on="1"/>
        <pt x="449" y="475" on="0"/>
        <pt x="449" y="292" on="1"/>
        <pt x="449" y="164" on="0"/>
        <pt x="280" y="-6" on="0"/>
        <pt x="181" y="-6" on="1"/>
        <pt x="111" y="-6" on="0"/>
        <pt x="25" y="94" on="0"/>
        <pt x="25" y="225" on="0"/>
        <pt x="77" y="340" on="0"/>
        <pt x="155" y="413" on="0"/>
        <pt x="244" y="456" on="0"/>
        <pt x="283" y="456" on="1"/>
        <pt x="347" y="456" on="0"/>
        <pt x="394" y="409" on="1"/>
        <pt x="370" y="497" on="0"/>
        <pt x="313" y="546" on="1"/>
        <pt x="274" y="494" on="0"/>
        <pt x="256" y="484" on="0"/>
        <pt x="250" y="484" on="1"/>
        <pt x="223" y="484" on="0"/>
        <pt x="221" y="513" on="1"/>
        <pt x="221" y="520" on="0"/>
        <pt x="237" y="534" on="0"/>
        <pt x="273" y="557" on="0"/>
        <pt x="284" y="566" on="1"/>
        <pt x="227" y="600" on="0"/>
        <pt x="140" y="609" on="1"/>
        <pt x="71" y="616" on="0"/>
        <pt x="71" y="653" on="1"/>
        <pt x="71" y="671" on="0"/>
        <pt x="96" y="696" on="0"/>
        <pt x="114" y="696" on="1"/>
        <pt x="158" y="696" on="0"/>
        <pt x="277" y="655" on="0"/>
        <pt x="328" y="609" on="1"/>
        <pt x="338" y="621" on="0"/>
        <pt x="360" y="650" on="0"/>
        <pt x="366" y="656" on="1"/>
        <pt x="377" y="668" on="0"/>
        <pt x="388" y="668" on="1"/>
        <pt x="416" y="668" on="0"/>
      </contour>
      <contour>
        <pt x="91" y="289" on="0"/>
        <pt x="91" y="161" on="0"/>
        <pt x="180" y="72" on="0"/>
        <pt x="307" y="72" on="0"/>
        <pt x="393" y="161" on="0"/>
        <pt x="393" y="301" on="0"/>
        <pt x="311" y="377" on="0"/>
        <pt x="180" y="377" on="0"/>
      </contour>
    </TTGlyph>
    <TTGlyph name="exclam" xMin="60" yMin="-6" xMax="179" yMax="696">
      <contour>
        <pt x="89" y="-6" on="0"/>
        <pt x="60" y="21" on="0"/>
        <pt x="60" y="74" on="0"/>
        <pt x="97" y="113" on="0"/>
        <pt x="148" y="113" on="0"/>
        <pt x="179" y="84" on="0"/>
        <pt x="179" y="31" on="0"/>
        <pt x="140" y="-6" on="0"/>
      </contour>
      <contour>
        <pt x="103" y="696" on="0"/>
        <pt x="145" y="696" on="0"/>
        <pt x="173" y="666" on="0"/>
        <pt x="173" y="632" on="0"/>
        <pt x="151" y="370" on="0"/>
        <pt x="151" y="226" on="1"/>
        <pt x="151" y="214" on="0"/>
        <pt x="135" y="197" on="0"/>
        <pt x="113" y="197" on="0"/>
        <pt x="98" y="214" on="0"/>
        <pt x="98" y="226" on="1"/>
        <pt x="98" y="370" on="0"/>
        <pt x="76" y="632" on="0"/>
        <pt x="76" y="666" on="0"/>
      </contour>
    </TTGlyph>
    <TTGlyph name="exclamdown" xMin="60" yMin="-246" xMax="179" yMax="456">
      <contour>
        <pt x="150" y="456" on="0"/>
        <pt x="179" y="429" on="0"/>
        <pt x="179" y="376" on="0"/>
        <pt x="142" y="337" on="0"/>
        <pt x="91" y="337" on="0"/>
        <pt x="60" y="366" on="0"/>
        <pt x="60" y="419" on="0"/>
        <pt x="99" y="456" on="0"/>
      </contour>
      <contour>
        <pt x="136" y="-246" on="0"/>
        <pt x="94" y="-246" on="0"/>
        <pt x="66" y="-216" on="0"/>
        <pt x="66" y="-182" on="0"/>
        <pt x="88" y="80" on="0"/>
        <pt x="88" y="224" on="1"/>
        <pt x="88" y="236" on="0"/>
        <pt x="104" y="253" on="0"/>
        <pt x="126" y="253" on="0"/>
        <pt x="141" y="236" on="0"/>
        <pt x="141" y="224" on="1"/>
        <pt x="141" y="80" on="0"/>
        <pt x="163" y="-182" on="0"/>
        <pt x="163" y="-216" on="0"/>
      </contour>
    </TTGlyph>
    <TTGlyph name="f" xMin="10" yMin="-290" xMax="438" yMax="750">
      <contour>
        <pt x="70" y="-134" on="0"/>
        <pt x="89" y="18" on="0"/>
        <pt x="89" y="214" on="0"/>
        <pt x="80" y="385" on="1"/>
        <pt x="49" y="385" on="1"/>
        <pt x="10" y="385" on="0"/>
        <pt x="10" y="453" on="0"/>
        <pt x="49" y="453" on="1"/>
        <pt x="69" y="453" on="0"/>
        <pt x="79" y="452" on="1"/>
        <pt x="83" y="577" on="0"/>
        <pt x="264" y="750" on="0"/>
        <pt x="355" y="750" on="1"/>
        <pt x="391" y="750" on="0"/>
        <pt x="438" y="724" on="0"/>
        <pt x="438" y="675" on="0"/>
        <pt x="411" y="648" on="0"/>
        <pt x="385" y="648" on="0"/>
        <pt x="321" y="671" on="0"/>
        <pt x="290" y="671" on="1"/>
        <pt x="228" y="671" on="0"/>
        <pt x="140" y="562" on="0"/>
        <pt x="140" y="486" on="1"/>
        <pt x="140" y="448" on="1"/>
        <pt x="172" y="448" on="1"/>
        <pt x="310" y="456" on="1"/>
        <pt x="349" y="456" on="0"/>
        <pt x="349" y="382" on="0"/>
        <pt x="310" y="382" on="1"/>
        <pt x="172" y="390" on="1"/>
        <pt x="150" y="390" on="0"/>
        <pt x="140" y="389" on="1"/>
        <pt x="142" y="279" on="0"/>
        <pt x="157" y="5" on="0"/>
        <pt x="157" y="-128" on="1"/>
        <pt x="157" y="-290" on="0"/>
        <pt x="94" y="-290" on="1"/>
        <pt x="50" y="-290" on="0"/>
        <pt x="50" y="-233" on="1"/>
        <pt x="50" y="-213" on="0"/>
      </contour>
    </TTGlyph>
    <TTGlyph name="fi" xMin="20" yMin="-290" xMax="483" yMax="750">
      <contour>
        <pt x="80" y="-134" on="0"/>
        <pt x="99" y="18" on="0"/>
        <pt x="99" y="216" on="0"/>
        <pt x="90" y="387" on="1"/>
        <pt x="59" y="387" on="1"/>
        <pt x="20" y="387" on="0"/>
        <pt x="20" y="455" on="0"/>
        <pt x="59" y="455" on="1"/>
        <pt x="79" y="455" on="0"/>
        <pt x="89" y="454" on="1"/>
        <pt x="93" y="578" on="0"/>
        <pt x="274" y="750" on="0"/>
        <pt x="365" y="750" on="1"/>
        <pt x="401" y="750" on="0"/>
        <pt x="448" y="724" on="0"/>
        <pt x="448" y="675" on="0"/>
        <pt x="421" y="648" on="0"/>
        <pt x="395" y="648" on="0"/>
        <pt x="331" y="671" on="0"/>
        <pt x="300" y="671" on="1"/>
        <pt x="238" y="671" on="0"/>
        <pt x="150" y="562" on="0"/>
        <pt x="150" y="486" on="1"/>
        <pt x="150" y="450" on="1"/>
        <pt x="182" y="450" on="1"/>
        <pt x="429" y="456" on="1"/>
        <pt x="451" y="456" on="0"/>
        <pt x="472" y="420" on="0"/>
        <pt x="472" y="366" on="0"/>
        <pt x="458" y="227" on="0"/>
        <pt x="458" y="152" on="1"/>
        <pt x="458" y="122" on="0"/>
        <pt x="483" y="67" on="0"/>
        <pt x="483" y="22" on="0"/>
        <pt x="458" y="-6" on="0"/>
        <pt x="415" y="-6" on="0"/>
        <pt x="393" y="42" on="0"/>
        <pt x="393" y="73" on="1"/>
        <pt x="393" y="236" on="0"/>
        <pt x="383" y="369" on="0"/>
        <pt x="383" y="383" on="1"/>
        <pt x="191" y="392" on="0"/>
        <pt x="160" y="392" on="0"/>
        <pt x="150" y="391" on="1"/>
        <pt x="152" y="282" on="0"/>
        <pt x="167" y="5" on="0"/>
        <pt x="167" y="-128" on="1"/>
        <pt x="167" y="-290" on="0"/>
        <pt x="104" y="-290" on="1"/>
        <pt x="60" y="-290" on="0"/>
        <pt x="60" y="-233" on="1"/>
        <pt x="60" y="-213" on="0"/>
      </contour>
    </TTGlyph>
    <TTGlyph name="five" xMin="45" yMin="-6" xMax="435" yMax="642">
      <contour>
        <pt x="169" y="565" on="1"/>
        <pt x="169" y="565" on="0"/>
        <pt x="168" y="528" on="1"/>
        <pt x="168" y="512" on="0"/>
        <pt x="168" y="419" on="0"/>
        <pt x="172" y="395" on="1"/>
        <pt x="213" y="429" on="0"/>
        <pt x="340" y="429" on="0"/>
        <pt x="435" y="334" on="0"/>
        <pt x="435" y="266" on="1"/>
        <pt x="435" y="160" on="0"/>
        <pt x="252" y="-6" on="0"/>
        <pt x="133" y="-6" on="1"/>
        <pt x="94" y="-6" on="0"/>
        <pt x="45" y="23" on="0"/>
        <pt x="45" y="75" on="0"/>
        <pt x="79" y="109" on="0"/>
        <pt x="119" y="109" on="0"/>
        <pt x="186" y="70" on="0"/>
        <pt x="213" y="70" on="1"/>
        <pt x="279" y="70" on="0"/>
        <pt x="366" y="154" on="0"/>
        <pt x="366" y="275" on="0"/>
        <pt x="280" y="360" on="0"/>
        <pt x="220" y="360" on="1"/>
        <pt x="189" y="360" on="0"/>
        <pt x="131" y="328" on="0"/>
        <pt x="112" y="328" on="0"/>
        <pt x="97" y="343" on="0"/>
        <pt x="97" y="354" on="1"/>
        <pt x="100" y="476" on="1"/>
        <pt x="100" y="514" on="0"/>
        <pt x="91" y="594" on="0"/>
        <pt x="91" y="621" on="0"/>
        <pt x="120" y="642" on="0"/>
        <pt x="139" y="642" on="1"/>
        <pt x="254" y="636" on="1"/>
        <pt x="370" y="642" on="1"/>
        <pt x="386" y="642" on="0"/>
        <pt x="411" y="621" on="0"/>
        <pt x="411" y="585" on="0"/>
        <pt x="386" y="564" on="0"/>
        <pt x="370" y="564" on="1"/>
        <pt x="254" y="570" on="1"/>
        <pt x="226" y="570" on="0"/>
      </contour>
    </TTGlyph>
    <TTGlyph name="fl" xMin="20" yMin="-290" xMax="526" yMax="750">
      <contour>
        <pt x="80" y="-134" on="0"/>
        <pt x="99" y="18" on="0"/>
        <pt x="99" y="216" on="0"/>
        <pt x="90" y="387" on="1"/>
        <pt x="59" y="387" on="1"/>
        <pt x="20" y="387" on="0"/>
        <pt x="20" y="455" on="0"/>
        <pt x="59" y="455" on="1"/>
        <pt x="79" y="455" on="0"/>
        <pt x="89" y="454" on="1"/>
        <pt x="93" y="578" on="0"/>
        <pt x="274" y="750" on="0"/>
        <pt x="365" y="750" on="1"/>
        <pt x="420" y="750" on="0"/>
        <pt x="502" y="708" on="0"/>
        <pt x="502" y="671" on="1"/>
        <pt x="502" y="612" on="0"/>
        <pt x="498" y="515" on="1"/>
        <pt x="487" y="289" on="0"/>
        <pt x="487" y="152" on="1"/>
        <pt x="487" y="122" on="0"/>
        <pt x="526" y="67" on="0"/>
        <pt x="526" y="23" on="0"/>
        <pt x="496" y="-6" on="0"/>
        <pt x="477" y="-6" on="1"/>
        <pt x="427" y="-6" on="0"/>
        <pt x="427" y="73" on="1"/>
        <pt x="427" y="426" on="0"/>
        <pt x="414" y="656" on="1"/>
        <pt x="373" y="671" on="0"/>
        <pt x="242" y="671" on="0"/>
        <pt x="150" y="563" on="0"/>
        <pt x="150" y="486" on="1"/>
        <pt x="150" y="450" on="1"/>
        <pt x="182" y="450" on="1"/>
        <pt x="320" y="458" on="1"/>
        <pt x="359" y="458" on="0"/>
        <pt x="359" y="384" on="0"/>
        <pt x="320" y="384" on="1"/>
        <pt x="320" y="384" on="0"/>
        <pt x="182" y="392" on="1"/>
        <pt x="160" y="392" on="0"/>
        <pt x="150" y="391" on="1"/>
        <pt x="152" y="282" on="0"/>
        <pt x="167" y="5" on="0"/>
        <pt x="167" y="-128" on="1"/>
        <pt x="167" y="-290" on="0"/>
        <pt x="104" y="-290" on="1"/>
        <pt x="60" y="-290" on="0"/>
        <pt x="60" y="-233" on="1"/>
        <pt x="60" y="-213" on="0"/>
      </contour>
    </TTGlyph>
</ttFont>
